<svg width="64" height="64" viewBox="0 0 64 64" fill="none" xmlns="http://www.w3.org/2000/svg">
    <path d="M60.2757 37.2923L60.5114 37.1553C60.5504 37.1326 60.549 37.0759 60.5089 37.0552L41.6381 27.2974C41.6365 27.2966 41.6349 27.2956 41.6334 27.2947L24.5697 16.3021C24.5517 16.2904 24.5286 16.2899 24.5101 16.3007L3.22607 28.6696L3.57773 28.8726L3.22607 29.0698L3.68143 29.2491L3.22607 29.5137L3.56077 29.7069L3.22607 29.931L3.5765 30.1542L3.22607 30.3579L3.55074 30.5453L3.22607 30.7443L3.57561 30.9989L3.22607 31.202L3.54765 31.3877L3.22607 31.5735L3.53083 31.7734C3.56633 31.7967 3.56491 31.8492 3.5282 31.8705L3.22607 32.0461L3.59807 32.2609L3.22607 32.4984L3.60235 32.6716L3.22607 32.8903L3.52495 33.0628C3.5615 33.0839 3.56331 33.136 3.52834 33.1596L3.22607 33.3635L3.59135 33.5221L3.22607 33.7343L3.55213 33.9226L3.22607 34.0931L3.55846 34.2866C3.59631 34.3087 3.59629 34.3633 3.55842 34.3853L3.22607 34.5785L3.5853 34.7858L3.22607 34.976L3.61149 35.1985L3.22607 35.4225L3.5693 35.6207L3.22607 35.8202L3.61149 36.0427L3.22607 36.2667L39.2585 57.07C39.2762 57.0802 39.298 57.0802 39.3157 57.0699L60.6014 44.7L60.2578 44.5224L60.6014 44.3239L60.2837 44.1392C60.2458 44.1172 60.2458 44.0625 60.2837 44.0405L60.6014 43.8559L60.2577 43.6782L60.6014 43.4797L60.2709 43.3048C60.2313 43.2839 60.2302 43.2275 60.269 43.205L60.6014 43.0118L60.2239 42.8166L60.6014 42.5968L60.2127 42.3936L60.6014 42.1677L60.2854 42.0043L60.6013 41.8672L60.2439 41.6261C60.209 41.6025 60.2108 41.5506 60.2472 41.5294L60.6014 41.3235L60.2724 41.1534L60.6014 41.0021L60.2518 40.7789C60.2157 40.7559 60.2168 40.7029 60.2538 40.6814L60.6013 40.4795L60.2584 40.3022L60.6013 40.0772L60.2201 39.8569L60.6013 39.6354L60.2903 39.4746L60.6013 39.248L60.2187 39.0136L60.6013 38.7912L60.2924 38.6315L60.6013 38.4347L60.2874 38.2246C60.2523 38.2011 60.2539 38.149 60.2904 38.1278L60.6013 37.9471L60.1912 37.7351L60.6013 37.5736L60.2764 37.3915C60.2379 37.3698 60.2375 37.3145 60.2757 37.2923Z" fill="#C1DBF6"/>
    <path d="M24.5403 15.439L3.22607 27.8255L39.2871 48.6453L60.6014 36.2588L41.6357 26.452L24.5403 15.439Z" fill="white"/>
    <path d="M29.1068 18.0815L6.48438 28.4857C6.48438 28.4857 16.8598 35.6976 18.7643 36.8089C25.8203 40.9263 39.2872 48.6454 39.2872 48.6454L60.6014 36.2589L41.6357 26.452L29.1068 18.0815Z" fill="#C1DBF6"/>
    <path d="M50.3506 29.8477C47.8112 28.6165 45.1803 27.558 42.7807 26.0694C40.044 24.4113 37.5381 22.4222 35.0637 20.4014C31.5678 17.6537 28.3217 14.5397 25.8074 10.8496C18.681 14.6814 11.6017 18.4885 4.47925 22.3267C7.68739 26.7271 11.0963 30.4015 15.2822 33.6685C17.2435 35.2636 19.5068 36.8268 21.6244 38.2123C23.9841 39.7918 26.5588 41.2713 29.1653 42.3964C32.5837 43.9097 35.764 45.3258 39.2666 46.6533C46.8928 42.5393 54.4618 38.4234 62.0668 34.2678C57.9701 33.3123 54.1258 31.6421 50.3506 29.8477Z" fill="white"/>
    <path d="M25.8074 10.8496C28.3217 14.5396 31.5679 17.6537 35.0637 20.4014C37.538 22.4221 40.044 24.4112 42.7807 26.0694C45.1803 27.558 47.8112 28.6165 50.3506 29.8477C54.1258 31.642 57.9701 33.3123 62.0668 34.2678C61.2039 34.7393 60.3426 35.2087 59.4804 35.6793L60.6013 36.2589L59.8327 36.7056L60.6013 37.103L60.1892 37.3426L60.6013 37.5736L60.1912 37.7351L60.6013 37.9471L60.2114 38.1737L60.6013 38.4347L60.2924 38.6315L60.6013 38.7913L60.2187 39.0136L60.6013 39.248L60.2903 39.4746L60.6013 39.6354L60.2201 39.8569L60.6013 40.0772L60.2584 40.3022L60.6013 40.4795L60.1728 40.7285L60.6013 41.0021L60.2724 41.1534L60.6013 41.3235L60.1684 41.5751L60.6013 41.8672L60.2854 42.0043L60.6013 42.1677L60.2127 42.3936L60.6013 42.5968L60.2238 42.8166L60.6013 43.0118L60.18 43.2567L60.6013 43.4797L60.2577 43.6782L60.6014 43.8559L60.1987 44.0899L60.6014 44.3239L60.2578 44.5224L60.6014 44.7001L39.2871 57.0866L3.22607 36.2667L3.61149 36.0427L3.22607 35.8202L3.56929 35.6207L3.22607 35.4226L3.61149 35.1986L3.22607 34.976L3.58529 34.7859L3.22607 34.5785L3.64328 34.3361L3.22607 34.0931L3.55213 33.9226L3.22607 33.7344L3.59137 33.5221L3.22607 33.3635L3.60408 33.1086L3.22607 32.8903L3.60234 32.6716L3.22607 32.4984L3.59807 32.2609L3.22607 32.0462L3.60808 31.8242L3.22607 31.5736L3.54765 31.3877L3.22607 31.2021L3.5756 30.9989L3.22607 30.7443L3.55073 30.5454L3.22607 30.3579L3.57649 30.1543L3.22607 29.931L3.56077 29.707L3.22607 29.5137L3.68143 29.2491L3.22607 29.0698L3.57773 28.8727L3.22607 28.6697L3.95471 28.2462L3.22607 27.8255L7.03123 25.6142C6.16047 24.5633 5.31283 23.47 4.47928 22.3267C11.6017 18.4885 18.681 14.6813 25.8074 10.8496ZM25.8068 9.93518C25.6601 9.93518 25.5117 9.9705 25.3744 10.0443C18.229 13.8862 11.2211 17.655 4.04554 21.5218C3.81309 21.6471 3.64616 21.8667 3.58769 22.1242C3.52922 22.3818 3.58495 22.652 3.74049 22.8653C4.36655 23.724 5.00511 24.5602 5.64646 25.3615L2.76669 27.035C2.48467 27.1989 2.31133 27.5006 2.31178 27.8268C2.31199 27.9759 2.34849 28.1198 2.41503 28.2476C2.34808 28.3762 2.31155 28.521 2.31178 28.671C2.31187 28.7387 2.31944 28.8052 2.33391 28.8697C2.31491 28.9544 2.30781 29.0426 2.31389 29.1319C2.31759 29.1865 2.32611 29.24 2.3391 29.2918C2.32106 29.3639 2.31167 29.4388 2.31178 29.5151C2.31187 29.5857 2.32015 29.6552 2.33587 29.7224C2.31926 29.7934 2.31098 29.8668 2.31183 29.9414C2.31261 30.0105 2.3212 30.0786 2.33702 30.1445C2.32033 30.214 2.31167 30.286 2.31178 30.3592C2.31187 30.4245 2.31891 30.4888 2.3324 30.5511C2.32136 30.6022 2.31462 30.6547 2.31251 30.7078C2.3089 30.7983 2.31875 30.8876 2.34088 30.9732C2.32168 31.0474 2.31167 31.1247 2.31178 31.2034C2.31187 31.266 2.31837 31.3278 2.33082 31.3878C2.32001 31.44 2.31368 31.4934 2.31215 31.5477C2.30961 31.6373 2.32024 31.7255 2.34282 31.8098C2.32234 31.8863 2.31167 31.9661 2.31178 32.0474C2.3119 32.1243 2.32163 32.1997 2.34017 32.2723C2.31645 32.3651 2.30717 32.4625 2.31393 32.561C2.31704 32.6062 2.32346 32.6508 2.33302 32.6944C2.31896 32.7584 2.31169 32.8245 2.31181 32.8916C2.31192 32.9721 2.32262 33.0511 2.34294 33.1269C2.31539 33.2297 2.30559 33.338 2.31567 33.4474C2.31885 33.4817 2.3239 33.5156 2.3308 33.5489C2.31821 33.6097 2.31174 33.6722 2.31183 33.7356C2.31192 33.7961 2.31798 33.8557 2.32957 33.9138C2.31921 33.9655 2.31327 34.0186 2.31206 34.0723C2.31 34.1626 2.32131 34.2512 2.34461 34.3358C2.32301 34.4143 2.31169 34.4962 2.31183 34.5798C2.31192 34.647 2.31939 34.7132 2.33368 34.7773C2.32051 34.8363 2.31313 34.8973 2.31199 34.9592C2.31048 35.0413 2.31999 35.1219 2.33949 35.1993C2.32122 35.2718 2.31171 35.3472 2.31183 35.4239C2.31192 35.4912 2.31939 35.5573 2.33368 35.6214C2.31919 35.6864 2.31171 35.7534 2.31183 35.8216C2.31194 35.8974 2.32143 35.9718 2.33949 36.0435C2.32122 36.116 2.31171 36.1913 2.31183 36.268C2.31229 36.5942 2.4865 36.8954 2.76897 37.0585L38.83 57.8784C38.9715 57.96 39.1294 58.0009 39.2872 58.0009C39.4459 58.0009 39.6046 57.9596 39.7466 57.8771L61.0608 45.4906C61.3494 45.3229 61.5236 45.0112 61.5154 44.6776C61.514 44.6213 61.5075 44.5659 61.4962 44.512C61.5089 44.4512 61.5156 44.3885 61.5157 44.325C61.5158 44.2446 61.5053 44.1657 61.4852 44.0899C61.5071 44.0075 61.5176 43.9212 61.5154 43.8334C61.514 43.7772 61.5075 43.7218 61.4961 43.6678C61.5101 43.6013 61.5168 43.5326 61.5155 43.463C61.5141 43.3887 61.5038 43.3159 61.4852 43.2458C61.5071 43.1634 61.5175 43.0771 61.5154 42.9894C61.5138 42.9263 61.5058 42.8643 61.4918 42.8043C61.509 42.7305 61.5172 42.6539 61.5154 42.5761C61.5139 42.51 61.5053 42.4451 61.4902 42.3823C61.5086 42.3057 61.5174 42.2261 61.5154 42.1451C61.5143 42.1019 61.5102 42.0593 61.5033 42.0174C61.5069 41.9955 61.5098 41.9734 61.5118 41.9511C61.5231 41.8291 61.5096 41.7085 61.4743 41.5954C61.5036 41.5016 61.5179 41.4023 61.5154 41.3011C61.5142 41.2542 61.5095 41.208 61.5014 41.1628C61.5072 41.1306 61.5113 41.0978 61.5135 41.0647C61.5211 40.9536 61.5084 40.8442 61.4775 40.7408C61.5046 40.6501 61.5178 40.5545 61.5154 40.4569C61.5139 40.3962 61.5064 40.3363 61.4933 40.2784C61.5099 40.2048 61.5175 40.1287 61.5153 40.0514C61.5134 39.9848 61.5043 39.9195 61.4886 39.8563C61.5081 39.7778 61.5174 39.6961 61.5154 39.6129C61.5139 39.5547 61.507 39.4974 61.4949 39.4417C61.5111 39.367 61.518 39.2897 61.5149 39.2115C61.5123 39.1461 61.5027 39.0819 61.4867 39.0197C61.5075 38.9389 61.5175 38.8546 61.5154 38.7689C61.5141 38.716 61.5082 38.6638 61.4981 38.613C61.509 38.5582 61.5149 38.502 61.5156 38.4451C61.5166 38.3581 61.5052 38.2727 61.4825 38.191C61.5062 38.1055 61.5176 38.0159 61.5154 37.9246C61.514 37.8688 61.5076 37.8139 61.4964 37.7604C61.5049 37.7196 61.5107 37.6779 61.5135 37.6356C61.5205 37.5339 61.5103 37.4336 61.4849 37.3383C61.507 37.2554 61.5175 37.1687 61.5154 37.0806C61.5119 36.9387 61.4757 36.8025 61.4124 36.6809C61.4826 36.5462 61.5193 36.3937 61.5154 36.2364C61.5106 36.0429 61.4449 35.8598 61.3327 35.7102C61.7234 35.4971 62.1141 35.2838 62.5052 35.0701C62.838 34.8883 63.024 34.52 62.9727 34.1443C62.9215 33.7686 62.6438 33.4635 62.2745 33.3774C58.1886 32.4244 54.3176 30.7209 50.7431 29.0219C50.0154 28.6691 49.2655 28.3237 48.5404 27.9896C46.7645 27.1716 44.9282 26.3256 43.2627 25.2925C40.5284 23.6357 37.9991 21.6182 35.642 19.6933C35.6376 19.6897 35.6331 19.6862 35.6287 19.6827C31.7221 16.6121 28.7567 13.5544 26.5629 10.3348C26.3872 10.0769 26.1005 9.93518 25.8068 9.93518Z" fill="#374874"/>
    <path d="M12.1038 26.2835L26.4825 18.0815" stroke="#374874" stroke-width="0.5" stroke-linecap="round"/>
    <path d="M36.7783 42.1785L51.8962 33.5549" stroke="#374874" stroke-width="0.5" stroke-linecap="round"/>
    <path d="M16.7019 30.7628L31.2694 22.4531" stroke="#374874" stroke-width="0.5" stroke-linecap="round"/>
    <path d="M22.7312 35.0957L37.408 26.7238" stroke="#374874" stroke-width="0.5" stroke-linecap="round"/>
    <path d="M29.283 38.979L44.3373 30.3916" stroke="#374874" stroke-width="0.5" stroke-linecap="round"/>
</svg>
