<svg width="64" height="64" viewBox="0 0 64 64" fill="none" xmlns="http://www.w3.org/2000/svg">
    <path d="M58.546 9.57904L58.4914 28.8262C58.4887 29.7613 57.8876 30.6925 56.6935 31.4256C55.9747 31.8666 55.12 32.177 54.2045 32.383C52.7487 32.7051 51.4947 33.2767 50.6826 34.0281C50.4823 34.2172 50.3867 34.428 50.3861 34.6376L50.4407 15.3904C50.4413 15.1808 50.5369 14.97 50.7371 14.7809C51.5493 14.0295 52.8033 13.4579 54.2591 13.1358C55.1746 12.9298 56.0293 12.6194 56.7481 12.1784C57.9421 11.4453 58.5433 10.5141 58.546 9.57904Z" fill="white"/>
    <path d="M21.7618 30.8431L21.8164 11.5959C21.8163 11.6447 21.8299 11.6936 21.8599 11.7405L21.8053 30.9877C21.7753 30.9408 21.7617 30.892 21.7618 30.8431Z" fill="#FBDBD0"/>
    <path d="M23.3801 13.0867L23.3255 32.3339C22.5962 31.9141 22.102 31.4822 21.8053 30.9877L21.8599 11.7405C22.1565 12.235 22.6507 12.6669 23.3801 13.0867Z" fill="#FBDBD0"/>
    <path d="M28.8118 14.9265L28.7572 34.1737C27.9464 33.7294 27.0883 33.448 26.1858 33.2856C25.1029 33.094 24.1143 32.772 23.3255 32.3339L23.3801 13.0867C24.1688 13.5248 25.1575 13.8468 26.2403 14.0384C27.1429 14.2008 28.001 14.4822 28.8118 14.9265Z" fill="#FBDBD0"/>
    <path d="M30.737 17.6015L30.6824 36.8487C30.6845 36.0936 30.3018 35.3413 29.5396 34.7129C29.2998 34.5161 29.039 34.3364 28.7572 34.1737L28.8118 14.9265C29.0936 15.0892 29.3543 15.2689 29.5942 15.4657C30.3563 16.0941 30.7391 16.8465 30.737 17.6015Z" fill="#FBDBD0"/>
    <path d="M56.5626 6.84314C59.152 8.33653 59.1977 10.6745 56.7481 12.1784C56.0293 12.6194 55.1745 12.9299 54.259 13.1359C52.8033 13.4579 51.5493 14.0295 50.7371 14.7809C50.2323 15.2576 50.3925 15.8719 51.0632 16.2591L61.1046 21.7902L32.5881 39.282L2.94995 22.9627L13.0826 16.7482C13.3073 16.6118 13.6425 16.5393 13.9534 16.5914C14.8708 16.7511 15.6889 17.0382 16.3721 17.4155C17.1909 17.8869 17.7606 18.407 18.1191 18.9907C18.4279 19.4891 18.9418 19.9584 19.6258 20.3533C22.6187 21.9994 27.4206 21.7121 29.7179 19.626C31.1232 18.3611 31.0686 16.6813 29.5942 15.4657C29.3543 15.2689 29.0936 15.0892 28.8118 14.9265C28.0009 14.4822 27.1429 14.2008 26.2403 14.0384C25.1575 13.8468 24.1688 13.5249 23.3801 13.0867C22.6507 12.6669 22.1565 12.235 21.8598 11.7406C21.7486 11.5665 21.8627 11.3663 22.0675 11.2357L31.4665 5.47089L40.6457 10.522C41.3389 10.905 42.4312 10.9746 43.2407 10.638C44.4853 10.136 45.3924 9.36437 45.8833 8.4969C46.29 7.73667 47.1424 7.03173 48.3866 6.50657C50.5003 5.63335 53.375 5.58108 55.5282 6.37896C55.9096 6.51822 56.2511 6.67489 56.5626 6.84314Z" fill="#C1DBF6"/>
    <path fill-rule="evenodd" clip-rule="evenodd" d="M21.9766 11.2739L22.1515 11.5656C22.4066 11.9908 22.8459 12.3865 23.5475 12.7907C24.2949 13.2054 25.2446 13.5168 26.2996 13.7035L26.3006 13.7036C27.2341 13.8716 28.1279 14.1639 28.9753 14.6282C28.9775 14.6294 28.9797 14.6307 28.9819 14.632C29.279 14.8035 29.5551 14.9937 29.81 15.2028L29.8106 15.2033C30.6053 15.8586 31.05 16.668 31.0759 17.517C31.1019 18.367 30.7062 19.1939 29.946 19.8784C28.7259 20.986 26.964 21.5979 25.1425 21.7285C23.3183 21.8592 21.3951 21.5106 19.8328 20.6513C19.8307 20.6502 19.8287 20.649 19.8266 20.6479C19.4307 20.4193 19.0996 20.0723 18.8352 19.7354C18.5782 19.4081 18.3687 19.0699 18.2168 18.8247C18.2114 18.816 18.2061 18.8075 18.2009 18.799L18.0217 18.5099L18.5999 18.1516L18.7907 18.4594C18.9446 18.7078 19.137 19.0183 19.3702 19.3154C19.6101 19.6209 19.8769 19.8906 20.1638 20.057C21.5939 20.8426 23.3813 21.1727 25.0939 21.05C26.8101 20.9269 28.4121 20.3523 29.4893 19.3742L29.4904 19.3733C30.1351 18.7929 30.4146 18.1476 30.396 17.5378C30.3774 16.9269 30.0576 16.2888 29.3783 15.7285C29.1544 15.5448 28.9102 15.3763 28.645 15.223C27.8718 14.7998 27.0507 14.5298 26.1806 14.3732C25.0711 14.1769 24.0446 13.8449 23.2149 13.3841L23.2104 13.3815C22.4547 12.9465 21.9062 12.4789 21.5682 11.9156L21.3932 11.6239L21.9766 11.2739Z" fill="#374874"/>
    <path d="M32.5881 39.282L32.5336 58.5292L2.89539 42.2098L2.94995 22.9626L32.5881 39.282Z" fill="#FBDBD0"/>
    <path d="M61.1047 21.7902L61.0501 41.0374L32.5336 58.5291L32.5881 39.2819L61.1047 21.7902Z" fill="white"/>
    <path d="M31.4665 5.4708L40.6457 10.522C41.0366 10.7381 41.5545 10.8544 42.077 10.8544C42.481 10.8544 42.8878 10.7849 43.2407 10.6381C44.4853 10.136 45.3923 9.36431 45.8833 8.49679C46.29 7.73663 47.1424 7.03172 48.3866 6.50651C49.5004 6.04635 50.8252 5.81421 52.1446 5.81421C53.3292 5.81421 54.5096 6.00136 55.5282 6.37883C55.9096 6.51812 56.2511 6.6748 56.5626 6.84301C57.9585 7.64824 58.6083 8.6986 58.5333 9.73163C58.537 9.68072 58.5458 9.62996 58.5459 9.57906L58.5154 20.364L61.1047 21.7902L61.0501 41.0373L32.5336 58.5292L2.89535 42.2099L2.94993 22.9626L13.0826 16.748C13.2576 16.642 13.4996 16.5745 13.745 16.5745C13.8147 16.5745 13.8846 16.5799 13.9534 16.5914C14.8707 16.7509 15.6888 17.0382 16.3721 17.4154C17.1909 17.8869 17.7606 18.4069 18.119 18.9908C18.4279 19.489 18.9714 20.1143 19.6571 20.5714C20.3069 20.9288 21.0402 21.1948 21.8164 21.3714V11.5958C21.8164 11.5976 21.8171 11.5993 21.8171 11.6008C21.815 11.4668 21.9161 11.3323 22.0675 11.2358L31.4665 5.4708ZM58.5459 9.57906H58.5471H58.5459ZM31.4665 4.55652C31.3005 4.55652 31.1348 4.60162 30.9884 4.69144L21.5894 10.4564C21.5849 10.4592 21.5804 10.462 21.5759 10.4649C21.1801 10.7173 20.9352 11.1035 20.9058 11.5133C20.9034 11.5396 20.9022 11.5663 20.9021 11.5932L20.8 20.1143C20.5127 20.0052 20.248 19.9072 20 19.7714C19.4597 19.4581 19.1269 18.8813 18.8961 18.5091C18.4525 17.7864 17.7755 17.1685 16.8283 16.6231C16.8236 16.6203 16.8188 16.6177 16.814 16.615C16.0171 16.175 15.1074 15.8641 14.1101 15.6907C13.9879 15.6701 13.8668 15.6602 13.745 15.6602C13.3378 15.6602 12.9343 15.7688 12.6087 15.9661L2.47196 22.1832C2.20168 22.3489 2.03658 22.6429 2.03567 22.96L1.98108 42.2073C1.98015 42.5414 2.16163 42.8496 2.45439 43.0107L32.0926 59.33C32.2301 59.4057 32.3819 59.4434 32.5336 59.4434C32.6995 59.4434 32.8652 59.3983 33.0116 59.3085L61.5282 41.8167C61.7985 41.6509 61.9635 41.357 61.9644 41.0399L62.019 21.7928C62.0199 21.4586 61.8385 21.1506 61.5458 20.9894L59.4312 19.8246L59.4601 9.61421C59.4606 9.60248 59.4608 9.59078 59.4608 9.57906C59.4608 9.53295 59.4574 9.48754 59.4508 9.44324C59.3974 8.14235 58.5286 6.92159 57.0195 6.05106C57.0121 6.0468 57.0046 6.04258 56.997 6.03855C56.6249 5.83755 56.247 5.66802 55.8418 5.52002C54.7484 5.11487 53.4685 4.89992 52.1446 4.89992C50.6637 4.89992 49.2435 5.16322 48.0375 5.66152C46.6257 6.25739 45.6067 7.08374 45.083 8.0546C44.6747 8.77032 43.8994 9.38642 42.8987 9.79021C42.663 9.88808 42.3744 9.94011 42.0771 9.94011C41.705 9.94011 41.3352 9.85842 41.0878 9.7218L31.9073 4.6698C31.7698 4.59412 31.618 4.55652 31.4665 4.55652Z" fill="#374874"/>
</svg>
