<svg width="64" height="64" viewBox="0 0 64 64" fill="none" xmlns="http://www.w3.org/2000/svg">
    <path fill-rule="evenodd" clip-rule="evenodd" d="M15.9064 37.0282C13.7728 36.722 11.6184 36.5044 9.55867 36.5987L9.55867 36.5987C7.48618 36.6937 5.5585 37.1277 4.35073 37.9293C3.34376 38.5976 2.95503 39.4573 2.99778 40.3465C3.04182 41.2625 3.54886 42.282 4.48656 43.2074C6.38804 45.0839 9.61454 46.5141 13.0362 47.6057C13.2767 47.6824 13.4095 47.9396 13.3328 48.1801C13.2561 48.4207 12.9989 48.5535 12.7583 48.4767C9.31756 47.3791 5.91004 45.8968 3.84435 43.8582L4.16546 43.5328L3.84435 43.8582C2.79847 42.826 2.14283 41.6026 2.08455 40.3904C2.02498 39.1514 2.59428 37.9977 3.84514 37.1675C5.25794 36.2298 7.38384 35.7831 9.51684 35.6854C11.6627 35.5871 13.8841 35.8143 16.0363 36.1232L16.0363 36.1232C18.5116 36.4785 21.0162 36.9669 23.395 37.6286C24.4954 37.312 25.7207 37.1302 27.0089 37.1165C28.88 37.0966 30.7719 37.4104 32.603 37.7769C32.6178 37.6824 32.6489 37.5888 32.6981 37.4995C32.8205 37.2772 33.0299 37.1255 33.2755 37.0443C33.6907 36.9069 34.1591 36.9152 34.5869 36.9845C35.0206 37.0547 35.4517 37.194 35.8144 37.3563C36.1976 37.5278 36.5522 37.7285 36.8641 37.953C37.069 38.1005 37.1155 38.3862 36.968 38.5911C36.8205 38.796 36.5348 38.8425 36.3299 38.695C36.074 38.5108 35.7744 38.3401 35.4409 38.1908C35.1412 38.0567 34.7864 37.943 34.4407 37.887C34.0889 37.83 33.7843 37.8389 33.5627 37.9123C33.5464 37.9176 33.5338 37.9229 33.524 37.9277C33.5371 37.9425 33.5587 37.9618 33.5925 37.9798C33.6908 38.0002 33.7888 38.0207 33.8866 38.0412C34.1198 38.0899 34.2765 38.3096 34.2466 38.5459C34.2168 38.7823 34.0104 38.9561 33.7724 38.9453C33.6151 38.9382 33.4649 38.9084 33.3275 38.8585C31.2128 38.4187 29.0932 38.0087 27.0187 38.0308C26.3909 38.0374 25.7817 38.0866 25.1989 38.1731C27.3944 38.8911 29.4393 39.7759 31.1993 40.8625C33.2472 42.1269 34.8424 43.72 35.6498 45.3879C36.4658 47.0734 36.482 48.8629 35.3016 50.3886C34.7705 51.075 33.9467 51.7243 32.695 51.9453C31.262 52.1983 29.6237 51.8313 28.2686 51.4126L28.4035 50.9758L28.2686 51.4126C24.9756 50.3951 21.9861 48.8178 20.1629 46.8594C18.3342 44.8951 17.7002 42.4534 19.0442 40.426C19.6528 39.5079 20.6584 38.7406 21.893 38.1788C19.9466 37.6949 17.924 37.3178 15.9064 37.0282ZM23.4032 38.5808C23.1042 38.6744 22.8171 38.7787 22.5435 38.8927C21.2795 39.4189 20.3322 40.1377 19.8062 40.9312L19.4252 40.6786L19.8062 40.9312C18.7842 42.473 19.1659 44.4467 20.832 46.2364C22.5036 48.0319 25.3242 49.5459 28.5385 50.539C29.8744 50.9518 31.3325 51.2575 32.536 51.045C33.5294 50.8695 34.1635 50.3655 34.5785 49.8291L34.94 50.1089L34.5785 49.8291C35.501 48.6368 35.527 47.2325 34.8269 45.7863C34.1182 44.3225 32.6714 42.8459 30.7189 41.6405C28.637 40.3551 26.1194 39.3538 23.4032 38.5808ZM33.4944 37.9474C33.4943 37.9474 33.4947 37.9469 33.4955 37.9461C33.4948 37.947 33.4944 37.9474 33.4944 37.9474Z" fill="#374874"/>
    <path d="M59.947 2.97557C60.2294 2.97557 60.5714 3.03058 60.8545 3.23874C61.5771 3.76999 61.4547 4.36855 61.4547 4.36855L59.9437 6.42894C60.1343 6.78251 60.1308 7.01643 60.1308 7.01643L40.7481 35.0843L37.555 36.8804L36.7739 37.3989C36.7537 37.4123 36.7322 37.4184 36.7112 37.4184C36.6435 37.4184 36.5828 37.3556 36.6 37.2793L36.8088 36.3489L37.3587 32.966L56.6355 4.68629C56.6355 4.68629 56.7501 4.68795 56.9345 4.70549L56.9356 4.70393C56.9356 4.70393 57.1122 4.17424 58.0654 4.0507C58.1367 4.04144 58.2028 4.03719 58.2643 4.03719C58.4534 4.03719 58.598 4.07749 58.7091 4.13774L59.3894 3.04455C59.3894 3.04455 59.6307 2.97557 59.947 2.97557ZM59.947 2.06128C59.5241 2.06128 59.199 2.148 59.1382 2.16542C58.9201 2.22779 58.7329 2.36898 58.6131 2.56151L58.2638 3.1229C58.162 3.1229 58.0557 3.13003 57.948 3.144C57.2828 3.23017 56.8041 3.48631 56.4901 3.78361C56.2444 3.82322 56.0228 3.96196 55.88 4.17134L36.6033 32.451C36.5279 32.5615 36.4778 32.6873 36.4563 32.8193L35.9107 36.1752L35.7078 37.0789C35.639 37.3853 35.7118 37.7013 35.9076 37.9459C36.1043 38.1916 36.3972 38.3326 36.7112 38.3326C36.9138 38.3326 37.1105 38.273 37.28 38.1603L38.0325 37.6607L41.1963 35.8812C41.3174 35.8131 41.4214 35.7182 41.5003 35.6038L60.883 7.53595C60.9859 7.38706 61.0422 7.21106 61.0449 7.03015C61.0459 6.96475 61.0405 6.79778 60.978 6.56452L62.1919 4.90928C62.2699 4.80281 62.324 4.68082 62.3504 4.55159C62.3749 4.43173 62.5564 3.35527 61.3961 2.50215C61.0038 2.21376 60.5028 2.06128 59.947 2.06128Z" fill="#374874"/>
    <path d="M59.3893 3.04456C59.3893 3.04456 60.2543 2.79743 60.8545 3.23873C61.577 3.77 61.4547 4.36852 61.4547 4.36852L59.7071 6.75162L57.9065 5.42767L59.3893 3.04456Z" fill="white"/>
    <path d="M37.3587 32.9659L56.6355 4.68628C56.6355 4.68628 57.2513 4.69485 57.9319 4.89181C58.2846 4.99387 58.6547 5.14651 58.9656 5.37474C60.1466 6.24173 60.1307 7.01645 60.1307 7.01645L40.748 35.0843L37.3587 36.9908L36.7761 36.5494L37.3587 32.9659Z" fill="#C1DBF6"/>
    <path d="M53.2638 12.638L59.0716 4.68621C59.0716 4.68621 59.0186 3.92714 58.0654 4.05071C57.1121 4.17428 56.9356 4.70385 56.9356 4.70385L51.7457 12.0297C51.7457 12.0297 51.0572 13.0169 53.2638 12.638Z" fill="white"/>
    <path d="M36.8291 36.2581L36.5999 37.2792C36.5774 37.3792 36.6884 37.4556 36.7738 37.3989L37.6146 36.8406C37.6146 36.8406 37.4333 36.533 37.341 36.4611C37.2324 36.3765 36.8291 36.2581 36.8291 36.2581Z" fill="#ECECEC"/>
</svg>
