<?xml version="1.0" encoding="UTF-8" standalone="no"?>
<svg
   xmlns:dc="http://purl.org/dc/elements/1.1/"
   xmlns:cc="http://creativecommons.org/ns#"
   xmlns:rdf="http://www.w3.org/1999/02/22-rdf-syntax-ns#"
   xmlns:svg="http://www.w3.org/2000/svg"
   xmlns="http://www.w3.org/2000/svg"
   xmlns:sodipodi="http://sodipodi.sourceforge.net/DTD/sodipodi-0.dtd"
   xmlns:inkscape="http://www.inkscape.org/namespaces/inkscape"
   id="Calque_1"
   data-name="Calque 1"
   viewBox="0 0 180.35 212.6"
   version="1.1"
   sodipodi:docname="LogoAdeme2020_RVB.svg"
   width="180.35001"
   height="212.60001"
   inkscape:version="0.92.4 (f8dce91, 2019-08-02)">
  <metadata
     id="metadata1277">
    <rdf:RDF>
      <cc:Work
         rdf:about="">
        <dc:format>image/svg+xml</dc:format>
        <dc:type
           rdf:resource="http://purl.org/dc/dcmitype/StillImage" />
        <dc:title>LogoAdeme2020_RVB</dc:title>
      </cc:Work>
    </rdf:RDF>
  </metadata>
  <sodipodi:namedview
     pagecolor="#ffffff"
     bordercolor="#666666"
     borderopacity="1"
     objecttolerance="10"
     gridtolerance="10"
     guidetolerance="10"
     inkscape:pageopacity="0"
     inkscape:pageshadow="2"
     inkscape:window-width="1867"
     inkscape:window-height="1025"
     id="namedview1275"
     showgrid="false"
     fit-margin-top="0"
     fit-margin-left="0"
     fit-margin-right="0"
     fit-margin-bottom="0"
     inkscape:zoom="3.2414163"
     inkscape:cx="90.175002"
     inkscape:cy="106.3"
     inkscape:window-x="53"
     inkscape:window-y="27"
     inkscape:window-maximized="1"
     inkscape:current-layer="Calque_1" />
  <defs
     id="defs1190">
    <style
       id="style1188">.cls-1{fill:#004899;}.cls-2{fill:#fff;}.cls-3{fill:#80a4cc;}.cls-4{fill:#e3211b;}</style>
  </defs>
  <title
     id="title1192">LogoAdeme2020_RVB</title>
  <path
     class="cls-1"
     d="M 180.35,212.6 H 0 V 0 h 180.35 z"
     id="path1194"
     inkscape:connector-curvature="0"
     style="fill:#004899" />
  <rect
     class="cls-2"
     x="4.0099998"
     y="4.0099998"
     width="172.32001"
     height="204.58"
     id="rect1196"
     style="fill:#ffffff" />
  <path
     class="cls-3"
     d="m 54.75,119.46 a 42.76,42.76 0 1 0 -6.78,-28.59 41.81,41.81 0 0 0 -0.3,5 42.53,42.53 0 0 0 7.08,23.56"
     id="path1198"
     inkscape:connector-curvature="0"
     style="fill:#80a4cc" />
  <path
     class="cls-1"
     d="m 76.56,82 2.28,0.36 -0.78,1.5 -2,-1.08 z m 9.17,-5 -1.91,1.68 v 1.14 l 3,0.75 6.05,-4.11 -0.16,-1.67 -2.4,-0.83 z m 0.94,-4.51 h -0.55 l -1.01,1.91 -1.64,0.13 -1.87,2.7 1,0.64 2.52,-1.6 1.93,-2.06 z m 3.4,-5.3 -3.87,3.08 1.38,1 3.09,-3.16 z m -29.75,17.19 1.34,0.17 0.42,-3.17 v -1 l -0.24,-1 -0.69,-0.06 z m 0.71,2.09 0.43,0.67 0.81,0.12 0.37,-1.64 -1.34,-0.32 z m 0.78,1.64 0.13,0.87 h 0.83 l -0.11,-0.94 z m 0.47,1.87 0.23,0.56 0.7,-0.31 c 0,0 -0.19,-0.52 -0.21,-0.52 z m 0.42,1.6 0.6,-0.22 -0.23,-0.51 c 0,0 -0.34,0.29 -0.33,0.33 v 0.4 m 28.37,-2.47 c 0,0 -1.09,2.65 -1.09,2.67 0,0.02 1.71,0.16 1.71,0.17 l 0.41,-2.18 -0.3,-0.22 0.2,-0.75 -0.86,-0.47 -0.27,0.56 z m -2.51,1.84 0.93,0.26 0.28,-0.87 -0.66,-0.15 z m 20.06,33.63 -1.35,0.78 -1.72,0.36 -3.78,3.72 0.23,0.83 0.55,-0.08 2.16,-0.93 a 12.25,12.25 0 0 0 3.25,-2.22 8.56,8.56 0 0 0 1.63,-2.26 z m -1,5.19 -0.46,-0.51 c 0,0 -0.72,0.43 -0.72,0.43 0,0 0.54,0.55 0.53,0.55 l 0.65,-0.47 M 93.33,97.58 92.8,97.51 v 1 l 0.54,0.1 0.32,-1.3 -0.17,-0.07 z m -31.92,-5.6 0.19,0.81 0.77,-0.25 -0.25,-0.82 z m -6.66,27.51 3,-2.45 2.43,0.62 6.49,-4.89 0.31,-2.6 -4.26,-6.22 a 55,55 0 0 0 -1.17,-6.89 c -0.44,-1.52 -1.43,-5.94 -1.47,-6 l -0.56,-1.13 -4.06,-6.09 2.63,-6.58 2.02,-0.15 0.13,-1 -1.56,-1.3 V 74.53 73.3 c 0,-0.84 1.42,-1.69 2.37,-1.69 a 2.81,2.81 0 0 1 0.79,0.12 6.57,6.57 0 0 1 1.86,1.14 c 0.1,0.07 1.86,4.19 1.86,4.19 l -1.49,1.21 -0.74,1.8 1,0.81 1.43,-2.47 5.92,2 3.62,2.06 1.1,-1.2 3,0.25 2.22,-3 -2,-0.76 2.11,-2.54 -0.25,-0.86 -3.22,-0.62 2.46,-2.63 2.39,1.56 v 0.69 l 1.51,0.18 1.19,-2.43 -0.89,-0.79 3.76,-3.62 3.43,-1.59 2.65,-1.74 0.52,-0.41 0.1,-1.86 -0.45,-1.32 -1.17,-0.46 1.5,-1.18 -0.41,-0.22 a 14.62,14.62 0 0 1 -7.55,2.61 c -3,0.2 -8.94,-1.11 -8.94,-1.11 L 72.42,58.53 70.34,58.16 A 43,43 0 0 0 57.26,68.92 l -0.15,5.61 -0.92,2.58 -2.08,7.4 0.69,2.09 -3.37,0.48 -3.41,3.79 a 44,44 0 0 0 -0.29,5 42.53,42.53 0 0 0 7.08,23.56 m 58.1,-59.94 a 42.79,42.79 0 0 1 19.72,29.62 v 0 l -3.34,2.86 -2.13,-0.51 -1,0.88 0.07,0.59 c 0,0.28 0.16,0.83 0.37,1.66 a 21.12,21.12 0 0 1 0.64,5 12,12 0 0 1 -0.41,3.54 h -1.82 l -5.12,-4.02 -3.9,0.88 -2.52,-0.43 -3.19,1 1.44,1.24 2.51,-0.71 2.16,1.73 -0.34,0.76 -0.89,1.45 -1.92,2.74 -3,2.39 -5.47,-5.68 -1.42,0.15 5.84,6.7 2.37,-0.48 0.59,1.21 -2.38,3.9 -4.64,4.43 -2.02,5.23 a 1.2,1.2 0 0 1 -0.6,0.46 9.78,9.78 0 0 0 -2.33,1.72 c -1.12,1.05 -1.74,1.63 -1.88,1.74 a 32.81,32.81 0 0 1 -3.32,2.53 37.66,37.66 0 0 1 -3.83,2.27 16,16 0 0 1 -7,1.77 14.05,14.05 0 0 1 -4.49,-0.75 c -0.2,-0.07 -0.33,-0.17 -0.33,-0.26 l 1,-2.86 a 33.8,33.8 0 0 1 2.51,-2.87 8.52,8.52 0 0 0 1.75,-3.17 23.09,23.09 0 0 1 1.29,-3.48 c 0.93,-1.5 1.37,-2.78 1.06,-3.09 l -6.06,-6.09 -2.54,-4.73 0.27,-1.12 a 24.69,24.69 0 0 1 2,-4.4 4.64,4.64 0 0 1 1.74,-2.15 l 4.06,-2 7.87,1.19 2.4,1.6 1.12,-0.14 4.81,1.25 1.2,-3.13 -6.11,-1.72 -2.16,-2.15 -0.3,0.08 1,2.55 -1.22,0.25 -0.13,-0.3 0.43,-0.08 c 0,0 -0.37,-1.57 -1.32,-2 a 2,2 0 0 0 -0.91,-0.31 2.83,2.83 0 0 0 -1.62,0.66 11.35,11.35 0 0 1 -2.48,2 L 86.48,97 l 0.93,-2.34 0.39,0.09 a 2.76,2.76 0 0 0 0.71,0.08 1.31,1.31 0 0 0 1.37,-0.91 0.8,0.8 0 0 0 -0.27,-0.83 c 0,0 -0.24,-0.27 -0.24,-0.27 a 2.8,2.8 0 0 0 0.35,-0.41 9.82,9.82 0 0 0 1.5,0.28 2.1,2.1 0 0 0 1.53,-0.39 l 0.6,-1 1,-0.29 0.18,-1.35 h 0.63 a 3.56,3.56 0 0 1 0.5,1.14 l 1.77,-0.46 0.52,-1.81 -0.28,-0.32 0.77,-1.74 -0.67,-0.47 -1.14,3.2 -0.62,0.08 -0.28,-0.71 -1.59,0.12 -0.89,-1.43 1.93,-2 1.89,-2.53 2.67,0.84 0.65,1.32 h 0.81 l -0.3,-1.92 2.18,-2 -1.45,-6.57 0.93,-2.07 1,0.06 0.15,-1.62 -7,-7.61 0.23,-2.06 5.75,-1.31 0.83,0.25 3.27,-0.32 0.76,0.34 5.28,-0.52 z m -0.1,1.27 -6.7,1.46 4.62,2.66 1.51,-1.77 1.87,-1.26 z"
     id="path1200"
     inkscape:connector-curvature="0"
     style="fill:#004899" />
  <path
     class="cls-4"
     d="m 42.32,39.87 -1.11,-3.56 h -7.35 l -1.17,3.56 h -6.14 l 8.69,-23.9 h 4.53 l 8.68,23.9 z m -4.67,-14.84 -2.14,6.38 h 4.16 z"
     id="path1202"
     inkscape:connector-curvature="0"
     style="fill:#e3211b" />
  <path
     class="cls-4"
     d="m 70.43,37.52 a 8.9,8.9 0 0 1 -6.44,2.35 h -8.88 v -23.9 h 8.85 a 8.9,8.9 0 0 1 6.44,2.35 c 2.79,2.79 2.48,5.84 2.48,9.6 0,3.76 0.34,6.81 -2.45,9.6 z m -4,-15 a 3.06,3.06 0 0 0 -2.82,-1.34 h -2.6 v 13.45 h 2.58 a 3.06,3.06 0 0 0 2.82,-1.34 c 0.47,-0.67 0.63,-1.31 0.63,-5.37 0,-4.06 -0.16,-4.7 -0.63,-5.37 z"
     id="path1204"
     inkscape:connector-curvature="0"
     style="fill:#e3211b" />
  <path
     class="cls-4"
     d="m 80.89,39.87 v -23.9 h 16.22 v 5.24 H 86.76 v 4 h 8.85 v 5.24 h -8.85 v 4.19 h 10.35 v 5.24 z"
     id="path1206"
     inkscape:connector-curvature="0"
     style="fill:#e3211b" />
  <path
     class="cls-4"
     d="M 121.66,39.87 V 28.42 l -3.39,5.91 h -3.76 l -3.4,-5.91 v 11.45 h -5.86 v -23.9 h 5.76 l 5.37,10.54 5.37,-10.54 h 5.76 v 23.9 z"
     id="path1208"
     inkscape:connector-curvature="0"
     style="fill:#e3211b" />
  <path
     class="cls-4"
     d="m 136.23,39.87 v -23.9 h 16.23 v 5.24 h -10.35 v 4 h 8.85 v 5.24 h -8.85 v 4.19 h 10.36 v 5.24 z"
     id="path1210"
     inkscape:connector-curvature="0"
     style="fill:#e3211b" />
  <path
     class="cls-4"
     d="m 31.31,152.11 -3.8,10.46 h 2.48 l 0.52,-1.6 h 3.48 l 0.5,1.6 h 2.48 l -3.81,-10.46 z m -0.14,6.92 1.14,-3.39 1.07,3.39 z"
     id="path1212"
     inkscape:connector-curvature="0"
     style="fill:#e3211b" />
  <path
     class="cls-4"
     d="m 43.75,162.63 a 3.83,3.83 0 0 0 3,-1.17 v 0 c 0.76,-0.77 1,-1.72 1,-3.47 v -1.37 h -3.88 v 2 h 1.58 v 0.27 a 1.77,1.77 0 0 1 -0.44,1.22 1.67,1.67 0 0 1 -1.26,0.45 1.4,1.4 0 0 1 -1.14,-0.5 c -0.25,-0.33 -0.42,-0.7 -0.42,-2.72 0,-2.02 0.17,-2.38 0.42,-2.71 a 1.43,1.43 0 0 1 1.14,-0.51 1.49,1.49 0 0 1 1.63,1.2 h 2.4 a 4.13,4.13 0 0 0 -6.92,-2.13 c -1,1 -1,2.47 -1,4 v 0.36 c 0,1.5 0,2.92 1,4 a 3.82,3.82 0 0 0 2.89,1.08 z"
     id="path1214"
     inkscape:connector-curvature="0"
     style="fill:#e3211b" />
  <polygon
     class="cls-4"
     points="82.08,180.11 78.11,180.11 78.11,178.07 82.76,178.07 82.76,175.97 75.73,175.97 75.73,186.43 82.76,186.43 82.76,184.33 78.11,184.33 78.11,182.2 82.08,182.2 "
     id="polygon1216"
     style="fill:#e3211b"
     transform="translate(-23.89,-23.89)" />
  <polygon
     class="cls-4"
     points="92.55,175.97 92.55,181.66 88.93,175.97 86.83,175.97 86.83,186.43 89.21,186.43 89.21,180.74 92.83,186.43 94.94,186.43 94.94,175.97 "
     id="polygon1218"
     style="fill:#e3211b"
     transform="translate(-23.89,-23.89)" />
  <path
     class="cls-4"
     d="m 80.48,159.39 a 1.41,1.41 0 0 1 -1.46,1.14 1.4,1.4 0 0 1 -1.14,-0.5 c -0.25,-0.33 -0.43,-0.72 -0.43,-2.72 0,-2 0.18,-2.39 0.43,-2.72 a 1.4,1.4 0 0 1 1.14,-0.5 1.41,1.41 0 0 1 1.46,1.14 h 2.43 a 3.71,3.71 0 0 0 -3.91,-3.24 3.81,3.81 0 0 0 -2.88,1.17 c -1.05,1 -1.05,2.47 -1.05,4 v 0.36 c 0,1.5 0,2.92 1.05,4 a 3.81,3.81 0 0 0 2.88,1.17 3.71,3.71 0 0 0 3.91,-3.24 z"
     id="path1220"
     inkscape:connector-curvature="0"
     style="fill:#e3211b" />
  <polygon
     class="cls-4"
     points="116.77,180.11 112.8,180.11 112.8,178.07 117.44,178.07 117.44,175.97 110.42,175.97 110.42,186.43 117.44,186.43 117.44,184.33 112.8,184.33 112.8,182.2 116.77,182.2 "
     id="polygon1222"
     style="fill:#e3211b"
     transform="translate(-23.89,-23.89)" />
  <path
     class="cls-4"
     d="m 112.19,157.77 v -0.91 c 0,-1.49 0,-2.66 -1.08,-3.76 a 3.87,3.87 0 0 0 -2.8,-1 h -3.84 v 10.45 h 3.84 a 3.83,3.83 0 0 0 2.8,-1 c 1.1,-1.12 1.09,-2.3 1.08,-3.78 z m -2.69,2 a 1.5,1.5 0 0 1 -1.37,0.66 h -1.28 v -6.27 h 1.26 a 1.5,1.5 0 0 1 1.37,0.66 c 0.24,0.34 0.3,0.71 0.3,2.47 0,1.76 -0.05,2.18 -0.28,2.5 z"
     id="path1224"
     inkscape:connector-curvature="0"
     style="fill:#e3211b" />
  <polygon
     class="cls-4"
     points="146.45,180.11 142.48,180.11 142.48,178.07 147.13,178.07 147.13,175.98 140.1,175.98 140.1,186.43 147.13,186.43 147.13,184.34 142.48,184.34 142.48,182.21 146.45,182.21 "
     id="polygon1226"
     style="fill:#e3211b"
     transform="translate(-23.89,-23.89)" />
  <polygon
     class="cls-4"
     points="158.05,186.43 164.92,186.43 164.92,184.33 160.43,184.33 160.43,175.97 158.05,175.97 "
     id="polygon1228"
     style="fill:#e3211b"
     transform="translate(-23.89,-23.89)" />
  <path
     class="cls-4"
     d="m 150.32,162.54 h 2.48 l -3.81,-10.43 h -1.88 l -3.8,10.46 h 2.48 l 0.53,-1.6 h 3.47 z M 147,159 l 1.11,-3.39 1.07,3.39 z"
     id="path1230"
     inkscape:connector-curvature="0"
     style="fill:#e3211b" />
  <polygon
     class="cls-4"
     points="56.81,195.11 59.45,195.11 59.45,193.01 51.79,193.01 51.79,195.11 54.43,195.11 54.43,203.47 56.81,203.47 "
     id="polygon1232"
     style="fill:#e3211b"
     transform="translate(-23.89,-23.89)" />
  <path
     class="cls-4"
     d="m 47.75,175.11 a 3,3 0 0 0 1.67,-2.69 3.31,3.31 0 0 0 -3.53,-3.31 h -4.12 v 10.46 h 2.39 v -4 h 1.09 l 1.9,4 h 2.77 l -2.29,-4.4 z m -2,-1.48 h -1.59 v -2.42 h 1.61 a 1.21,1.21 0 1 1 0,2.42 z"
     id="path1234"
     inkscape:connector-curvature="0"
     style="fill:#e3211b" />
  <path
     class="cls-4"
     d="m 58.79,169.11 -3.81,10.46 h 2.49 l 0.53,-1.6 h 3.48 l 0.49,1.6 h 2.49 l -3.81,-10.46 z m -0.14,6.92 1.14,-3.39 1.07,3.39 z"
     id="path1236"
     inkscape:connector-curvature="0"
     style="fill:#e3211b" />
  <polygon
     class="cls-4"
     points="96.55,203.47 96.55,197.78 100.17,203.47 102.28,203.47 102.28,193.01 99.9,193.01 99.9,198.7 96.27,193.01 94.16,193.01 94.16,203.47 "
     id="polygon1238"
     style="fill:#e3211b"
     transform="translate(-23.89,-23.89)" />
  <path
     class="cls-4"
     d="m 89.38,173.32 -1.27,-0.21 a 1.35,1.35 0 0 1 -0.81,-0.35 0.88,0.88 0 0 1 -0.25,-0.59 c 0,-0.54 0.45,-1.12 1.42,-1.12 h 0.09 a 2.78,2.78 0 0 1 1.94,0.58 l 1.49,-1.47 A 4.68,4.68 0 0 0 88.55,169 c -2.27,0 -3.79,1.31 -3.79,3.26 a 2.87,2.87 0 0 0 0.7,2.06 3.47,3.47 0 0 0 2.08,0.91 l 1.3,0.18 a 1.41,1.41 0 0 1 0.78,0.32 1,1 0 0 1 0.24,0.72 c 0,0.5 -0.28,1.09 -1.66,1.09 a 3.89,3.89 0 0 1 -2.39,-0.7 l -1.51,1.51 a 5.14,5.14 0 0 0 3.89,1.29 c 2,0 4,-1 4,-3.24 a 3,3 0 0 0 -0.76,-2.26 3.48,3.48 0 0 0 -2.05,-0.82 z"
     id="path1240"
     inkscape:connector-curvature="0"
     style="fill:#e3211b" />
  <rect
     class="cls-4"
     x="98.590004"
     y="169.12"
     width="2.3800001"
     height="10.45"
     id="rect1242"
     style="fill:#e3211b" />
  <polygon
     class="cls-4"
     points="136.1,195.11 138.73,195.11 138.73,193.01 131.08,193.01 131.08,195.11 133.72,195.11 133.72,203.47 136.1,203.47 "
     id="polygon1244"
     style="fill:#e3211b"
     transform="translate(-23.89,-23.89)" />
  <rect
     class="cls-4"
     x="121.06"
     y="169.12"
     width="2.3800001"
     height="10.45"
     id="rect1246"
     style="fill:#e3211b" />
  <path
     class="cls-4"
     d="m 137.85,174.17 c 0,-1.5 0,-2.92 -1.05,-4 a 4.19,4.19 0 0 0 -5.81,0 c -1,1 -1,2.47 -1,4 v 0.36 c 0,1.5 0,2.92 1,4 a 4.19,4.19 0 0 0 5.81,0 c 1.05,-1 1.05,-2.47 1.05,-4 z m -2.8,2.87 a 1.52,1.52 0 0 1 -2.31,0 c -0.26,-0.34 -0.42,-0.69 -0.42,-2.69 0,-2 0.17,-2.38 0.42,-2.71 a 1.56,1.56 0 0 1 2.31,0 c 0.25,0.33 0.42,0.7 0.42,2.71 0,2.01 -0.16,2.35 -0.42,2.69 z"
     id="path1248"
     inkscape:connector-curvature="0"
     style="fill:#e3211b" />
  <polygon
     class="cls-4"
     points="173.97,193.01 173.97,198.7 170.35,193.01 168.24,193.01 168.24,203.47 170.62,203.47 170.62,197.78 174.25,203.47 176.36,203.47 176.36,193.01 "
     id="polygon1250"
     style="fill:#e3211b"
     transform="translate(-23.89,-23.89)" />
  <polygon
     class="cls-4"
     points="58.18,214.19 54.19,214.19 54.19,212.14 58.86,212.14 58.86,210.04 51.8,210.04 51.8,220.53 58.86,220.53 58.86,218.43 54.19,218.43 54.19,216.29 58.18,216.29 "
     id="polygon1252"
     style="fill:#e3211b"
     transform="translate(-23.89,-23.89)" />
  <polygon
     class="cls-4"
     points="55.79,208.73 57.41,206.27 55.2,206.27 54.53,208.73 "
     id="polygon1254"
     style="fill:#e3211b"
     transform="translate(-23.89,-23.89)" />
  <path
     class="cls-4"
     d="m 46.32,189.31 h 2.44 a 3.73,3.73 0 0 0 -3.92,-3.2 3.85,3.85 0 0 0 -2.9,1.17 c -1,1 -1,2.48 -1,4 v 0.35 c 0,1.51 0,2.94 1,4 a 3.85,3.85 0 0 0 2.9,1.17 3.73,3.73 0 0 0 3.92,-3.25 h -2.44 a 1.42,1.42 0 0 1 -1.47,1.15 1.41,1.41 0 0 1 -1.14,-0.5 c -0.25,-0.34 -0.43,-0.73 -0.43,-2.73 0,-2 0.18,-2.4 0.43,-2.74 a 1.44,1.44 0 0 1 1.14,-0.5 1.42,1.42 0 0 1 1.47,1.08 z"
     id="path1256"
     inkscape:connector-curvature="0"
     style="fill:#e3211b" />
  <path
     class="cls-4"
     d="m 58.19,186.11 a 3.79,3.79 0 0 0 -2.91,1.17 c -1.06,1 -1.06,2.48 -1,4 v 0.35 c 0,1.51 0,2.94 1,4 a 4.2,4.2 0 0 0 5.82,0 v 0 c 1.06,-1 1.05,-2.47 1.05,-4 v -0.37 c 0,-1.5 0,-2.93 -1.05,-4 a 3.79,3.79 0 0 0 -2.91,-1.15 z m 1.16,8 a 1.53,1.53 0 0 1 -2.32,0 c -0.26,-0.34 -0.41,-0.69 -0.41,-2.7 0,-2.01 0.15,-2.38 0.41,-2.72 a 1.55,1.55 0 0 1 2.32,0 c 0.26,0.34 0.41,0.69 0.41,2.72 0,2.03 -0.15,2.35 -0.41,2.7 z"
     id="path1258"
     inkscape:connector-curvature="0"
     style="fill:#e3211b" />
  <polygon
     class="cls-4"
     points="92.27,220.53 99.17,220.53 99.17,218.43 94.66,218.43 94.66,210.04 92.27,210.04 "
     id="polygon1260"
     style="fill:#e3211b"
     transform="translate(-23.89,-23.89)" />
  <path
     class="cls-4"
     d="m 84.44,186.11 a 3.82,3.82 0 0 0 -2.91,1.17 c -1,1 -1,2.48 -1,4 v 0.35 c 0,1.51 0,2.94 1,4 a 4.22,4.22 0 0 0 5.83,0 v 0 c 1,-1 1,-2.48 1,-4 v -0.35 c 0,-1.51 0,-2.94 -1,-4 a 3.83,3.83 0 0 0 -2.92,-1.17 z m 1.16,8 a 1.52,1.52 0 0 1 -2.31,0 c -0.26,-0.34 -0.42,-0.7 -0.42,-2.7 0,-2 0.16,-2.39 0.42,-2.72 a 1.44,1.44 0 0 1 1.15,-0.52 1.46,1.46 0 0 1 1.16,0.52 c 0.26,0.34 0.42,0.69 0.42,2.72 0,2.03 -0.16,2.35 -0.42,2.7 z"
     id="path1262"
     inkscape:connector-curvature="0"
     style="fill:#e3211b" />
  <path
     class="cls-4"
     d="m 99.87,189.37 h 2.41 a 4.15,4.15 0 0 0 -7,-2.14 c -1,1 -1,2.48 -1,4 v 0.35 c 0,1.51 0,2.94 1,4 a 4.35,4.35 0 0 0 5.94,0 v 0 c 0.76,-0.78 1,-1.72 1,-3.48 v -1.39 h -4 v 2 h 1.58 v 0.28 a 1.56,1.56 0 0 1 -1.71,1.69 1.41,1.41 0 0 1 -0.98,-0.57 c -0.25,-0.33 -0.42,-0.7 -0.42,-2.73 0,-2.03 0.17,-2.39 0.42,-2.72 a 1.42,1.42 0 0 1 1.14,-0.52 1.49,1.49 0 0 1 1.62,1.23 z"
     id="path1264"
     inkscape:connector-curvature="0"
     style="fill:#e3211b" />
  <rect
     class="cls-4"
     x="108.53999"
     y="186.14999"
     width="2.3900001"
     height="10.49"
     id="rect1266"
     style="fill:#e3211b" />
  <path
     class="cls-4"
     d="m 124.49,195 a 6.32,6.32 0 0 0 0.59,-3.43 v -0.35 c 0,-1.51 0,-2.94 -1.05,-4 a 4.2,4.2 0 0 0 -5.82,0 c -1,1 -1,2.48 -1,4 v 0.35 c 0,1.51 0,2.94 1,4 a 3.82,3.82 0 0 0 2.91,1.17 4,4 0 0 0 2,-0.48 h 0.08 l 0.81,0.81 1.17,-1.16 -0.77,-0.77 z m -1.86,-2 v 0.27 l -0.61,-0.62 -1.17,1.17 0.76,0.76 h -0.23 a 1,1 0 0 1 -0.24,0 1.46,1.46 0 0 1 -1.15,-0.53 c -0.26,-0.34 -0.42,-0.7 -0.42,-2.7 0,-2 0.16,-2.39 0.42,-2.72 a 1.44,1.44 0 0 1 1.15,-0.52 1.46,1.46 0 0 1 1.16,0.52 c 0.25,0.33 0.41,0.7 0.41,2.72 -0.02,0.82 -0.05,1.33 -0.08,1.64 z"
     id="path1268"
     inkscape:connector-curvature="0"
     style="fill:#e3211b" />
  <path
     class="cls-4"
     d="m 133.52,192.94 v -6.83 h -2.41 v 6.85 a 4,4 0 0 0 7.9,0 v -6.85 h -2.39 v 6.79 a 1.52,1.52 0 0 1 -1.58,1.69 1.5,1.5 0 0 1 -1.52,-1.65 z"
     id="path1270"
     inkscape:connector-curvature="0"
     style="fill:#e3211b" />
  <polygon
     class="cls-4"
     points="175.68,214.19 171.7,214.19 171.7,212.14 176.36,212.14 176.36,210.04 169.31,210.04 169.31,220.53 176.36,220.53 176.36,218.43 171.7,218.43 171.7,216.29 175.68,216.29 "
     id="polygon1272"
     style="fill:#e3211b"
     transform="translate(-23.89,-23.89)" />
</svg>
