<svg width="64" height="64" viewBox="0 0 64 64" fill="none" xmlns="http://www.w3.org/2000/svg">
<path d="M28.0377 42.2319C20.6162 38.6956 18.8661 26.8756 24.1287 15.8311C29.3913 4.78657 39.6738 -1.30008 47.0952 2.23617L51.5843 3.95505L33.2495 44.9612L28.0377 42.2319Z" fill="#FBDBD0"/>
<path d="M9.6484 62.4278C9.60811 62.4278 9.5676 62.4144 9.53389 62.3872L5.25499 58.9236C5.2167 58.8926 5.19261 58.8475 5.18824 58.7983C5.18379 58.7492 5.19951 58.7006 5.23165 58.6633C5.82941 57.9691 19.8778 41.6597 20.2654 41.3283C20.5272 41.1041 20.822 40.9738 21.1423 40.9405C21.1544 40.9267 21.1688 40.9146 21.1852 40.905C21.2147 40.8874 21.2475 40.8789 21.2801 40.8789C21.2929 40.8789 21.3058 40.8803 21.3184 40.8829C21.376 40.8901 21.4337 40.8961 21.4915 40.9021C21.6341 40.9173 21.7818 40.9329 21.9284 40.9622C22.773 41.1314 23.5262 41.5619 24.2308 42.2782L24.2699 42.318C24.7492 42.8043 25.3457 43.4097 25.3457 44.6202C25.3457 44.6367 25.3434 44.6532 25.3389 44.6693C25.2668 44.9273 15.5627 55.868 9.78454 62.3666C9.74872 62.407 9.69873 62.4278 9.6484 62.4278Z" fill="white"/>
<path d="M21.2829 41.0591H21.2841ZM21.2829 41.0591L21.2804 41.0616C21.2799 41.0615 21.2793 41.0614 21.2788 41.0614L21.2829 41.0591ZM21.2804 41.0616C21.4848 41.0872 21.6917 41.1004 21.8932 41.1408C22.7689 41.3163 23.4861 41.7803 24.1015 42.4059C24.5909 42.9034 25.1641 43.4532 25.1641 44.6202C25.0926 44.8762 9.64904 62.2457 9.64904 62.2457L5.37009 58.782C5.37009 58.782 20.0027 41.793 20.3843 41.4665C20.6249 41.2606 20.9041 41.1351 21.2252 41.1163C21.2436 41.098 21.262 41.0798 21.2804 41.0616ZM21.284 40.6948H21.2829C21.2065 40.6948 21.1355 40.7184 21.0769 40.7586C21.0734 40.7611 21.0699 40.7635 21.0664 40.7661C20.7312 40.8122 20.4226 40.9544 20.1474 41.1898C19.7643 41.5177 7.54063 55.7038 5.09411 58.5443C5.02982 58.6189 4.9985 58.7165 5.00732 58.8146C5.01615 58.9127 5.06433 59.0031 5.14092 59.0651L9.41987 62.5288C9.48716 62.5833 9.56824 62.61 9.64888 62.61C9.7495 62.61 9.84945 62.5684 9.92122 62.4877C9.95983 62.4443 13.8267 58.095 17.6525 53.7703C25.4476 44.9589 25.4788 44.8473 25.5149 44.7182C25.5238 44.6863 25.5283 44.6534 25.5283 44.6202C25.5283 43.3348 24.9028 42.7001 24.4001 42.19L24.3612 42.1505C23.6302 41.4074 22.8463 40.9603 21.9648 40.7837C21.8101 40.7527 21.6586 40.7366 21.512 40.7211C21.4659 40.7162 21.4197 40.7113 21.3737 40.7059C21.345 40.6987 21.315 40.6948 21.284 40.6948Z" fill="#374874"/>
<path d="M24.9644 44.2053C24.96 43.47 24.5914 42.9032 24.102 42.4057C23.4866 41.7801 22.7695 41.3161 21.8937 41.1407C21.6917 41.1002 21.4843 41.087 21.2793 41.0612C21.2793 41.0612 21.3549 40.9154 21.4068 40.8552C22.1559 39.9874 22.9078 39.1221 23.659 38.2562C23.9299 38.043 24.224 37.9059 24.5809 37.894C25.2403 37.872 25.8032 38.105 26.3028 38.5092C26.7539 38.8742 27.1519 39.2926 27.403 39.8232C27.7048 40.4608 27.6871 41.0829 27.2511 41.665C27.2511 41.665 27.1166 41.7657 27.0621 41.8272C26.3614 42.6187 25.6633 43.4123 24.9644 44.2053Z" fill="white"/>
<path d="M37.4795 45.618C35.8306 45.6178 34.2721 45.2734 32.8473 44.5944C29.2015 42.8573 26.7819 39.1203 26.0345 34.072C25.2909 29.0501 26.2916 23.3249 28.8522 17.951C33.0431 9.15573 40.5085 3.24658 47.4292 3.24658C49.0777 3.24658 50.6362 3.59079 52.0614 4.27001C59.5616 7.84368 61.3538 19.7961 56.0565 30.9135C51.8658 39.7084 44.4004 45.618 37.481 45.618L37.4795 45.618Z" fill="white"/>
<path d="M47.4297 3.42868C49.0158 3.42868 50.5535 3.75296 51.9836 4.43437C59.405 7.97058 61.1552 19.7906 55.8926 30.8351C51.644 39.7516 44.1252 45.4358 37.4799 45.4358C35.8938 45.4358 34.3561 45.1115 32.926 44.4301C25.5046 40.8939 23.7544 29.0738 29.017 18.0292C33.2656 9.11289 40.7844 3.42868 47.4297 3.42868ZM47.4297 3.06445C44.0458 3.06445 40.4739 4.45938 37.1002 7.09844C33.6812 9.77293 30.7724 13.4986 28.6882 17.8726C26.1122 23.2789 25.1059 29.0414 25.8547 34.0986C26.6114 39.2089 29.067 42.9948 32.7694 44.7589C34.2192 45.4498 35.8041 45.8 37.4799 45.8C40.8638 45.8 44.4357 44.4051 47.8094 41.766C51.2284 39.0915 54.1372 35.3659 56.2214 30.9918C58.7974 25.5856 59.8037 19.8231 59.0549 14.7658C58.2982 9.65559 55.8426 5.86971 52.1402 4.1056C50.6904 3.41474 49.1055 3.06445 47.4297 3.06445Z" fill="#374874"/>
<path d="M52.7406 29.3332C56.7686 20.8798 55.4291 11.8327 49.7487 9.12612C44.0684 6.41949 36.1982 11.0782 32.1702 19.5316C28.1423 27.985 29.4818 37.032 35.1622 39.7387C40.8425 42.4453 48.7127 37.7866 52.7406 29.3332Z" fill="#FBDBD0"/>
<path d="M49.6843 27.4203C53.124 20.2014 52.6466 12.5531 48.8972 8.78658C43.3047 6.88976 35.9998 11.4919 32.1689 19.5317C28.7292 26.7506 29.2066 34.3989 32.956 38.1654C38.5485 40.0623 45.8534 35.4601 49.6843 27.4203Z" fill="#C1DBF6"/>
<path d="M35.8068 20.1908C35.8003 19.7396 35.9852 19.4636 36.1251 19.1842C36.7124 18.0114 37.3888 16.8924 38.1917 15.8507C39.2989 14.4145 40.5445 13.1249 42.0597 12.1122C42.3602 11.9114 42.6465 11.6876 42.9786 11.5383C43.2844 11.4009 43.6496 11.5133 43.7899 11.7822C43.9408 12.0713 43.8468 12.4017 43.5565 12.5911C43.4482 12.6617 43.3352 12.725 43.2247 12.7921C41.9894 13.5418 40.9436 14.508 39.9842 15.5819C38.9022 16.793 38.0292 18.1399 37.2928 19.5807C37.1715 19.818 37.0675 20.0644 36.9613 20.309C36.8455 20.5758 36.5536 20.7577 36.3058 20.7097C36.0056 20.6516 35.806 20.3982 35.8068 20.1908Z" fill="white"/>
<path d="M9.64959 62.2455C10.2955 61.4476 9.86119 60.0254 8.67959 59.0689C7.498 58.1125 6.01653 57.9839 5.37065 58.7818C4.72476 59.5797 5.15905 61.0019 6.34064 61.9584C7.52224 62.9149 9.00371 63.0434 9.64959 62.2455Z" fill="#FBDBD0"/>
<path d="M42.5407 1.23069C44.1268 1.23069 45.6645 1.55501 47.0945 2.23638L51.4701 4.20905C51.6425 4.27974 51.814 4.35375 51.9834 4.43449C59.4049 7.97076 61.155 19.7908 55.8924 30.8353C51.6443 39.7508 44.1255 45.4346 37.4808 45.4346C36.0654 45.4346 34.6898 45.1767 33.3938 44.6372L28.037 42.2321C27.7242 42.0831 27.4252 41.914 27.1327 41.7362C27.108 41.7658 27.0868 41.7993 27.062 41.8274C26.4103 42.5636 25.7608 43.3016 25.1108 44.0393C25.145 44.2148 25.1645 44.407 25.1645 44.6202C25.093 44.8762 9.64946 62.2456 9.64946 62.2456C9.36463 62.5975 8.91737 62.7692 8.40496 62.7692C7.75536 62.7692 7.00107 62.4932 6.34052 61.9585C5.15892 61.0021 4.72463 59.5799 5.37053 58.782C5.37053 58.782 20.0032 41.7929 20.3847 41.4664C20.6253 41.2606 20.9045 41.135 21.2256 41.1162C21.244 41.098 21.2624 41.0797 21.2808 41.0615C21.2803 41.0614 21.2797 41.0614 21.2792 41.0613C21.2598 40.9548 21.3549 40.9155 21.4068 40.8553C22.1476 39.997 22.8912 39.1412 23.6342 38.2848C20.1816 32.9622 20.1515 24.1767 24.128 15.8312C28.3766 6.9149 35.8954 1.23069 42.5407 1.23069ZM42.5407 0.316406C35.3435 0.316406 27.6123 6.3933 23.3026 15.4379C19.429 23.5675 19.1395 32.3995 22.5045 38.1917C21.9166 38.8691 21.3287 39.5466 20.7425 40.2256C20.7204 40.2456 20.6995 40.2658 20.6798 40.2861C20.3594 40.3772 20.0616 40.5396 19.7903 40.7717C19.4123 41.0952 10.1596 51.8207 4.67775 58.1853C4.6717 58.1923 4.66571 58.1995 4.65986 58.2067C4.15775 58.8271 4.02505 59.6913 4.29577 60.5778C4.53167 61.3504 5.05355 62.0931 5.76525 62.6692C6.56157 63.3138 7.5237 63.6835 8.40491 63.6835C9.20644 63.6835 9.89433 63.3839 10.3449 62.8394C10.5889 62.5649 14.3463 58.3382 18.0649 54.1347C20.3127 51.5938 22.107 49.5582 23.3978 48.0846C25.9645 45.1543 25.9706 45.1326 26.045 44.8662C26.0674 44.7862 26.0788 44.7034 26.0788 44.6202C26.0788 44.5239 26.0755 44.4286 26.0691 44.3345L26.1082 44.2901C26.5161 43.8271 26.924 43.3641 27.3325 42.9017C27.4381 42.957 27.5413 43.0087 27.6439 43.0575C27.65 43.0605 27.6562 43.0633 27.6625 43.0662L33.0193 45.4713C33.0269 45.4747 33.0346 45.478 33.0424 45.4813C34.4253 46.0569 35.9186 46.3488 37.4807 46.3488C44.6777 46.3488 52.4085 40.2725 56.7178 31.2286C59.3403 25.7248 60.3635 19.8496 59.5988 14.6854C58.8145 9.38816 56.2496 5.45451 52.3767 3.60909C52.2116 3.53046 52.0381 3.45407 51.8318 3.36918L47.4789 1.40681C45.957 0.683309 44.2956 0.316406 42.5407 0.316406Z" fill="#374874"/>
</svg>
