<svg width="64" height="64" viewBox="0 0 64 64" fill="none" xmlns="http://www.w3.org/2000/svg">
<path d="M7.30286 59.3961C7.82107 59.4034 8.3323 59.2758 8.78629 59.0258L38.8594 41.6544C39.7498 41.1017 40.3061 40.1416 40.3429 39.0944V4.36751C40.2859 3.32552 39.7358 2.37304 38.8617 1.80294L38.5143 1.60637C37.5857 1.11103 36.4714 1.11103 35.5429 1.60637L5.46971 18.9778C4.58462 19.5337 4.03376 20.4932 4 21.5378V56.2669C4.05845 57.3085 4.60818 58.2604 5.48114 58.8315L5.81943 59.0258C6.27353 59.2755 6.78466 59.4031 7.30286 59.3961Z" fill="#374874"/>
<path d="M6.22606 58.1252L5.88778 57.931C5.31436 57.5557 4.95303 56.9306 4.91406 56.2464V21.5424C4.95303 20.8582 5.31436 20.2331 5.88778 19.8578L35.9403 2.50695C36.5523 2.19625 37.2758 2.19625 37.8878 2.50695L38.2261 2.70123C38.8001 3.07696 39.1615 3.70309 39.1998 4.38809V39.0898C39.1608 39.7746 38.7996 40.4004 38.2261 40.7767L8.17349 58.1252C7.56154 58.4359 6.83802 58.4359 6.22606 58.1252Z" fill="white"/>
<path d="M4.91406 38.8841V21.5332C4.92622 21.1942 5.02455 20.8638 5.19978 20.5732L9.48549 23.0487V57.3572L8.17349 58.1161C7.56101 58.4246 6.83854 58.4246 6.22606 58.1161L5.88549 57.9195C5.31267 57.544 4.95214 56.9188 4.91406 56.235V38.8841Z" fill="#FBDBD0"/>
<path d="M38.2255 3.82334L8.17293 21.1788C7.60013 21.5536 7.2389 22.1777 7.19922 22.8611V57.5628C7.19922 58.1845 7.63579 58.4359 8.17293 58.1251L38.2255 40.7742C38.7989 40.3989 39.1602 39.7738 39.1992 39.0896V4.38562C39.1992 3.76848 38.7604 3.51477 38.2255 3.82334Z" fill="white"/>
<path d="M10.7932 47.4645C12.7749 46.3216 13.8401 44.6073 13.9612 42.3742C14.0275 41.1673 14.0869 35.5399 14.1189 32.2919C14.1578 28.2485 14.9258 27.2885 15.5886 26.9068C15.7349 26.8087 15.9212 26.7923 16.0823 26.8633C16.4778 27.0393 16.8321 27.6953 17.0286 28.6211C17.3098 29.9262 17.9132 31.5925 18.6949 32.0108C18.9009 32.1262 19.1483 32.1413 19.3669 32.0519C20.7955 31.4668 20.7955 30.1433 20.6858 27.7388V27.1628C20.7841 24.8062 20.7749 22.3628 22.2469 21.5536C22.5898 21.3616 22.7658 21.4096 22.8709 21.4622C23.5749 21.8073 24.0138 24.1296 24.3132 26.1136C24.4915 27.2885 25.1818 31.1719 26.5395 31.8279C26.8323 31.9687 27.1765 31.9515 27.4538 31.7822C27.839 31.5423 28.142 31.1907 28.3223 30.7742C28.49 30.3962 28.7569 30.0707 29.0949 29.8325C29.2747 29.6865 29.5139 29.6363 29.7372 29.6976C30.5989 29.9605 31.4583 32.0588 32.0869 33.5833C32.6149 34.8748 33.2869 35.6679 34.0823 35.9399C34.6934 36.1306 35.3575 36.042 35.8972 35.6976L35.6412 35.2565C35.2275 35.5226 34.7185 35.5952 34.2469 35.4553C33.5955 35.2268 33.0286 34.5411 32.5578 33.3982C31.6641 31.2131 30.8983 29.5125 29.8858 29.2085C29.5159 29.1047 29.1188 29.179 28.8115 29.4096C28.4049 29.6937 28.0813 30.0811 27.8743 30.5319C27.7329 30.8648 27.4938 31.1469 27.1886 31.3411C27.0533 31.4348 26.877 31.4453 26.7315 31.3685C26.0001 31.0165 25.2183 28.8748 24.7863 26.0405C24.2926 22.7833 23.8103 21.3708 23.0652 21.0119C22.7406 20.8519 22.3795 20.8862 21.9703 21.1148C20.2332 22.0771 20.2446 24.6691 20.1989 27.1742V27.7479C20.2561 30.0748 20.2561 31.1353 19.1452 31.5902C19.0656 31.6227 18.9751 31.6141 18.9029 31.5673C18.4206 31.3136 17.8172 30.0039 17.4995 28.5251C17.2709 27.4073 16.8138 26.6553 16.2583 26.4062C15.9491 26.2687 15.5916 26.2944 15.3052 26.4748C14.4755 26.9525 13.6206 28.0199 13.5795 32.2965C13.5475 35.5399 13.4881 41.1582 13.4241 42.3536C13.3098 44.4336 12.3566 45.9628 10.5098 47.0302L10.7932 47.4645Z" fill="#374874"/>
<path d="M10.8403 42.6852C11.4574 42.1024 11.6334 40.6007 11.8369 38.8612C12.0837 36.7675 12.3603 34.3927 13.4711 33.899C14.4037 33.483 15.3843 34.7515 16.3329 35.979C17.3134 37.2498 18.3306 38.5618 19.4026 37.915C20.358 37.339 20.7443 36.2418 21.1169 35.1721C21.4894 34.1024 21.8574 33.0738 22.7603 32.5778C23.4643 32.1915 24.0951 32.6875 25.1489 33.5972C26.326 34.6144 27.7911 35.883 30.038 35.7435C34.0631 35.499 36.0197 30.7652 36.0334 29.627H35.5214C35.5214 30.379 33.894 35.003 30.0083 35.2384C27.9763 35.3595 26.5911 34.171 25.4826 33.2155C24.4517 32.3264 23.5626 31.5584 22.5111 32.1344C21.4597 32.7104 21.03 33.8852 20.6346 35.0075C20.2757 36.0292 19.9351 36.9915 19.1351 37.4738C18.4494 37.8852 17.6197 36.8064 16.7329 35.6612C15.7134 34.3447 14.5569 32.8521 13.2631 33.4281C11.8917 34.0407 11.6037 36.459 11.3294 38.7972C11.1534 40.3012 10.9706 41.8555 10.4883 42.3104L10.8403 42.6852Z" fill="#C1DBF6"/>
<path d="M33.8095 9.59701C33.3225 9.91548 33.0161 10.4468 32.9844 11.0279C32.9844 11.5536 33.3547 11.7684 33.8095 11.5056C34.294 11.1856 34.5977 10.6545 34.6278 10.0747C34.6278 9.54673 34.2667 9.33416 33.8095 9.59701Z" fill="#C1DBF6"/>
<path d="M32.3539 11.2109C32.3235 11.6253 32.0978 12.0004 31.7459 12.2212L26.1139 15.4647C25.7779 15.6589 25.5036 15.5218 25.5059 15.1584C25.5358 14.7439 25.7617 14.3686 26.1139 14.1481L31.7459 10.8932C32.0819 10.7081 32.3539 10.8475 32.3539 11.2109Z" fill="#C1DBF6"/>
<path d="M33.8095 13.5516C33.3225 13.8701 33.0161 14.4014 32.9844 14.9825C32.9844 15.5082 33.3547 15.723 33.8095 15.4602C34.294 15.1402 34.5977 14.6091 34.6278 14.0293C34.6278 13.5013 34.2667 13.2887 33.8095 13.5516Z" fill="#374874"/>
<path d="M32.3539 15.1653C32.3235 15.5797 32.0978 15.9548 31.7459 16.1756L26.1139 19.4259C25.7779 19.6202 25.5036 19.483 25.5059 19.1196C25.5358 18.7052 25.7617 18.3299 26.1139 18.1093L31.7459 14.8568C32.0819 14.6625 32.3539 14.7996 32.3539 15.1653Z" fill="#C1DBF6"/>
<path d="M27.8134 62.5252C28.3225 62.5299 28.8244 62.4048 29.2717 62.1617L58.5448 45.2612C59.4185 44.7177 59.9643 43.7751 60.0008 42.7469V8.93431C59.9401 7.91321 59.4002 6.98096 58.5448 6.42002L58.2157 6.23031C57.3039 5.74875 56.2132 5.74875 55.3014 6.23031L26.0283 23.1446C25.1538 23.6872 24.6076 24.6303 24.5723 25.6589V59.4486C24.633 60.4697 25.1729 61.4019 26.0283 61.9629L26.3574 62.1526" fill="#374874"/>
<path d="M26.7618 61.2587L26.4349 61.0713C25.8763 60.7046 25.5244 60.0949 25.4863 59.4278V25.6541C25.5237 24.9868 25.8757 24.3769 26.4349 24.0107L55.692 7.12383C56.2884 6.822 56.9928 6.822 57.5892 7.12383L57.916 7.31126C58.472 7.67944 58.8212 8.28884 58.8578 8.95469V42.7284C58.8218 43.3962 58.4694 44.0067 57.9092 44.3718L28.652 61.2587C28.0581 61.5604 27.3557 61.5604 26.7618 61.2587Z" fill="white"/>
<path d="M25.4863 42.5413V25.6521C25.4969 25.3226 25.5904 25.0011 25.7583 24.7173L29.8292 27.1219V60.5276L28.6246 61.2407C28.0186 61.5562 27.2969 61.5562 26.6909 61.2407L26.4166 61.0784C25.8681 60.7101 25.5238 60.1061 25.4863 59.4464V42.5413Z" fill="#FBDBD0"/>
<path d="M58.8572 9.00763C58.8572 8.40649 58.4298 8.15963 57.9086 8.46134L28.7178 25.3139C28.1588 25.6778 27.8072 26.2868 27.7715 26.9528V60.6625C27.7715 61.2659 28.1943 61.5105 28.7178 61.2088L57.9109 44.3539C58.4699 43.99 58.8215 43.3811 58.8572 42.7151V9.00763Z" fill="white"/>
<path d="M38.1133 40.3786C38.1133 36.5478 40.4425 32.0975 43.3156 30.4381V26.2529C40.735 27.7432 38.4539 30.5089 36.831 34.1226C33.9305 40.5706 34.4836 47.2586 38.0585 49.0644L40.0356 44.6666C38.8653 44.0678 38.1133 42.5592 38.1133 40.3786Z" fill="#C1DBF6" stroke="#C1DBF6" stroke-miterlimit="10"/>
<path d="M43.3157 26.253V30.4427C46.1889 28.7832 48.518 30.5455 48.518 34.3764C48.518 38.2072 46.1889 42.6644 43.3157 44.317C42.0746 45.0324 40.9363 45.1101 40.0426 44.6598L38.0586 49.0644C39.6335 49.8552 41.2815 49.6838 43.3157 48.5112C47.9237 45.8507 51.6609 38.7124 51.6609 32.5684C51.6609 26.4244 47.9237 23.5924 43.3157 26.253Z" fill="#374874"/>
<path d="M29.9572 27.4759C29.4809 27.7849 29.181 28.3032 29.1504 28.8702C29.1504 29.3822 29.5115 29.5902 29.9572 29.3273C30.4322 29.0172 30.731 28.4994 30.7618 27.933C30.7618 27.4256 30.4007 27.2176 29.9572 27.4759Z" fill="#C1DBF6"/>
<path d="M38.0584 23.7985C38.0286 24.2022 37.8089 24.5678 37.4664 24.7837L31.9807 27.9517C31.6538 28.1414 31.3887 28.0065 31.3887 27.6522C31.4185 27.2485 31.6382 26.8829 31.9807 26.6671L37.4664 23.4991C37.791 23.3094 38.0584 23.4442 38.0584 23.7985Z" fill="#C1DBF6"/>
<path d="M39.3303 22.0404C38.8539 22.3494 38.554 22.8677 38.5234 23.4347C38.5234 23.9467 38.8846 24.1547 39.3303 23.8918C39.8053 23.5817 40.1041 23.0639 40.1349 22.4975C40.1349 21.9924 39.7737 21.7844 39.3303 22.0404Z" fill="#374874"/>
<path d="M47.4295 18.3627C47.4004 18.7672 47.1806 19.1338 46.8375 19.3501L41.3518 22.5181C41.0249 22.7078 40.7598 22.573 40.7598 22.2187C40.7896 21.815 41.0093 21.4494 41.3518 21.2336L46.8375 18.0656C47.1643 17.8736 47.4295 18.0084 47.4295 18.3627Z" fill="#C1DBF6"/>
<path d="M48.7053 16.6072C48.2289 16.9163 47.929 17.4345 47.8984 18.0015C47.8984 18.5135 48.2596 18.7238 48.7053 18.4587C49.1803 18.1486 49.4791 17.6308 49.5099 17.0644C49.5099 16.5569 49.1487 16.3489 48.7053 16.6072Z" fill="#374874"/>
<path d="M56.8006 12.9274C56.7708 13.3311 56.5511 13.6967 56.2086 13.9126L50.7229 17.0828C50.396 17.2703 50.1309 17.1354 50.1309 16.7811C50.1607 16.3774 50.3804 16.0118 50.7229 15.796L56.2086 12.628C56.5377 12.4383 56.8006 12.5731 56.8006 12.9274Z" fill="#C1DBF6"/>
</svg>
