<svg width="64" height="65" viewBox="0 0 64 65" fill="none" xmlns="http://www.w3.org/2000/svg">
<path d="M27.3434 11.6857C24.741 10.1733 21.1373 10.3865 17.1604 12.6825C9.25376 17.2474 2.8688 28.3097 2.89461 37.3951C2.90736 41.9073 4.50021 45.0825 7.06951 46.5757L10.1778 48.3821L30.4517 13.492L27.3434 11.6857Z" fill="#FBDBD0"/>
<path d="M20.2697 14.4892C23.7276 12.4928 26.9034 12.0711 29.3841 12.9892C32.5736 14.1696 34.6143 17.5647 34.6288 22.6752C34.6546 31.7573 28.2668 42.8213 20.363 47.3846C12.4564 51.9494 6.02972 48.2838 6.00398 39.2018C5.97825 30.1165 12.3631 19.0541 20.2697 14.4892Z" fill="#C1DBF6"/>
<path fill-rule="evenodd" clip-rule="evenodd" d="M29.3048 13.2032C26.9084 12.3163 23.8052 12.7117 20.3841 14.6868C16.4736 16.9445 12.9267 20.8181 10.3602 25.2643C7.7937 29.7105 6.21988 34.708 6.23261 39.2008C6.24534 43.6931 7.8391 46.7855 10.3414 48.2119C12.8443 49.6386 16.3369 49.4448 20.2488 47.1863C24.1578 44.9294 27.7047 41.0559 30.2716 36.6098C32.8385 32.1638 34.413 27.1667 34.4003 22.6755C34.3859 17.6202 32.3722 14.3384 29.3048 13.2032L29.3839 12.9894L29.3048 13.2032ZM20.1555 14.2909C23.6502 12.2733 26.8984 11.8252 29.4635 12.7745C32.7751 14.0001 34.8427 17.5087 34.8574 22.6742C34.8705 27.2652 33.264 32.3411 30.6675 36.8384C28.071 41.3357 24.4721 45.2758 20.4773 47.5822C16.4826 49.8886 12.8086 50.1445 10.115 48.609C7.42092 47.0733 5.78848 43.7919 5.77547 39.2021C5.76246 34.6096 7.36821 29.5332 9.96432 25.0357C12.5605 20.5382 16.1594 16.5981 20.1555 14.2909L20.2698 14.4889L20.1555 14.2909Z" fill="#374874"/>
<path d="M23.5816 10.72C24.981 10.72 26.2508 11.0508 27.3436 11.6859L30.4519 13.4922L30.4502 13.4951C33.0199 14.9884 34.6151 18.1612 34.6279 22.675C34.6537 31.7571 28.2659 42.8211 20.3621 47.3845C18.0551 48.7164 15.875 49.3469 13.9425 49.3469C12.5425 49.3469 11.2723 49.0157 10.1791 48.3805L10.1781 48.3823L7.06972 46.5759C4.50044 45.0828 2.90757 41.9075 2.89484 37.3953C2.86903 28.3099 9.25401 17.2476 17.1606 12.6828C19.4675 11.3509 21.6484 10.72 23.5816 10.72ZM23.5816 9.80569C21.4142 9.80569 19.1001 10.5072 16.7035 11.8909C12.7428 14.1776 9.03436 18.0827 6.26124 22.8868C3.48786 27.6913 1.96761 32.8448 1.98055 37.3979C1.99383 42.0989 3.63806 45.6391 6.61033 47.3664L9.71868 49.1728C9.73781 49.1839 9.75728 49.1943 9.77703 49.2039C11.0081 49.9055 12.4092 50.2612 13.9425 50.2612C16.1094 50.2612 18.423 49.5597 20.8193 48.1762C24.7787 45.8902 28.4868 41.9855 31.2604 37.1814C34.0345 32.3765 35.5551 27.2238 35.5422 22.6725C35.5289 18.0113 33.9103 14.4908 30.9822 12.7473C30.9595 12.7311 30.9358 12.7159 30.9113 12.7016L27.803 10.8953C26.5587 10.1723 25.1384 9.80569 23.5816 9.80569Z" fill="#374874"/>
<path d="M20.3008 25.902C17.8848 27.2969 15.9257 30.6901 15.9336 33.4663C15.9415 36.2422 17.9134 37.3626 20.3293 35.9677C22.7451 34.5729 24.7013 31.1847 24.6934 28.4088C24.6855 25.6326 22.7166 24.5073 20.3008 25.902ZM20.3232 33.813C18.9434 34.6096 17.8162 33.9672 17.8117 32.3819C17.8072 30.7965 18.9271 28.8567 20.3069 28.0601C21.6865 27.2636 22.8137 27.906 22.8182 29.4914C22.8227 31.0767 21.7028 33.0165 20.3232 33.813Z" fill="white"/>
<path d="M20.287 21.2302C15.6296 23.9191 11.8521 30.4621 11.8672 35.8137C11.8824 41.1651 15.6847 43.3321 20.342 40.6432C24.9992 37.9544 28.7769 31.4111 28.7617 26.0597C28.7465 20.7081 24.9441 18.5414 20.287 21.2302ZM20.3359 38.4849C16.712 40.5772 13.7571 38.8901 13.7453 34.7293C13.7335 30.5653 16.6692 25.4805 20.2931 23.3883C23.9141 21.2976 26.8717 22.98 26.8835 27.144C26.8953 31.3048 23.9569 36.3944 20.3359 38.4849Z" fill="white"/>
<path d="M20.2743 16.5548C13.3729 20.5394 7.77647 30.2328 7.7989 38.163C7.82139 46.0899 13.4543 49.2998 20.3558 45.3152C27.2543 41.3324 32.8505 31.6393 32.828 23.7124C32.8056 15.7822 27.1728 12.572 20.2743 16.5548ZM20.3497 43.1606C14.4845 46.5468 9.69608 43.8181 9.67704 37.0787C9.65789 30.3391 14.4152 22.0992 20.2803 18.7129C26.1454 15.3267 30.9337 18.0555 30.9529 24.795C30.972 31.5344 26.2148 39.7744 20.3497 43.1606Z" fill="white"/>
<path d="M56.3733 51.9375L57.0378 53.5473L57.3408 54.2804L55.4409 53.1835L54.4963 51.3381L55.2006 53.0448L53.3206 51.9593L52.3752 50.1135L53.0803 51.8206C52.709 51.6062 51.8883 51.1324 51.6376 50.9876C50.1428 50.1246 49.5451 48.0845 49.5137 47.9771L56.3733 51.9375Z" fill="#374874"/>
<path d="M57.0467 50.6795L56.3752 51.518L49.5156 47.5575C49.5476 47.4868 50.1548 46.1423 51.6496 47.0053C51.9003 47.15 52.2274 47.3389 52.5987 47.5533L52.5577 47.6035L51.8862 48.442L52.8391 47.692C53.4515 48.0457 54.1559 48.4523 54.824 48.838L54.783 48.8882L54.1115 49.7267L55.0634 48.9762C55.4659 49.2086 55.8476 49.429 56.1808 49.6214L56.1407 49.6721L55.4692 50.5106L56.4211 49.7601C56.9815 50.0837 57.3343 50.2873 57.3529 50.2981L57.0467 50.6795Z" fill="#374874"/>
<path d="M59.0931 46.3842L59.9887 47.8779L60.3969 48.558L58.3555 47.7545L57.1481 46.0694L58.0973 47.653L56.0773 46.8579L54.869 45.1724L55.8191 46.7563C55.4201 46.5993 54.5383 46.2522 54.269 46.1462C52.6628 45.514 51.7696 43.5849 51.7227 43.4834L59.0931 46.3842Z" fill="#374874"/>
<path d="M59.5725 45.0405L59.0326 45.9693L51.6621 43.0684C51.6832 42.9937 52.0847 41.574 53.6907 42.2062C53.9601 42.3122 54.3115 42.4505 54.7105 42.6076L54.6774 42.6633L54.1375 43.5919L54.9688 42.7091C55.6269 42.9682 56.3837 43.2661 57.1015 43.5486L57.0684 43.6043L56.5285 44.5329L57.3588 43.6498C57.7914 43.82 58.2015 43.9814 58.5594 44.1223L58.5273 44.1785L57.9874 45.1071L58.8176 44.2239C59.4198 44.4609 59.7988 44.6101 59.8188 44.618L59.5725 45.0405Z" fill="#374874"/>
<path fill-rule="evenodd" clip-rule="evenodd" d="M19.7224 30.7404C19.8254 30.5243 20.0777 30.4244 20.3008 30.5112L60.8952 46.3143C61.1305 46.4059 61.247 46.6709 61.1554 46.9062C61.0638 47.1414 60.7988 47.2579 60.5636 47.1663L25.7247 33.6038L58.166 52.1355C58.3852 52.2607 58.4614 52.54 58.3362 52.7592C58.211 52.9784 57.9317 53.0546 57.7125 52.9294L19.9082 31.3342C19.7003 31.2154 19.6193 30.9564 19.7224 30.7404Z" fill="#374874"/>
</svg>
