<svg width="128" height="128" viewBox="0 0 64 64" fill="none" xmlns="http://www.w3.org/2000/svg">
<path d="M2.75193 13.5659C2.59614 13.6549 2.5 13.8206 2.5 14V30C2.5 30.1782 2.59488 30.343 2.74904 30.4325C2.90319 30.5219 3.09332 30.5226 3.24807 30.4341L17.2481 22.4341C17.4039 22.3451 17.5 22.1794 17.5 22V6C17.5 5.82176 17.4051 5.65701 17.251 5.56754C17.0968 5.47808 16.9067 5.47745 16.7519 5.56588L2.75193 13.5659Z" fill="white" stroke="#374874" stroke-linejoin="round"/>
<path d="M24.5 45.5L9.41724 37.5815C7.30506 36.4727 7.26945 33.4614 9.35481 32.3029L17.7055 27.6636C19.7785 26.512 19.7588 23.524 17.6709 22.3997L9.5 18" stroke="#374874" stroke-width="2" stroke-linejoin="round"/>
<path d="M17 8.94431C14.4028 11.6436 9.82559 16.6548 5.75046 21.163C4.98374 22.0112 3.94854 22.2824 3 22.1124V14L17 6V8.94431Z" fill="#FBDBD0"/>
<circle cx="2.19615" cy="2.19615" r="2.19615" transform="matrix(0.866025 -0.5 0 1 8.19617 17.1133)" fill="#374874"/>
<path d="M31.4746 55.3288C32.5475 55.9543 34.2872 55.9617 35.3584 55.3453L59.6413 41.3722C60.7125 40.7558 60.7111 39.7481 59.6382 39.1226L41.9671 28.8191C40.8942 28.1936 39.1545 28.1861 38.0834 28.8025L13.8004 42.7756C12.7293 43.392 12.7306 44.3997 13.8035 45.0253L31.4746 55.3288Z" fill="white"/>
<path d="M33.1228 56.7239C33.1151 56.7233 33.1073 56.7234 33.0995 56.7228C33.0295 56.718 32.9598 56.7115 32.8906 56.7035C32.8886 56.7032 32.8866 56.7031 32.8847 56.7029C32.8375 56.6974 32.7906 56.6912 32.7438 56.6843C32.7059 56.6786 32.668 56.6724 32.6304 56.6658C32.6295 56.6657 32.6285 56.6656 32.6275 56.6654C32.627 56.6652 32.6265 56.6652 32.6259 56.6651C32.5877 56.6583 32.5497 56.6512 32.512 56.6435C32.4749 56.6359 32.438 56.6279 32.4014 56.6193C32.3956 56.6179 32.3898 56.6164 32.3839 56.615C32.3776 56.6135 32.3714 56.6119 32.3651 56.6104C32.3398 56.6042 32.3144 56.5982 32.2892 56.5916C32.2518 56.5817 32.2147 56.5714 32.1779 56.5606C32.1668 56.5573 32.1559 56.5536 32.1449 56.5502C32.1363 56.5476 32.1278 56.5449 32.1194 56.5423C32.1017 56.5367 32.0838 56.5315 32.0664 56.5257C32.0298 56.5137 31.9936 56.5012 31.9578 56.4881C31.9423 56.4824 31.9271 56.4762 31.9118 56.4704C31.9039 56.4674 31.896 56.4644 31.8882 56.4613C31.8766 56.4568 31.8648 56.4526 31.8533 56.448C31.8199 56.4345 31.787 56.4205 31.7544 56.4061C31.7311 56.3958 31.7081 56.3849 31.6851 56.3741C31.6809 56.372 31.6764 56.3701 31.6722 56.368C31.6681 56.3662 31.6641 56.3644 31.6601 56.3625C31.6303 56.348 31.6008 56.3331 31.5717 56.3178C31.5431 56.3028 31.5148 56.2873 31.4871 56.2713C31.4806 56.2677 31.4742 56.264 31.4679 56.2603L13.7968 45.9568C13.7761 45.9448 13.7559 45.9326 13.736 45.9203C13.7102 45.9043 13.6851 45.888 13.6606 45.8716C13.6446 45.8608 13.6294 45.8498 13.6139 45.8389C13.6104 45.8363 13.6065 45.8338 13.6029 45.8311C13.5984 45.828 13.5936 45.8248 13.5892 45.8216C13.5661 45.8047 13.5437 45.7876 13.5219 45.7703C13.4996 45.7527 13.4781 45.7348 13.4572 45.7168C13.4536 45.7137 13.4504 45.7105 13.4468 45.7073C13.4435 45.7045 13.4404 45.7016 13.4372 45.6986C13.4234 45.6864 13.4096 45.6741 13.3964 45.6617C13.3758 45.6423 13.3561 45.6227 13.3372 45.6029C13.328 45.5932 13.3195 45.5834 13.3106 45.5737C13.3068 45.5694 13.3029 45.5653 13.2992 45.5611C13.2935 45.5548 13.2876 45.5486 13.2822 45.5424C13.2631 45.5202 13.2449 45.4979 13.2276 45.4753C13.2169 45.4613 13.2073 45.4471 13.1973 45.433C13.194 45.4281 13.1904 45.4233 13.187 45.4185C13.1838 45.4138 13.1801 45.4092 13.177 45.4045C13.1597 45.3787 13.1437 45.3527 13.1289 45.3265C13.1223 45.3148 13.117 45.303 13.1109 45.2913C13.1062 45.2823 13.1015 45.2733 13.0971 45.2643C13.0926 45.255 13.0872 45.2457 13.0829 45.2364C13.067 45.2014 13.0531 45.1662 13.0413 45.1308C13.0411 45.1301 13.041 45.1294 13.0408 45.1287C13.0381 45.1206 13.0369 45.1123 13.0345 45.1041C13.0234 45.0675 13.0129 45.0308 13.0062 44.994C13.0057 44.9909 13.006 44.9878 13.0054 44.9847C12.9962 44.9301 12.9909 44.8754 12.9912 44.8207L12.9978 43.8891C12.9975 43.9438 13.0028 43.9985 13.0121 44.0531C13.0189 44.0931 13.0291 44.1329 13.0411 44.1726C13.0436 44.1807 13.0447 44.189 13.0474 44.1971C13.0624 44.2427 13.0818 44.2879 13.1037 44.3327C13.1082 44.3417 13.1128 44.3507 13.1175 44.3598C13.1399 44.4026 13.1648 44.4451 13.1936 44.487C13.197 44.4918 13.2006 44.4966 13.204 44.5014C13.2346 44.5448 13.2683 44.5876 13.3058 44.6295C13.3095 44.6337 13.3134 44.6379 13.3172 44.6421C13.3559 44.6846 13.398 44.7263 13.4438 44.7671C13.4471 44.77 13.4501 44.7729 13.4534 44.7758C13.5016 44.8181 13.5537 44.8594 13.6095 44.8996C13.6132 44.9022 13.6169 44.9047 13.6205 44.9073C13.6777 44.9478 13.7384 44.9873 13.8034 45.0252L31.4745 55.3287C31.5402 55.367 31.6085 55.4028 31.6787 55.4364C31.683 55.4385 31.6875 55.4404 31.6918 55.4424C31.7576 55.4736 31.8255 55.5026 31.8948 55.5297C31.9026 55.5328 31.9105 55.5358 31.9184 55.5388C31.9862 55.5647 32.0555 55.5886 32.1261 55.6107C32.1346 55.6133 32.1429 55.616 32.1513 55.6186C32.2236 55.6406 32.2971 55.6607 32.3718 55.6788C32.378 55.6803 32.3842 55.6819 32.3905 55.6834C32.4706 55.7024 32.5519 55.7193 32.6342 55.7337C32.6351 55.7339 32.6361 55.7341 32.6371 55.7342C32.7209 55.7489 32.8058 55.7613 32.8913 55.7712C32.8916 55.7713 32.8919 55.7713 32.8921 55.7714C32.8938 55.7716 32.8955 55.7716 32.8972 55.7719C32.9741 55.7807 33.0517 55.7872 33.1294 55.7922C33.1435 55.7932 33.1576 55.7933 33.1717 55.794L33.1778 56.7261C33.1595 56.7253 33.1411 56.725 33.1228 56.7239Z" fill="#C1DBF6"/>
<path d="M35.191 56.3624C35.1782 56.3687 35.1649 56.3746 35.1518 56.3808C35.1462 56.3835 35.1406 56.3861 35.135 56.3887C35.1249 56.3934 35.1152 56.3982 35.1051 56.4028C35.0761 56.4159 35.0468 56.4286 35.0171 56.4409C34.9869 56.4534 34.9562 56.4656 34.9253 56.4773C34.9244 56.4777 34.9234 56.478 34.9225 56.4783C34.9212 56.4788 34.9198 56.4793 34.9184 56.4798C34.8896 56.4907 34.8607 56.5012 34.8314 56.5114C34.7989 56.5227 34.7661 56.5335 34.733 56.5439C34.7212 56.5476 34.7091 56.551 34.6973 56.5546C34.6903 56.5567 34.6833 56.5588 34.6762 56.5609C34.6617 56.5652 34.6473 56.5697 34.6325 56.5739C34.5984 56.5836 34.564 56.5928 34.5293 56.6016C34.504 56.6081 34.4783 56.614 34.4527 56.62C34.4479 56.6211 34.4433 56.6223 34.4385 56.6234C34.434 56.6244 34.4295 56.6256 34.4251 56.6266C34.3908 56.6343 34.3562 56.6417 34.3216 56.6486C34.2873 56.6554 34.2528 56.6618 34.2181 56.6678C34.2117 56.6689 34.2052 56.6699 34.1987 56.671C34.1934 56.6718 34.188 56.6727 34.1827 56.6736C34.161 56.6771 34.1393 56.6808 34.1175 56.6841C34.0839 56.6891 34.0502 56.6937 34.0163 56.698C33.992 56.7011 33.9674 56.7037 33.943 56.7064C33.9386 56.7069 33.9343 56.7075 33.9301 56.7079C33.9254 56.7084 33.9207 56.709 33.916 56.7095C33.8818 56.7131 33.8474 56.7162 33.813 56.719C33.7751 56.7221 33.7371 56.7247 33.699 56.7269C33.6933 56.7272 33.6874 56.7273 33.6817 56.7276C33.674 56.728 33.6663 56.7282 33.6587 56.7286C33.6283 56.73 33.5979 56.7316 33.5675 56.7325C33.5294 56.7336 33.4913 56.7332 33.4532 56.7334C33.4335 56.7335 33.4139 56.734 33.3942 56.7339C33.3865 56.7338 33.3788 56.7341 33.371 56.7341C33.3375 56.7336 33.3041 56.731 33.2706 56.7299C33.2397 56.7289 33.2088 56.7273 33.1779 56.7261L33.1718 55.794C33.2069 55.7956 33.242 55.7972 33.2772 55.7983C33.3185 55.7997 33.3596 55.8019 33.4008 55.8022C33.4206 55.8024 33.4402 55.8019 33.4598 55.8018C33.5284 55.8015 33.597 55.8002 33.6653 55.797C33.673 55.7966 33.6807 55.7964 33.6883 55.796C33.7715 55.7916 33.8544 55.7851 33.9367 55.7763C33.9411 55.7758 33.9453 55.7753 33.9496 55.7748C34.0302 55.766 34.1102 55.755 34.1894 55.742C34.1947 55.7411 34.2001 55.7403 34.2054 55.7394C34.2863 55.7257 34.3663 55.7099 34.4452 55.6918C34.4499 55.6907 34.4545 55.6895 34.4593 55.6884C34.535 55.6708 34.6096 55.651 34.683 55.6292C34.6899 55.6272 34.6969 55.6251 34.7039 55.623C34.7793 55.6001 34.8534 55.5753 34.9255 55.5481C34.9266 55.5477 34.9278 55.5473 34.9289 55.5468C35.0018 55.5193 35.0726 55.4892 35.1416 55.4571C35.1472 55.4545 35.1528 55.4518 35.1584 55.4492C35.2272 55.4168 35.2941 55.3823 35.3583 55.3454L59.6412 41.3723C59.7055 41.3353 59.7653 41.2969 59.8217 41.2574C59.8268 41.2538 59.8316 41.2502 59.8367 41.2466C59.8882 41.2099 59.9364 41.1721 59.9813 41.1334C59.9873 41.1282 59.9932 41.1231 59.9991 41.1179C60.0421 41.0798 60.0821 41.0408 60.1188 41.0012C60.1257 40.9938 60.1323 40.9862 60.139 40.9787C60.1731 40.9406 60.2045 40.9018 60.2328 40.8624C60.236 40.8581 60.2397 40.8539 60.2427 40.8496C60.2743 40.8045 60.302 40.7588 60.3261 40.7126C60.3604 40.6469 60.3849 40.58 60.4041 40.5126C60.4088 40.4963 60.4129 40.48 60.4166 40.4636C60.4323 40.3957 60.4432 40.3273 60.4437 40.2587L60.4371 41.1903C60.4366 41.2589 60.4257 41.3272 60.41 41.3952C60.4062 41.4117 60.4022 41.4279 60.3975 41.4442C60.3783 41.5115 60.3538 41.5785 60.3195 41.6442C60.319 41.6451 60.3189 41.6462 60.3183 41.6472C60.2953 41.691 60.2689 41.7344 60.2391 41.7772C60.2382 41.7785 60.237 41.7798 60.2361 41.7812C60.233 41.7855 60.2293 41.7897 60.2262 41.794C60.2072 41.8204 60.1877 41.8468 60.1662 41.8727C60.1556 41.8854 60.1436 41.8978 60.1324 41.9103C60.1257 41.9179 60.1191 41.9254 60.1122 41.9328C60.106 41.9395 60.1004 41.9464 60.0941 41.9531C60.0707 41.9774 60.0463 42.0012 60.0206 42.0249C60.0116 42.0332 60.0019 42.0411 59.9926 42.0493C59.9866 42.0546 59.9806 42.0599 59.9744 42.0651C59.9653 42.073 59.9568 42.081 59.9473 42.0888C59.9236 42.1085 59.899 42.1279 59.8735 42.147C59.8595 42.1575 59.8446 42.1678 59.8301 42.1781C59.8251 42.1817 59.8201 42.1854 59.8151 42.1889C59.8089 42.1932 59.8031 42.1977 59.7969 42.202C59.772 42.219 59.7464 42.2359 59.72 42.2525C59.6939 42.2689 59.6671 42.2851 59.6394 42.3011C59.6379 42.302 59.6362 42.3029 59.6346 42.3039L35.3517 56.2769C35.3264 56.2915 35.3009 56.3056 35.2749 56.3194C35.2473 56.3341 35.2194 56.3484 35.191 56.3624Z" fill="#FBDBD0"/>
<path d="M33.8605 55.0873C33.8226 55.0904 33.7846 55.093 33.7465 55.0951C33.7407 55.0954 33.7349 55.0955 33.7291 55.0958C33.7214 55.0963 33.7138 55.0964 33.706 55.0968C33.6757 55.0983 33.6454 55.0998 33.6149 55.1007C33.5767 55.1018 33.5383 55.1015 33.5 55.1016C33.4806 55.1017 33.4613 55.1023 33.4419 55.1021C33.4342 55.1021 33.4264 55.1024 33.4186 55.1023C33.3846 55.1019 33.3507 55.0993 33.3166 55.0981C33.2679 55.0965 33.2193 55.0952 33.1707 55.0921C33.1628 55.0916 33.1548 55.0917 33.147 55.0911C33.076 55.0862 33.0054 55.0796 32.9352 55.0715C32.9345 55.0714 32.9338 55.0713 32.9331 55.0713C32.8857 55.0657 32.8384 55.0595 32.7913 55.0525C32.7534 55.0469 32.7155 55.0407 32.6778 55.0341C32.677 55.0339 32.676 55.0338 32.6751 55.0336C32.6746 55.0335 32.674 55.0335 32.6734 55.0334C32.6353 55.0266 32.5973 55.0194 32.5595 55.0117C32.5225 55.0041 32.4856 54.9961 32.449 54.9876C32.4431 54.9862 32.4373 54.9846 32.4314 54.9832C32.4251 54.9818 32.4191 54.9802 32.4128 54.9787C32.3875 54.9725 32.362 54.9665 32.3369 54.9598C32.2994 54.95 32.2624 54.9397 32.2256 54.9288C32.2143 54.9255 32.2033 54.9218 32.1921 54.9184C32.1838 54.9158 32.1755 54.9132 32.1671 54.9106C32.1494 54.9051 32.1315 54.8998 32.1139 54.894C32.0773 54.882 32.0412 54.8694 32.0053 54.8564C31.9899 54.8506 31.9747 54.8445 31.9593 54.8386C31.9514 54.8356 31.9435 54.8326 31.9358 54.8296C31.9242 54.8251 31.9124 54.8209 31.901 54.8162C31.8676 54.8028 31.8345 54.7888 31.802 54.7744C31.7784 54.764 31.7553 54.753 31.7323 54.7421C31.7282 54.7402 31.724 54.7384 31.7199 54.7365C31.716 54.7345 31.7117 54.7327 31.7077 54.7308C31.6778 54.7163 31.6483 54.7015 31.6193 54.6861C31.5906 54.6711 31.5624 54.6556 31.5346 54.6397C31.5283 54.636 31.5218 54.6323 31.5154 54.6286L14.8167 44.8921C14.7961 44.88 14.7757 44.8679 14.7558 44.8555C14.7299 44.8394 14.7048 44.8231 14.6802 44.8066C14.6643 44.7959 14.6492 44.785 14.6337 44.7741C14.63 44.7714 14.6262 44.7688 14.6225 44.7662C14.6179 44.7629 14.6132 44.7598 14.6087 44.7565C14.5856 44.7396 14.5631 44.7225 14.5412 44.7052C14.5189 44.6875 14.4973 44.6696 14.4765 44.6515C14.4729 44.6484 14.4696 44.6453 14.4661 44.6422C14.463 44.6394 14.4599 44.6365 14.4568 44.6337C14.4428 44.6213 14.4288 44.609 14.4155 44.5964C14.3949 44.577 14.3752 44.5573 14.3562 44.5374C14.347 44.5279 14.3387 44.5181 14.3298 44.5085C14.3259 44.5042 14.322 44.5 14.3182 44.4957C14.3126 44.4894 14.3066 44.4832 14.3011 44.4769C14.2819 44.4547 14.2637 44.4323 14.2465 44.4097C14.2358 44.3959 14.2264 44.3818 14.2164 44.3678C14.213 44.3628 14.2093 44.3579 14.2059 44.353C14.2026 44.3482 14.1989 44.3436 14.1958 44.3388C14.1785 44.3129 14.1625 44.2869 14.1477 44.2607C14.1411 44.2492 14.1359 44.2375 14.1298 44.2259C14.1251 44.2168 14.1205 44.2077 14.1159 44.1986C14.1113 44.1893 14.1059 44.18 14.1016 44.1706C14.0857 44.1356 14.0718 44.1004 14.0601 44.0649C14.0598 44.0643 14.0597 44.0636 14.0595 44.0629C14.0569 44.0551 14.0558 44.0471 14.0534 44.0392C14.0422 44.0023 14.0316 43.9653 14.025 43.928C14.0244 43.925 14.0247 43.9219 14.0241 43.9189C14.0149 43.8643 14.0096 43.8095 14.0099 43.7548L14.0749 34.6252C14.0746 34.6799 14.0798 34.7347 14.0891 34.7892C14.0959 34.8295 14.1062 34.8696 14.1183 34.9096C14.1208 34.9175 14.1219 34.9254 14.1244 34.9333C14.1396 34.9789 14.1589 35.0242 14.1809 35.069C14.1854 35.0781 14.19 35.0871 14.1947 35.0961C14.2171 35.139 14.2421 35.1815 14.2709 35.2234C14.2743 35.2283 14.2779 35.2332 14.2814 35.2381C14.312 35.2814 14.3458 35.3241 14.3832 35.3661C14.387 35.3704 14.3909 35.3747 14.3949 35.3789C14.4336 35.4215 14.4759 35.4633 14.5217 35.5041C14.5249 35.5069 14.5279 35.5098 14.5311 35.5126C14.5794 35.555 14.6315 35.5964 14.6875 35.6366C14.6911 35.6392 14.695 35.6418 14.6986 35.6444C14.7559 35.685 14.8166 35.7245 14.8818 35.7625L31.5805 45.499C31.6461 45.5372 31.7144 45.573 31.7846 45.6067C31.789 45.6087 31.7935 45.6107 31.7978 45.6128C31.8636 45.6438 31.9312 45.6728 32.0004 45.6999C32.0085 45.703 32.0166 45.7061 32.0247 45.7092C32.0924 45.7351 32.1616 45.759 32.2322 45.781C32.2405 45.7837 32.2488 45.7863 32.2572 45.7888C32.3294 45.8109 32.4029 45.8309 32.4775 45.849C32.4839 45.8505 32.4902 45.8522 32.4966 45.8537C32.5766 45.8727 32.6578 45.8896 32.7399 45.904C32.7411 45.9042 32.7422 45.9044 32.7433 45.9046C32.8275 45.9193 32.9126 45.9317 32.9983 45.9417L32.9987 45.9417C33.0771 45.9509 33.1561 45.9573 33.2353 45.9625C33.2847 45.9657 33.3342 45.9669 33.3838 45.9686C33.4247 45.97 33.4656 45.9722 33.5065 45.9726C33.5262 45.9727 33.546 45.9721 33.5656 45.9721C33.6343 45.9717 33.703 45.9706 33.7714 45.9673C33.7789 45.9669 33.7865 45.9667 33.794 45.9663C33.8535 45.9631 33.9125 45.9576 33.9716 45.9522L33.8917 55.0845C33.8813 55.0854 33.8709 55.0864 33.8605 55.0873Z" fill="#C1DBF6"/>
<path d="M35.3993 54.6452C35.3741 54.6597 35.3484 54.6739 35.3225 54.6877C35.2949 54.7024 35.2669 54.7167 35.2386 54.7306C35.2256 54.737 35.2124 54.7429 35.1993 54.7491C35.1937 54.7517 35.1882 54.7544 35.1825 54.757C35.1725 54.7616 35.1627 54.7665 35.1527 54.771C35.1237 54.7841 35.0943 54.7968 35.0646 54.8092C35.0344 54.8217 35.0037 54.8339 34.9728 54.8456C34.9719 54.846 34.9709 54.8463 34.9699 54.8467C34.9687 54.8472 34.9676 54.8475 34.9663 54.848C34.9375 54.8589 34.9084 54.8695 34.879 54.8797C34.8465 54.8909 34.8136 54.9018 34.7805 54.9122C34.7688 54.9159 34.7567 54.9193 34.7447 54.9229C34.7378 54.925 34.7309 54.927 34.7239 54.9291C34.7092 54.9335 34.6949 54.938 34.6802 54.9422C34.6461 54.9518 34.6117 54.9611 34.577 54.9699C34.5515 54.9764 34.5256 54.9824 34.4998 54.9884C34.4953 54.9895 34.4909 54.9906 34.4864 54.9916C34.4817 54.9927 34.4773 54.9939 34.4726 54.995C34.4383 55.0027 34.4038 55.01 34.3692 55.0169C34.3349 55.0237 34.3004 55.0301 34.2657 55.0361C34.2592 55.0373 34.2525 55.0382 34.246 55.0393C34.2409 55.0402 34.2358 55.041 34.2308 55.0418C34.2089 55.0454 34.187 55.0491 34.1651 55.0524C34.1315 55.0574 34.0977 55.0621 34.0639 55.0663C34.0396 55.0694 34.015 55.072 33.9903 55.0748C33.9862 55.0752 33.9819 55.0758 33.9777 55.0762C33.9729 55.0767 33.9683 55.0773 33.9635 55.0778C33.9396 55.0803 33.9157 55.0824 33.8917 55.0845L33.9716 45.9522C33.9952 45.9501 34.019 45.9491 34.0425 45.9466C34.0469 45.9461 34.0512 45.9455 34.0555 45.9451C34.1361 45.9362 34.2162 45.9253 34.2955 45.9122C34.3007 45.9113 34.3058 45.9106 34.3109 45.9097C34.3919 45.8961 34.4719 45.8802 34.5508 45.8621C34.5557 45.861 34.5605 45.8598 34.5655 45.8586C34.641 45.841 34.7154 45.8213 34.7885 45.7996C34.7956 45.7975 34.8028 45.7954 34.8099 45.7933C34.8851 45.7704 34.9589 45.7457 35.0309 45.7185C35.0323 45.718 35.0337 45.7176 35.035 45.717C35.1077 45.6895 35.1785 45.6595 35.2473 45.6275C35.2531 45.6248 35.2587 45.6221 35.2644 45.6195C35.3331 45.587 35.4 45.5526 35.4642 45.5157L58.4768 32.2736C58.5408 32.2367 58.6006 32.1983 58.6571 32.1587C58.6623 32.1551 58.6673 32.1514 58.6724 32.1477C58.7238 32.1111 58.772 32.0733 58.8169 32.0346C58.8228 32.0295 58.8288 32.0243 58.8346 32.0192C58.8777 31.9811 58.9176 31.9421 58.9544 31.9025C58.9613 31.895 58.9678 31.8875 58.9746 31.88C59.0086 31.8418 59.0402 31.8029 59.0685 31.7635C59.0716 31.7592 59.0752 31.7552 59.0782 31.7509C59.1098 31.7059 59.1376 31.6601 59.1617 31.6138C59.196 31.5482 59.2204 31.4812 59.2397 31.4138C59.2443 31.3976 59.2484 31.3813 59.2522 31.3649C59.2678 31.2969 59.2788 31.2285 59.2792 31.16L59.2144 40.2896C59.2139 40.3582 59.2029 40.4265 59.1872 40.4945C59.1834 40.5109 59.1794 40.5271 59.1747 40.5435C59.1555 40.6108 59.131 40.6777 59.0967 40.7434C59.0962 40.7444 59.0961 40.7455 59.0955 40.7465C59.0725 40.7903 59.0461 40.8337 59.0163 40.8764C59.0154 40.8778 59.0142 40.8791 59.0132 40.8805C59.0102 40.8848 59.0066 40.889 59.0034 40.8933C58.9844 40.9197 58.965 40.946 58.9434 40.9719C58.9328 40.9846 58.9208 40.9971 58.9096 41.0096C58.9029 41.0171 58.8964 41.0246 58.8894 41.032C58.8832 41.0387 58.8777 41.0457 58.8712 41.0524C58.8479 41.0766 58.8234 41.1005 58.7978 41.1242C58.7888 41.1324 58.779 41.1405 58.7698 41.1486C58.7638 41.1539 58.7578 41.1591 58.7517 41.1644C58.7426 41.1722 58.7339 41.1803 58.7245 41.1881C58.7008 41.2078 58.6761 41.2272 58.6507 41.2463C58.6367 41.2568 58.6218 41.2671 58.6073 41.2775C58.6023 41.281 58.5974 41.2846 58.5923 41.2882C58.5861 41.2926 58.5804 41.297 58.5741 41.3013C58.5493 41.3183 58.5237 41.3351 58.4973 41.3517C58.4711 41.3682 58.4443 41.3844 58.4167 41.4004C58.4151 41.4013 58.4134 41.4023 58.4119 41.4032L35.3993 54.6452Z" fill="white"/>
<path d="M35.4641 45.5156C35.3999 45.5525 35.333 45.5869 35.2643 45.6194C35.2586 45.622 35.253 45.6247 35.2472 45.6275C35.1784 45.6594 35.1076 45.6895 35.0349 45.717C35.0336 45.7175 35.0322 45.7179 35.0308 45.7185C34.9588 45.7456 34.885 45.7704 34.8098 45.7931C34.8027 45.7954 34.7955 45.7975 34.7884 45.7996C34.7153 45.8212 34.6409 45.8409 34.5654 45.8585C34.5604 45.8598 34.5556 45.861 34.5507 45.8621C34.4718 45.8802 34.3918 45.896 34.3109 45.9096C34.3057 45.9105 34.3006 45.9112 34.2954 45.9121C34.2161 45.9251 34.136 45.9362 34.0553 45.945C34.0511 45.9455 34.0468 45.946 34.0424 45.9464C34.0189 45.949 33.9951 45.95 33.9715 45.9521L33.908 53.2162L56.1323 33.6224L35.4641 45.5156Z" fill="#FBDBD0"/>
<path d="M42.8849 42.2007L42.8933 45.1672L37.5083 48.2762L37.4999 45.3098L42.8849 42.2007Z" fill="#374874"/>
<path d="M42.8837 46.5146L42.8945 49.6439L37.5095 52.753L37.4987 49.6237L42.8837 46.5146Z" fill="#374874"/>
<path d="M52.7324 36.5517L52.7409 39.5299L47.3558 42.6389L47.3474 39.6608L52.7324 36.5517Z" fill="#374874"/>
<path d="M52.7312 40.8371L52.7421 43.9847L47.357 47.0937L47.3462 43.9461L52.7312 40.8371Z" fill="#374874"/>
<path d="M31.4946 45.6493C32.5675 46.2748 34.3072 46.2822 35.3784 45.6659L59.6613 31.6928C60.7325 31.0764 60.7311 30.0687 59.6582 29.4431L41.9871 19.1396C40.9142 18.5141 39.1746 18.5066 38.1034 19.123L13.8205 33.0961C12.7493 33.7125 12.7506 34.7202 13.8235 35.3458L31.4946 45.6493Z" fill="white"/>
<path d="M33.1195 47.0434C33.0483 47.0385 32.9774 47.0319 32.9069 47.0237C32.9065 47.0236 32.9061 47.0236 32.9058 47.0235C32.9057 47.0236 32.9057 47.0235 32.9056 47.0236C32.8582 47.018 32.8109 47.0118 32.764 47.0048C32.7259 46.9992 32.6882 46.993 32.6505 46.9864C32.6496 46.9862 32.6486 46.9861 32.6476 46.9859C32.6471 46.9858 32.6465 46.9858 32.646 46.9857C32.6078 46.979 32.5698 46.9717 32.5321 46.964C32.495 46.9564 32.4582 46.9484 32.4215 46.9399C32.4156 46.9385 32.4098 46.9369 32.4039 46.9356C32.3977 46.9341 32.3916 46.9325 32.3854 46.9309C32.3599 46.9248 32.3345 46.9188 32.3094 46.9121C32.2719 46.9023 32.2348 46.892 32.1981 46.8811C32.1868 46.8778 32.1758 46.8741 32.1646 46.8707C32.1564 46.8682 32.1482 46.8656 32.1399 46.863C32.1221 46.8574 32.1041 46.8521 32.0864 46.8463C32.0498 46.8343 32.0137 46.8217 31.9779 46.8086C31.9623 46.803 31.9473 46.7968 31.9318 46.791C31.9239 46.788 31.9161 46.785 31.9083 46.7819C31.8967 46.7774 31.8849 46.7732 31.8735 46.7685C31.8401 46.755 31.807 46.7411 31.7745 46.7267C31.7509 46.7162 31.7278 46.7053 31.7046 46.6944C31.7006 46.6925 31.6965 46.6907 31.6925 46.6888C31.6884 46.6868 31.6842 46.6851 31.6802 46.683C31.6503 46.6686 31.6208 46.6537 31.5917 46.6384C31.5632 46.6233 31.5349 46.6078 31.5071 46.592C31.5007 46.5883 31.4942 46.5846 31.488 46.5808L13.8168 36.2774C13.7961 36.2653 13.7759 36.2531 13.756 36.2408C13.7302 36.2248 13.705 36.2086 13.6806 36.1921C13.6646 36.1813 13.6494 36.1703 13.6338 36.1594C13.6303 36.1568 13.6265 36.1543 13.6229 36.1517C13.6185 36.1485 13.6137 36.1453 13.6093 36.1421C13.5861 36.1252 13.5636 36.1082 13.5419 36.0909C13.5196 36.0732 13.4981 36.0554 13.4773 36.0373C13.4735 36.0342 13.4702 36.0309 13.4666 36.0277C13.4635 36.025 13.4606 36.0223 13.4574 36.0195C13.4437 36.0071 13.4296 35.9948 13.4164 35.9823C13.3959 35.9629 13.3762 35.9432 13.3572 35.9235C13.3479 35.9138 13.3395 35.904 13.3306 35.8943C13.3267 35.89 13.3229 35.8858 13.319 35.8816C13.3135 35.8753 13.3075 35.8692 13.3021 35.863C13.283 35.8408 13.2648 35.8184 13.2476 35.7959C13.2369 35.7819 13.2273 35.7677 13.2173 35.7536C13.2139 35.7487 13.2103 35.744 13.207 35.7391C13.2037 35.7344 13.2 35.7298 13.1969 35.7251C13.1797 35.6993 13.1637 35.6733 13.1489 35.6471C13.1422 35.6355 13.137 35.6236 13.1309 35.6119C13.1262 35.6029 13.1215 35.5939 13.1171 35.5848C13.1126 35.5755 13.1071 35.5663 13.1029 35.557C13.0869 35.522 13.073 35.4868 13.0613 35.4514C13.061 35.4507 13.061 35.4499 13.0607 35.4492C13.058 35.441 13.0569 35.4327 13.0544 35.4245C13.0433 35.3879 13.0329 35.3513 13.0262 35.3145C13.0257 35.3114 13.026 35.3084 13.0254 35.3054C13.0161 35.2507 13.0108 35.196 13.0113 35.1412L13.0179 34.2096C13.0174 34.2644 13.0228 34.3191 13.0321 34.3737C13.0388 34.4136 13.049 34.4533 13.061 34.4929C13.0635 34.5011 13.0646 34.5094 13.0673 34.5176C13.0824 34.5632 13.1017 34.6084 13.1237 34.6532C13.1281 34.6622 13.1327 34.6713 13.1375 34.6803C13.1599 34.7231 13.1848 34.7656 13.2135 34.8075C13.2168 34.8123 13.2205 34.8171 13.2239 34.822C13.2545 34.8653 13.2882 34.908 13.3256 34.95C13.3294 34.9542 13.3334 34.9584 13.3372 34.9627C13.376 35.0052 13.4181 35.0471 13.4641 35.0879C13.4671 35.0907 13.4701 35.0934 13.4732 35.0961C13.5214 35.1385 13.5735 35.1799 13.6295 35.2201C13.6331 35.2227 13.6368 35.2252 13.6404 35.2278C13.6976 35.2684 13.7582 35.3079 13.8233 35.3458L31.4945 45.6492C31.5601 45.6876 31.6286 45.7235 31.699 45.7571C31.703 45.759 31.7071 45.7608 31.7111 45.7627C31.7771 45.794 31.8452 45.8231 31.9149 45.8503C31.9226 45.8533 31.9304 45.8563 31.9381 45.8593C32.0061 45.8853 32.0756 45.9093 32.1463 45.9314C32.1546 45.934 32.1628 45.9366 32.171 45.9391C32.2434 45.9611 32.3171 45.9812 32.3919 45.9993C32.398 46.0008 32.4042 46.0024 32.4105 46.0039C32.4905 46.023 32.5719 46.0398 32.6541 46.0543C32.6551 46.0544 32.6561 46.0546 32.6569 46.0548C32.7412 46.0695 32.8263 46.0819 32.9123 46.0919C32.9126 46.092 32.9131 46.092 32.9134 46.092C32.9727 46.0989 33.0325 46.1033 33.0923 46.1078L33.1282 47.0438C33.1252 47.0437 33.1225 47.0436 33.1195 47.0434Z" fill="#C1DBF6"/>
<path d="M35.295 46.64C35.2674 46.6547 35.2395 46.669 35.2112 46.6829C35.1982 46.6892 35.1849 46.6952 35.1718 46.7013C35.1663 46.704 35.1607 46.7066 35.155 46.7093C35.1451 46.7139 35.1353 46.7188 35.1253 46.7233C35.0962 46.7364 35.0669 46.7491 35.0371 46.7614C35.0069 46.774 34.9763 46.7861 34.9453 46.7979C34.9444 46.7982 34.9433 46.7986 34.9424 46.7989C34.9413 46.7994 34.9402 46.7997 34.9391 46.8002C34.9101 46.8111 34.8809 46.8217 34.8514 46.832C34.8189 46.8432 34.7861 46.854 34.753 46.8645C34.7411 46.8682 34.7291 46.8716 34.7171 46.8752C34.7102 46.8773 34.7034 46.8793 34.6965 46.8813C34.6818 46.8857 34.6674 46.8903 34.6526 46.8944C34.6185 46.9042 34.584 46.9134 34.5494 46.9221C34.5239 46.9286 34.4982 46.9346 34.4725 46.9406C34.4679 46.9416 34.4633 46.9429 34.4586 46.9439C34.4541 46.945 34.4496 46.9461 34.4451 46.9472C34.4108 46.9549 34.3763 46.9622 34.3415 46.9692C34.3073 46.976 34.2727 46.9824 34.2381 46.9884C34.2318 46.9895 34.2253 46.9904 34.2188 46.9915C34.2134 46.9924 34.208 46.9932 34.2026 46.9941C34.181 46.9977 34.1593 47.0014 34.1375 47.0046C34.104 47.0096 34.0702 47.0143 34.0364 47.0185C34.0118 47.0216 33.9871 47.0243 33.9625 47.027C33.9585 47.0275 33.9545 47.028 33.9504 47.0284C33.9456 47.0289 33.9408 47.0296 33.936 47.03C33.9018 47.0336 33.8675 47.0367 33.8331 47.0395C33.7951 47.0426 33.7571 47.0452 33.719 47.0474C33.7132 47.0477 33.7073 47.0478 33.7015 47.0481C33.694 47.0485 33.6865 47.0487 33.679 47.0491C33.6485 47.0506 33.618 47.0521 33.5875 47.053C33.5493 47.0541 33.5112 47.0537 33.473 47.0539C33.4534 47.054 33.4338 47.0545 33.4142 47.0544C33.4065 47.0543 33.3987 47.0547 33.3911 47.0546C33.3573 47.0542 33.3238 47.0516 33.2901 47.0504C33.241 47.0488 33.192 47.0476 33.1432 47.0444C33.1382 47.0441 33.1333 47.0439 33.1283 47.0438L33.0924 46.1078C33.1116 46.1092 33.1306 46.1116 33.1498 46.1128C33.1986 46.116 33.2477 46.1172 33.2967 46.1189C33.3381 46.1202 33.3794 46.1225 33.4208 46.1228C33.4403 46.123 33.4598 46.1224 33.4793 46.1223C33.5482 46.1221 33.6172 46.1208 33.6858 46.1175C33.6932 46.1171 33.7006 46.117 33.708 46.1165C33.7914 46.1121 33.8745 46.1056 33.957 46.0968C33.9611 46.0964 33.965 46.0959 33.969 46.0954C34.0499 46.0866 34.1301 46.0756 34.2095 46.0625C34.2148 46.0616 34.22 46.0608 34.2252 46.06C34.3062 46.0463 34.3863 46.0304 34.4653 46.0123C34.4699 46.0113 34.4745 46.0101 34.4791 46.009C34.5549 45.9914 34.6297 45.9715 34.703 45.9498C34.7099 45.9477 34.7169 45.9457 34.7238 45.9436C34.7993 45.9207 34.8734 45.8959 34.9457 45.8685C34.9468 45.8682 34.9479 45.8678 34.9489 45.8674C35.0217 45.8399 35.0926 45.8098 35.1616 45.7777C35.1673 45.7751 35.1728 45.7724 35.1784 45.7698C35.2472 45.7373 35.3141 45.7029 35.3784 45.6659L59.6613 31.6928C59.7254 31.656 59.7852 31.6175 59.8416 31.578C59.8468 31.5744 59.8518 31.5707 59.8569 31.567C59.9083 31.5303 59.9564 31.4925 60.0013 31.4539C60.0074 31.4487 60.0133 31.4435 60.0192 31.4384C60.0622 31.4003 60.1021 31.3614 60.1388 31.3218C60.1458 31.3144 60.1523 31.3068 60.1591 31.2992C60.1931 31.2611 60.2245 31.2224 60.2528 31.1831C60.2559 31.1788 60.2597 31.1745 60.2628 31.1701C60.2944 31.1251 60.322 31.0794 60.3461 31.0332C60.3804 30.9675 60.4049 30.9005 60.4242 30.8331C60.4288 30.8169 60.4329 30.8006 60.4367 30.7843C60.4523 30.7163 60.4633 30.6478 60.4637 30.5793L60.4571 31.5109C60.4567 31.5794 60.4457 31.6477 60.43 31.7158C60.4262 31.7322 60.4222 31.7485 60.4175 31.7648C60.3983 31.8321 60.3738 31.899 60.3396 31.9647C60.339 31.9657 60.3389 31.9667 60.3384 31.9677C60.3154 32.0116 60.2889 32.055 60.2592 32.0977C60.2582 32.0991 60.257 32.1004 60.2561 32.1018C60.253 32.1061 60.2495 32.1102 60.2465 32.1144C60.2274 32.1409 60.2078 32.1673 60.1861 32.1933C60.1756 32.2059 60.1637 32.2183 60.1525 32.2308C60.1457 32.2384 60.1391 32.2459 60.1322 32.2534C60.126 32.2601 60.1205 32.267 60.1141 32.2736C60.0908 32.2979 60.0663 32.3218 60.0406 32.3455C60.0316 32.3538 60.0218 32.3618 60.0125 32.37C60.0066 32.3752 60.0008 32.3803 59.9947 32.3855C59.9855 32.3935 59.9769 32.4015 59.9674 32.4094C59.9436 32.429 59.919 32.4485 59.8936 32.4676C59.8796 32.4781 59.8648 32.4883 59.8504 32.4986C59.8453 32.5023 59.8402 32.506 59.8351 32.5096C59.8289 32.5139 59.8232 32.5183 59.817 32.5225C59.7922 32.5396 59.7665 32.5565 59.7402 32.573C59.714 32.5895 59.6871 32.6057 59.6596 32.6216C59.6579 32.6226 59.6564 32.6235 59.6548 32.6244L35.3717 46.5975C35.3466 46.612 35.3209 46.6262 35.295 46.64Z" fill="#FBDBD0"/>
<path d="M40.0242 18.6656C40.7339 18.6656 41.4455 18.8238 41.9872 19.1397L59.6582 29.4431C60.2478 29.7868 60.5118 30.2458 60.454 30.692C60.4597 30.6545 60.4635 30.6169 60.4638 30.5793L60.4572 31.5109C60.4568 31.5794 60.4458 31.6477 60.4301 31.7158C60.4263 31.7322 60.4222 31.7485 60.4176 31.7648C60.3984 31.8321 60.3739 31.8991 60.3397 31.9647C60.3391 31.9657 60.339 31.9667 60.3384 31.9677C60.3154 32.0116 60.2889 32.055 60.2593 32.0977C60.2582 32.0991 60.2571 32.1004 60.2562 32.1017C60.2531 32.1061 60.2495 32.1101 60.2465 32.1143C60.2275 32.1408 60.2079 32.1672 60.1862 32.1932C60.1757 32.2059 60.1637 32.2183 60.1525 32.2309C60.1458 32.2383 60.1392 32.2459 60.1323 32.2534C60.1261 32.2601 60.1205 32.267 60.1142 32.2736C60.0909 32.2978 60.0664 32.3218 60.0407 32.3455C60.0317 32.3537 60.0219 32.3618 60.0126 32.37C60.0067 32.3752 60.0008 32.3803 59.9948 32.3856C59.9856 32.3935 59.9769 32.4015 59.9674 32.4093C59.9437 32.429 59.9191 32.4485 59.8936 32.4676C59.8797 32.4781 59.8648 32.4884 59.8504 32.4986C59.8453 32.5023 59.8402 32.506 59.8351 32.5096C59.829 32.5139 59.8232 32.5183 59.8171 32.5225C59.7922 32.5396 59.7665 32.5564 59.7402 32.5729C59.714 32.5895 59.6872 32.6057 59.6596 32.6216C59.658 32.6225 59.6564 32.6234 59.6548 32.6244L59.2673 32.8474L59.2244 38.8813L59.6382 39.1226C60.2277 39.4663 60.4916 39.9252 60.4341 40.3713C60.4397 40.3339 60.4435 40.2964 60.4438 40.2588L60.4372 41.1904C60.4367 41.259 60.4257 41.3273 60.4101 41.3953C60.4062 41.4117 60.4023 41.4279 60.3976 41.4443C60.3784 41.5116 60.3539 41.5785 60.3196 41.6442C60.3191 41.6452 60.3189 41.6463 60.3184 41.6473C60.2953 41.6911 60.269 41.7345 60.2391 41.7772C60.2382 41.7786 60.2371 41.7799 60.2361 41.7812C60.2331 41.7856 60.2294 41.7898 60.2263 41.7941C60.2073 41.8205 60.1878 41.8469 60.1662 41.8728C60.1556 41.8855 60.1437 41.8979 60.1325 41.9104C60.1257 41.918 60.1192 41.9255 60.1123 41.9329C60.1061 41.9396 60.1005 41.9465 60.0942 41.9531C60.0707 41.9775 60.0464 42.0013 60.0207 42.025C60.0116 42.0333 60.0019 42.0412 59.9927 42.0493C59.9867 42.0547 59.9806 42.0599 59.9745 42.0652C59.9654 42.0731 59.9568 42.081 59.9474 42.0888C59.9237 42.1085 59.899 42.1279 59.8736 42.1471C59.8596 42.1576 59.8447 42.1679 59.8302 42.1782C59.8252 42.1818 59.8202 42.1855 59.8152 42.1889C59.809 42.1933 59.8032 42.1978 59.797 42.202C59.7721 42.2191 59.7465 42.2359 59.7201 42.2526C59.694 42.269 59.6672 42.2852 59.6395 42.3011C59.638 42.302 59.6363 42.303 59.6347 42.3039L35.3518 56.277C35.3265 56.2915 35.301 56.3057 35.275 56.3195C35.2475 56.3341 35.2195 56.3484 35.1911 56.3624C35.1782 56.3687 35.165 56.3746 35.1519 56.3809C35.1462 56.3836 35.1407 56.3861 35.1351 56.3888C35.125 56.3935 35.1153 56.3983 35.1052 56.4029C35.0762 56.4159 35.0469 56.4286 35.0172 56.4409C34.9869 56.4534 34.9562 56.4657 34.9254 56.4773C34.9244 56.4778 34.9235 56.4781 34.9226 56.4783C34.9212 56.4789 34.9198 56.4793 34.9184 56.4799C34.8897 56.4907 34.8608 56.5013 34.8315 56.5115C34.799 56.5228 34.7662 56.5336 34.7331 56.544C34.7213 56.5476 34.7092 56.551 34.6974 56.5547C34.6904 56.5568 34.6833 56.5588 34.6763 56.5609C34.6618 56.5653 34.6473 56.5699 34.6326 56.574C34.5985 56.5837 34.5641 56.5928 34.5294 56.6017C34.504 56.6081 34.4784 56.614 34.4527 56.6201C34.448 56.6212 34.4434 56.6223 34.4386 56.6234C34.4341 56.6245 34.4296 56.6257 34.4251 56.6267C34.3909 56.6344 34.3563 56.6417 34.3216 56.6487C34.2873 56.6555 34.2528 56.6619 34.2182 56.6679C34.2118 56.669 34.2052 56.67 34.1988 56.671C34.1935 56.6719 34.1881 56.6728 34.1828 56.6737C34.1611 56.6772 34.1394 56.6809 34.1176 56.6841C34.084 56.6892 34.0502 56.6939 34.0164 56.6981C33.9921 56.7011 33.9675 56.7038 33.943 56.7065C33.9387 56.7069 33.9344 56.7075 33.9301 56.7079C33.9254 56.7084 33.9208 56.709 33.916 56.7096C33.8818 56.7131 33.8475 56.7163 33.8131 56.7191C33.7751 56.7222 33.7371 56.7247 33.699 56.7269C33.6933 56.7272 33.6875 56.7273 33.6817 56.7276C33.6741 56.728 33.6664 56.7282 33.6587 56.7286C33.6283 56.7301 33.598 56.7317 33.5675 56.7326C33.5294 56.7336 33.4913 56.7332 33.4532 56.7334C33.4357 56.7336 33.4183 56.7339 33.4008 56.7339H33.3942C33.3865 56.7339 33.3788 56.7341 33.3711 56.7341C33.3376 56.7337 33.3042 56.7311 33.2706 56.73C33.2397 56.7289 33.2089 56.7274 33.1779 56.7261C33.1596 56.7253 33.1412 56.7251 33.1229 56.7239C33.1152 56.7234 33.1074 56.7234 33.0996 56.7228C33.0296 56.718 32.9599 56.7115 32.8907 56.7035C32.8887 56.7032 32.8867 56.7031 32.8848 56.7029C32.8376 56.6974 32.7907 56.6911 32.7439 56.6843C32.706 56.6786 32.6681 56.6725 32.6306 56.6659C32.6296 56.6657 32.6286 56.6656 32.6276 56.6655C32.6271 56.6652 32.6266 56.6652 32.626 56.6651C32.5878 56.6584 32.5498 56.6512 32.5121 56.6435C32.475 56.6359 32.4381 56.6278 32.4015 56.6193C32.3957 56.618 32.3899 56.6164 32.384 56.615C32.3777 56.6136 32.3715 56.6119 32.3653 56.6104C32.3399 56.6043 32.3145 56.5983 32.2894 56.5917C32.252 56.5817 32.2148 56.5715 32.178 56.5607C32.1669 56.5573 32.156 56.5536 32.145 56.5503C32.1364 56.5476 32.128 56.5449 32.1195 56.5424C32.1018 56.5368 32.0839 56.5315 32.0664 56.5257C32.0299 56.5138 31.9936 56.5012 31.9579 56.4881C31.9424 56.4824 31.9272 56.4763 31.9119 56.4704C31.904 56.4675 31.8962 56.4644 31.8883 56.4613C31.8768 56.4569 31.865 56.4526 31.8535 56.448C31.82 56.4345 31.7871 56.4206 31.7545 56.4062C31.7312 56.3958 31.7083 56.3849 31.6853 56.3742C31.681 56.372 31.6765 56.3701 31.6723 56.368C31.6683 56.3662 31.6642 56.3644 31.6602 56.3625C31.6304 56.348 31.6009 56.3332 31.5718 56.3179C31.5432 56.3028 31.5149 56.2873 31.4872 56.2714C31.4807 56.2678 31.4744 56.2641 31.468 56.2603L13.7968 45.9569C13.7762 45.9448 13.756 45.9327 13.7361 45.9204C13.7103 45.9044 13.6852 45.8881 13.6607 45.8716C13.6447 45.8609 13.6295 45.8498 13.614 45.839C13.6104 45.8363 13.6066 45.8339 13.603 45.8312C13.5985 45.8281 13.5937 45.8248 13.5893 45.8216C13.5662 45.8047 13.5438 45.7877 13.522 45.7704C13.4997 45.7527 13.4782 45.7349 13.4573 45.7169C13.4537 45.7138 13.4505 45.7105 13.4469 45.7074C13.4436 45.7045 13.4405 45.7016 13.4373 45.6987C13.4235 45.6864 13.4097 45.6743 13.3966 45.6618C13.376 45.6425 13.3563 45.6228 13.3373 45.603C13.3281 45.5934 13.3196 45.5835 13.3107 45.5737C13.3069 45.5696 13.303 45.5654 13.2993 45.5612C13.2937 45.555 13.2877 45.5487 13.2823 45.5425C13.2632 45.5203 13.245 45.498 13.2278 45.4754C13.2171 45.4615 13.2074 45.4473 13.1974 45.4331C13.1941 45.4282 13.1905 45.4234 13.1871 45.4186C13.1839 45.4139 13.1802 45.4093 13.1771 45.4045C13.1598 45.3788 13.1438 45.3528 13.1291 45.3265C13.1224 45.3149 13.1172 45.3031 13.111 45.2913C13.1064 45.2823 13.1016 45.2734 13.0972 45.2643C13.0927 45.2551 13.0873 45.2458 13.083 45.2365C13.0671 45.2015 13.0532 45.1662 13.0414 45.1308C13.0412 45.1302 13.0411 45.1295 13.0409 45.1287C13.0382 45.1206 13.0371 45.1123 13.0346 45.1042C13.0235 45.0676 13.013 45.031 13.0063 44.994C13.0058 44.9909 13.0061 44.9878 13.0055 44.9848C12.9963 44.9302 12.991 44.8755 12.9914 44.8208L12.998 43.8893C12.998 43.8905 12.9983 43.8917 12.9983 43.8929C12.9995 43.4871 13.2668 43.0828 13.8005 42.7756L14.0179 42.6505L14.0622 36.4205L13.8169 36.2774C13.7963 36.2653 13.7761 36.2532 13.7562 36.2409C13.7304 36.2248 13.7052 36.2086 13.6808 36.1921C13.6648 36.1813 13.6495 36.1703 13.634 36.1594C13.6305 36.1568 13.6267 36.1543 13.6231 36.1517C13.6186 36.1484 13.6139 36.1453 13.6094 36.1421C13.5863 36.1252 13.5638 36.1082 13.5421 36.0909C13.5198 36.0732 13.4983 36.0554 13.4774 36.0373C13.4737 36.0342 13.4704 36.0309 13.4668 36.0277C13.4637 36.025 13.4607 36.0222 13.4576 36.0196C13.4438 36.0072 13.4298 35.9949 13.4166 35.9823C13.396 35.9628 13.3763 35.9432 13.3573 35.9235C13.3481 35.9139 13.3396 35.904 13.3307 35.8943C13.3269 35.8901 13.3231 35.8859 13.3192 35.8816C13.3137 35.8754 13.3077 35.8692 13.3023 35.863C13.2832 35.8409 13.265 35.8185 13.2478 35.7959C13.2371 35.782 13.2275 35.7677 13.2175 35.7536C13.2141 35.7487 13.2104 35.744 13.2072 35.7391C13.2038 35.7344 13.2002 35.7298 13.1971 35.725C13.1799 35.6992 13.1639 35.6732 13.149 35.6471C13.1424 35.6354 13.1372 35.6236 13.1311 35.6119C13.1263 35.6029 13.1217 35.5939 13.1173 35.5848C13.1127 35.5755 13.1072 35.5663 13.103 35.5569C13.087 35.522 13.0732 35.4867 13.0614 35.4513C13.0612 35.4507 13.0611 35.4499 13.0609 35.4492C13.0582 35.441 13.0571 35.4327 13.0546 35.4244C13.0435 35.3879 13.033 35.3514 13.0264 35.3145C13.0258 35.3115 13.0261 35.3084 13.0256 35.3054C13.0163 35.2508 13.011 35.196 13.0114 35.1412L13.018 34.2096C13.0181 34.2106 13.0183 34.2116 13.0183 34.2127V34.2133C13.0183 34.213 13.0183 34.2128 13.0183 34.2127C13.0199 33.807 13.2871 33.403 13.8205 33.0961L38.1034 19.123C38.6338 18.8178 39.3281 18.6656 40.0242 18.6656ZM40.0242 17.7512C39.1407 17.7512 38.2966 17.9569 37.6474 18.3306L13.3645 32.3037C12.5686 32.7616 12.1094 33.4536 12.104 34.2031H12.1038L12.0971 35.1347C12.0965 35.2191 12.1023 35.3068 12.1146 35.396L12.1155 35.4169L12.1286 35.4873C12.1397 35.5493 12.1559 35.6099 12.1714 35.6626L12.1816 35.7113L12.2023 35.7646C12.2226 35.8232 12.2459 35.8813 12.2718 35.9377C12.2787 35.9534 12.2896 35.9752 12.3013 35.9974C12.3068 36.0084 12.3121 36.0189 12.3175 36.0291C12.3295 36.0536 12.341 36.0758 12.3537 36.0982C12.3782 36.1413 12.4043 36.1839 12.4323 36.2261L12.4448 36.2455L12.4625 36.2698C12.4656 36.2741 12.4688 36.2786 12.472 36.2829L12.4765 36.2894C12.4912 36.3106 12.5063 36.3316 12.5222 36.3524C12.5496 36.3882 12.5793 36.4248 12.6105 36.4608C12.6197 36.4716 12.6304 36.4834 12.6413 36.4951L12.6327 36.4855L12.6536 36.5087C12.6718 36.529 12.6848 36.5433 12.6985 36.5575C12.7271 36.5872 12.7568 36.6169 12.7878 36.6461C12.8021 36.6599 12.8201 36.6761 12.8382 36.6923L12.8451 36.6985L12.8505 36.7032L12.8565 36.7085C12.8613 36.7129 12.8709 36.7216 12.8818 36.731C12.9118 36.7569 12.9426 36.7825 12.9745 36.8077C13.0042 36.8313 13.0371 36.8563 13.0709 36.881L13.0796 36.8874L13.0898 36.8945L13.0958 36.8986L13.1002 36.9019L13.1067 36.9063C13.1214 36.9168 13.1333 36.9252 13.1441 36.9327L13.1071 42.1333C12.4577 42.5857 12.0886 43.2111 12.0839 43.8828H12.0835L12.0769 44.8142C12.0764 44.8986 12.0822 44.9853 12.0942 45.0733L12.0944 45.08L12.1033 45.1381L12.1048 45.1473L12.1065 45.1565C12.1194 45.2277 12.1358 45.2891 12.1522 45.3447C12.1537 45.3509 12.1554 45.3572 12.1571 45.3634L12.1638 45.3897L12.1744 45.4213C12.1962 45.4864 12.2217 45.5513 12.2503 45.6142C12.2618 45.6392 12.2713 45.6581 12.2809 45.6764C12.2857 45.6859 12.291 45.6962 12.2964 45.7065C12.3096 45.7333 12.322 45.7572 12.3357 45.7811C12.3565 45.8182 12.3834 45.8622 12.4126 45.9062L12.4232 45.9226L12.4408 45.9469L12.4432 45.9503L12.4474 45.9561L12.4502 45.9601C12.4703 45.9888 12.4859 46.0104 12.5024 46.032C12.5292 46.067 12.5583 46.1028 12.589 46.1384C12.5996 46.1508 12.6097 46.162 12.62 46.1732L12.6388 46.1937C12.6502 46.2067 12.664 46.2218 12.6785 46.2369C12.7056 46.2655 12.7376 46.2973 12.771 46.3286C12.7855 46.3424 12.8055 46.3604 12.8258 46.3785L12.8309 46.383C12.8393 46.3908 12.8476 46.3983 12.8561 46.4058C12.8908 46.4357 12.9222 46.4615 12.9546 46.4872C12.9853 46.5115 13.0176 46.5362 13.051 46.5605C13.0557 46.564 13.0613 46.568 13.0672 46.5721L13.0685 46.5732L13.0771 46.5791L13.0778 46.5796L13.0899 46.5881L13.1 46.5952C13.1174 46.6075 13.1349 46.6198 13.1529 46.6319C13.1835 46.6525 13.2191 46.6756 13.2558 46.6983C13.2819 46.7143 13.3084 46.7303 13.3356 46.7461L31.0074 57.05C31.0136 57.0538 31.0249 57.0603 31.0372 57.0672C31.0731 57.0878 31.1095 57.1077 31.1464 57.1272C31.1838 57.1468 31.222 57.166 31.2607 57.1849L31.2747 57.1916L31.2878 57.1976L31.2886 57.1979L31.2992 57.2028L31.3153 57.2104C31.3375 57.2208 31.3597 57.2311 31.3821 57.2411C31.4268 57.2609 31.4684 57.2785 31.5107 57.2956L31.5529 57.3119C31.5623 57.3156 31.5742 57.3201 31.5866 57.3247L31.5929 57.3273L31.6422 57.346C31.6898 57.3635 31.736 57.3795 31.7825 57.3947C31.7957 57.3991 31.8136 57.4047 31.8316 57.4102L31.8445 57.4142L31.8662 57.4209L31.8707 57.4224L31.8802 57.4253L31.9141 57.436C31.9644 57.4508 32.0093 57.4632 32.0545 57.4753C32.0839 57.483 32.1108 57.4895 32.1378 57.4961L32.15 57.499L32.164 57.5023L32.1967 57.5103C32.2393 57.5202 32.2838 57.53 32.3287 57.5391L32.3451 57.5425L32.376 57.5568L32.4986 57.5708C32.535 57.5771 32.5716 57.5829 32.6083 57.5884C32.6605 57.596 32.7099 57.6026 32.7593 57.6085L32.7605 57.6088L32.7812 57.6111L32.7889 57.612L32.7897 57.6121C32.8716 57.6215 32.9541 57.6292 33.0369 57.6349C33.0486 57.6357 33.0622 57.6363 33.0762 57.6369C33.0903 57.6377 33.1098 57.6385 33.1293 57.6391L33.1615 57.6404L33.2374 57.6436L33.2648 57.6449C33.2961 57.6464 33.3274 57.6479 33.3587 57.6482L33.3648 57.6483H33.3709L33.3961 57.6481L33.4419 57.6477L33.4582 57.6476L33.4884 57.6475C33.5228 57.6475 33.5571 57.6473 33.5915 57.6464C33.6256 57.6454 33.6571 57.6439 33.6886 57.6425L33.702 57.6418L33.6738 56.7279L33.7217 57.6409L33.7282 57.6407L33.7346 57.6402L33.7435 57.6399L33.752 57.6394C33.7959 57.637 33.842 57.6339 33.888 57.6301C33.9282 57.6268 33.9695 57.623 34.0107 57.6188L34.0175 57.6181L34.0243 57.6172L34.0366 57.6158C34.0729 57.6118 34.1008 57.6088 34.1285 57.6053C34.171 57.6 34.2118 57.5944 34.2524 57.5882L34.3188 57.5776L34.331 57.5756L34.3511 57.5723L34.3737 57.5686C34.4147 57.5617 34.4573 57.5537 34.4995 57.5453C34.5423 57.5367 34.584 57.5279 34.6253 57.5186L34.6552 57.5115L34.6726 57.5074C34.7003 57.501 34.7278 57.4944 34.7552 57.4875C34.7976 57.4766 34.8405 57.4652 34.8829 57.4532L34.9291 57.4395L34.9298 57.4392L34.9402 57.4361L34.9621 57.4296L35.0058 57.4165C35.0483 57.4031 35.0897 57.3895 35.1309 57.3752C35.1542 57.367 35.1773 57.3588 35.2003 57.3503L35.2355 57.3409L35.2806 57.3201C35.3094 57.309 35.338 57.2974 35.3662 57.2858C35.4064 57.269 35.4434 57.2531 35.48 57.2366L35.5167 57.2195L35.5172 57.2193L35.5297 57.2133L35.531 57.2127L35.5424 57.2073L35.5527 57.2025C35.5674 57.1957 35.5821 57.1888 35.5964 57.1817C35.6307 57.1648 35.667 57.1463 35.7028 57.1273C35.7399 57.1076 35.7736 57.0888 35.8069 57.0697L60.0811 43.1016L60.0849 43.0995L60.1011 43.0901C60.1344 43.0708 60.171 43.0487 60.2066 43.0264C60.2439 43.0028 60.2792 42.9796 60.3135 42.9561C60.3248 42.9485 60.3363 42.9402 60.3478 42.9319L60.3598 42.9233L60.3714 42.915C60.3881 42.9032 60.4048 42.8912 60.4208 42.8792C60.4606 42.8493 60.4961 42.8213 60.5302 42.793C60.5449 42.7809 60.5584 42.769 60.5719 42.7571L60.6032 42.7296C60.6113 42.7229 60.6246 42.7113 60.6374 42.6997C60.6795 42.6609 60.717 42.6241 60.753 42.5868C60.7662 42.573 60.7799 42.5579 60.7934 42.5425L60.7835 42.5534L60.8113 42.5225C60.8348 42.4969 60.8522 42.4774 60.8685 42.4579C60.9003 42.4196 60.9298 42.381 60.9581 42.342C60.9606 42.3388 60.963 42.3356 60.9655 42.3323L60.978 42.3163L60.9913 42.2966C61.038 42.2293 61.081 42.1592 61.1193 42.088L61.1594 42.0175L61.1693 41.9871C61.2114 41.8959 61.2467 41.7996 61.2765 41.6953C61.2854 41.6644 61.2929 41.6342 61.3001 41.6038C61.3338 41.4571 61.3503 41.3252 61.3513 41.1971L61.3579 40.2652H61.3559C61.3616 39.5263 60.9211 38.8284 60.1423 38.3586L60.1777 33.3772C60.1945 33.3669 60.2112 33.3567 60.2277 33.3463C60.2635 33.3237 60.2997 33.3 60.3347 33.2759L60.3659 33.2537L60.3829 33.2416C60.4077 33.2241 60.4258 33.2111 60.4431 33.1981C60.4793 33.1709 60.5154 33.1424 60.5501 33.1137C60.5624 33.1036 60.5765 33.0914 60.5905 33.079L60.6067 33.0648L60.6092 33.0626L60.6196 33.0534C60.6326 33.0424 60.6454 33.0311 60.6577 33.0199C60.6995 32.9814 60.7371 32.9446 60.7729 32.9073C60.7858 32.8939 60.7995 32.8789 60.813 32.8635L60.8023 32.8753L60.8283 32.8465L60.839 32.8347C60.8561 32.816 60.8728 32.7972 60.8885 32.7783C60.9206 32.7398 60.9504 32.7007 60.979 32.6613C60.9795 32.6607 60.9801 32.66 60.9806 32.6593L60.9812 32.6586L60.9905 32.6462L61.0005 32.633L61.0099 32.6194C61.0576 32.5507 61.1011 32.4798 61.1395 32.4082L61.1798 32.3375L61.1896 32.307C61.2316 32.2159 61.2668 32.1199 61.2966 32.0158C61.3055 31.9846 61.3137 31.9523 61.3212 31.9197C61.354 31.7779 61.3705 31.6453 61.3713 31.5164L61.3779 30.5857H61.376C61.3818 29.8331 60.9247 29.1231 60.1185 28.6531L42.4476 18.3498C41.7856 17.9638 40.925 17.7512 40.0242 17.7512Z" fill="#374874"/>
<path d="M21.7192 41.7128L21.7108 44.0053L24.4204 45.5425L24.4288 43.2501L21.7192 41.7128Z" fill="#374874"/>
<path d="M20.4146 44.3466L20.4037 47.0371L25.7887 50.1462L25.7996 47.4557L20.4146 44.3466Z" fill="#374874"/>
<path d="M33.1195 47.0434C33.0483 47.0385 32.9774 47.0319 32.9069 47.0237C32.9065 47.0236 32.9061 47.0236 32.9058 47.0235C32.9057 47.0236 32.9057 47.0235 32.9056 47.0236C32.8582 47.018 32.8109 47.0118 32.764 47.0048C32.7259 46.9992 32.6882 46.993 32.6505 46.9864C32.6496 46.9862 32.6486 46.9861 32.6476 46.9859C32.6471 46.9858 32.6465 46.9858 32.646 46.9857C32.6078 46.979 32.5698 46.9717 32.5321 46.964C32.495 46.9564 32.4582 46.9484 32.4215 46.9399C32.4156 46.9385 32.4098 46.9369 32.4039 46.9356C32.3977 46.9341 32.3916 46.9325 32.3854 46.9309C32.3599 46.9248 32.3345 46.9188 32.3094 46.9121C32.2719 46.9023 32.2348 46.892 32.1981 46.8811C32.1868 46.8778 32.1758 46.8741 32.1646 46.8707C32.1564 46.8682 32.1482 46.8656 32.1399 46.863C32.1221 46.8574 32.1041 46.8521 32.0864 46.8463C32.0498 46.8343 32.0137 46.8217 31.9779 46.8086C31.9623 46.803 31.9473 46.7968 31.9318 46.791C31.9239 46.788 31.9161 46.785 31.9083 46.7819C31.8967 46.7774 31.8849 46.7732 31.8735 46.7685C31.8401 46.755 31.807 46.7411 31.7745 46.7267C31.7509 46.7162 31.7278 46.7053 31.7046 46.6944C31.7006 46.6925 31.6965 46.6907 31.6925 46.6888C31.6884 46.6868 31.6842 46.6851 31.6802 46.683C31.6503 46.6686 31.6208 46.6537 31.5917 46.6384C31.5632 46.6233 31.5349 46.6078 31.5071 46.592C31.5007 46.5883 31.4942 46.5846 31.488 46.5808L13.8168 36.2774C13.7961 36.2653 13.7759 36.2531 13.756 36.2408C13.7302 36.2248 13.705 36.2086 13.6806 36.1921C13.6646 36.1813 13.6494 36.1703 13.6338 36.1594C13.6303 36.1568 13.6265 36.1543 13.6229 36.1517C13.6185 36.1485 13.6137 36.1453 13.6093 36.1421C13.5861 36.1252 13.5636 36.1082 13.5419 36.0909C13.5196 36.0732 13.4981 36.0554 13.4773 36.0373C13.4735 36.0342 13.4702 36.0309 13.4666 36.0277C13.4635 36.025 13.4606 36.0223 13.4574 36.0195C13.4437 36.0071 13.4296 35.9948 13.4164 35.9823C13.3959 35.9629 13.3762 35.9432 13.3572 35.9235C13.3479 35.9138 13.3395 35.904 13.3306 35.8943C13.3267 35.89 13.3229 35.8858 13.319 35.8816C13.3135 35.8753 13.3075 35.8692 13.3021 35.863C13.283 35.8408 13.2648 35.8184 13.2476 35.7959C13.2369 35.7819 13.2273 35.7677 13.2173 35.7536C13.2139 35.7487 13.2103 35.744 13.207 35.7391C13.2037 35.7344 13.2 35.7298 13.1969 35.7251C13.1797 35.6993 13.1637 35.6733 13.1489 35.6471C13.1422 35.6355 13.137 35.6236 13.1309 35.6119C13.1262 35.6029 13.1215 35.5939 13.1171 35.5848C13.1126 35.5755 13.1071 35.5663 13.1029 35.557C13.0869 35.522 13.073 35.4868 13.0613 35.4514C13.061 35.4507 13.061 35.4499 13.0607 35.4492C13.058 35.441 13.0569 35.4327 13.0544 35.4245C13.0433 35.3879 13.0329 35.3513 13.0262 35.3145C13.0257 35.3114 13.026 35.3084 13.0254 35.3054C13.0161 35.2507 13.0108 35.196 13.0113 35.1412L13.0179 34.2096C13.0174 34.2644 13.0228 34.3191 13.0321 34.3737C13.0388 34.4136 13.049 34.4533 13.061 34.4929C13.0635 34.5011 13.0646 34.5094 13.0673 34.5176C13.0824 34.5632 13.1017 34.6084 13.1237 34.6532C13.1281 34.6622 13.1327 34.6713 13.1375 34.6803C13.1599 34.7231 13.1848 34.7656 13.2135 34.8075C13.2168 34.8123 13.2205 34.8171 13.2239 34.822C13.2545 34.8653 13.2882 34.908 13.3256 34.95C13.3294 34.9542 13.3334 34.9584 13.3372 34.9627C13.376 35.0052 13.4181 35.0471 13.4641 35.0879C13.4671 35.0907 13.4701 35.0934 13.4732 35.0961C13.5214 35.1385 13.5735 35.1799 13.6295 35.2201C13.6331 35.2227 13.6368 35.2252 13.6404 35.2278C13.6976 35.2684 13.7582 35.3079 13.8233 35.3458L31.4945 45.6492C31.5601 45.6876 31.6286 45.7235 31.699 45.7571C31.703 45.759 31.7071 45.7608 31.7111 45.7627C31.7771 45.794 31.8452 45.8231 31.9149 45.8503C31.9226 45.8533 31.9304 45.8563 31.9381 45.8593C32.0061 45.8853 32.0756 45.9093 32.1463 45.9314C32.1546 45.934 32.1628 45.9366 32.171 45.9391C32.2434 45.9611 32.3171 45.9812 32.3919 45.9993C32.398 46.0008 32.4042 46.0024 32.4105 46.0039C32.4905 46.023 32.5719 46.0398 32.6541 46.0543C32.6551 46.0544 32.6561 46.0546 32.6569 46.0548C32.7412 46.0695 32.8263 46.0819 32.9123 46.0919C32.9126 46.092 32.9131 46.092 32.9134 46.092C32.9727 46.0989 33.0325 46.1033 33.0923 46.1078L33.1282 47.0438C33.1252 47.0437 33.1225 47.0436 33.1195 47.0434Z" fill="#C1DBF6"/>
</svg>
