<svg width="64" height="64" viewBox="0 0 64 64" fill="none" xmlns="http://www.w3.org/2000/svg">
<path d="M60.4672 37.4016L60.7029 37.2647C60.7418 37.242 60.7404 37.1853 60.7004 37.1646L41.8295 27.4067C41.8279 27.4059 41.8264 27.405 41.8249 27.404L24.7612 16.4114C24.7431 16.3998 24.7201 16.3993 24.7015 16.4101L3.41754 28.779L3.7692 28.982L3.41754 29.1792L3.8729 29.3585L3.41754 29.6231L3.75224 29.8163L3.41754 30.0403L3.76796 30.2636L3.41754 30.4672L3.7422 30.6547L3.41754 30.8536L3.76707 31.1083L3.41754 31.3114L3.73912 31.4971L3.41754 31.6829L3.7223 31.8828C3.75779 31.9061 3.75638 31.9586 3.71967 31.9799L3.41754 32.1555L3.78954 32.3703L3.41754 32.6078L3.79382 32.7809L3.41754 32.9996L3.71642 33.1722C3.75297 33.1933 3.75478 33.2454 3.7198 33.269L3.41754 33.4729L3.78282 33.6314L3.41754 33.8437L3.7436 34.0319L3.41754 34.2025L3.74993 34.396C3.78778 34.418 3.78776 34.4727 3.74988 34.4947L3.41754 34.6878L3.77676 34.8952L3.41754 35.0854L3.80296 35.3079L3.41754 35.5319L3.76076 35.7301L3.41754 35.9296L3.80296 36.1521L3.41754 36.3761L39.45 57.1794C39.4677 57.1896 39.4895 57.1896 39.5072 57.1793L60.7929 44.8094L60.4493 44.6318L60.7928 44.4332L60.4752 44.2486C60.4373 44.2266 60.4373 44.1719 60.4752 44.1499L60.7929 43.9653L60.4492 43.7876L60.7928 43.5891L60.4624 43.4142C60.4228 43.3932 60.4217 43.3369 60.4604 43.3144L60.7929 43.1212L60.4153 42.926L60.7928 42.7062L60.4042 42.503L60.7928 42.2771L60.4769 42.1137L60.7928 41.9766L60.4354 41.7355C60.4005 41.7119 60.4022 41.6599 60.4387 41.6388L60.7928 41.4329L60.4639 41.2628L60.7928 41.1115L60.4432 40.8883C60.4072 40.8653 60.4083 40.8123 60.4453 40.7908L60.7928 40.5888L60.4499 40.4115L60.7928 40.1866L60.4116 39.9663L60.7928 39.7448L60.4818 39.5839L60.7928 39.3574L60.4102 39.123L60.7928 38.9006L60.4839 38.7409L60.7928 38.5441L60.4788 38.334C60.4438 38.3105 60.4454 38.2584 60.4819 38.2371L60.7928 38.0565L60.3826 37.8444L60.7928 37.683L60.4679 37.5008C60.4294 37.4792 60.429 37.4238 60.4672 37.4016Z" fill="#C1DBF6"/>
<path d="M24.7318 15.5485L3.41754 27.935L39.4786 48.7548L60.7929 36.3683L41.8271 26.5615L24.7318 15.5485Z" fill="white"/>
<path d="M29.2982 18.1909L6.67583 28.5951C6.67583 28.5951 17.0512 35.807 18.9558 36.9183C26.0118 41.0356 39.4786 48.7547 39.4786 48.7547L60.7928 36.3682L41.8271 26.5614L29.2982 18.1909Z" fill="#C1DBF6"/>
<path d="M7.80736 27.6839L24.8581 17.7751L56.6277 36.1173L39.577 46.0261L7.80736 27.6839ZM57.2099 36.0047L25.0504 17.4375C24.9433 17.3757 24.7683 17.3757 24.6619 17.4375L7.22391 27.5714C7.11753 27.6332 7.1181 27.7346 7.22521 27.7964L39.3847 46.3637C39.4918 46.4255 39.6668 46.4255 39.7732 46.3637L57.2112 36.2298C57.3176 36.168 57.317 36.0666 57.2099 36.0047Z" fill="#374874"/>
<path d="M50.5421 29.9571C48.0027 28.7259 45.3718 27.6674 42.9722 26.1788C40.2355 24.5206 37.7296 22.5316 35.2552 20.5108C31.7593 17.7631 28.5132 14.6491 25.9989 10.959C18.8725 14.7907 11.7932 18.5979 4.67075 22.4361C7.87888 26.8365 11.2878 30.5109 15.4737 33.7779C17.435 35.373 19.6983 36.9361 21.8159 38.3217C24.1756 39.9012 26.7503 41.3806 29.3568 42.5058C32.7752 44.019 35.9555 45.4352 39.4581 46.7626C47.0843 42.6486 54.6533 38.5328 62.2583 34.3772C58.1616 33.4217 54.3173 31.7515 50.5421 29.9571Z" fill="white"/>
<path d="M25.4096 38.1442C25.1216 37.9759 24.8388 37.8066 24.5596 37.6353C24.2804 37.464 24.0064 37.2896 23.7359 37.1152C23.4671 36.9399 23.2018 36.7645 22.9383 36.586C22.6765 36.4086 22.4164 36.2282 22.1617 36.0467C21.9051 35.8662 21.6521 35.6838 21.4008 35.5003C21.1477 35.3158 20.8998 35.1303 20.652 34.9448C20.4042 34.7572 20.1599 34.5696 19.9155 34.3801C19.6694 34.1915 19.4268 34.0009 19.1842 33.8103C18.9416 33.6177 18.699 33.4251 18.4581 33.2315C18.2155 33.0368 17.9729 32.8422 17.732 32.6465C17.4893 32.4498 17.2467 32.2532 17.0023 32.0534L16.0722 31.2962C15.8911 31.1492 15.71 31.0022 15.5271 30.8521C15.2827 30.6484 15.0382 30.4426 14.7956 30.2337C14.5546 30.0239 14.3119 29.811 14.0726 29.5961C13.8317 29.3801 13.5924 29.1612 13.3549 28.9391C13.1173 28.7151 12.8798 28.489 12.6457 28.2589C12.4116 28.0288 12.1775 27.7946 11.9452 27.5553C11.7128 27.3181 11.4822 27.0758 11.2533 26.8285C11.0244 26.5811 10.7972 26.3307 10.5717 26.0752C10.3445 25.8187 10.1208 25.5582 9.89875 25.2926C9.6767 25.027 9.45642 24.7563 9.24131 24.4806C9.02273 24.2048 8.80764 23.923 8.59601 23.6371C8.40554 23.3796 8.21681 23.119 8.03505 22.8605L25.165 13.6644C25.3413 13.8895 25.5176 14.1125 25.6938 14.3274C25.9265 14.6113 26.159 14.889 26.3934 15.1618C26.6294 15.4335 26.8672 15.7001 27.1067 15.9616C27.3444 16.2242 27.5857 16.4807 27.8286 16.7321C28.0698 16.9845 28.3127 17.2319 28.5591 17.4752C28.8038 17.7175 29.0502 17.9567 29.2982 18.1909C29.5463 18.4251 29.7944 18.6552 30.0442 18.8823C30.294 19.1074 30.5455 19.3294 30.7971 19.5493C31.0503 19.7683 31.3036 19.9832 31.5568 20.1941C31.7836 20.3816 32.0086 20.5662 32.2355 20.7496L33.8214 22.0392C34.0693 22.2389 34.3172 22.4386 34.5616 22.6363C34.8095 22.834 35.0556 23.0306 35.3035 23.2263C35.5497 23.4209 35.7975 23.6146 36.0454 23.8062C36.2932 23.9978 36.5428 24.1884 36.7924 24.3769C37.042 24.5655 37.2951 24.752 37.5481 24.9386C37.803 25.1241 38.0578 25.3076 38.3143 25.4901C38.5744 25.6725 38.8344 25.853 39.098 26.0314C39.3615 26.2098 39.6285 26.3862 39.8973 26.5616C40.1696 26.737 40.4418 26.9103 40.721 27.0817C40.9985 27.252 41.2813 27.4213 41.5693 27.5896C41.8572 27.7558 42.1522 27.9241 42.4471 28.0843C42.7544 28.2516 43.0598 28.4138 43.3582 28.5658C43.6724 28.7271 43.9918 28.8832 44.3077 29.0332C44.5341 29.1396 44.7639 29.2441 44.9938 29.3485L45.2921 29.4843C45.6185 29.6344 45.9483 29.7864 46.2765 29.9395C46.6064 30.0936 46.9363 30.2477 47.2698 30.4038L48.2753 30.8752C48.6122 31.0334 48.9544 31.1925 49.2966 31.3517C49.6422 31.5109 49.9914 31.6721 50.3424 31.8322C50.6968 31.9924 51.053 32.1536 51.418 32.3138C51.7812 32.475 52.1496 32.6352 52.525 32.7953C52.9005 32.9555 53.2829 33.1137 53.6741 33.2728C54.0864 33.4401 54.4793 33.5942 54.8722 33.7422C55.2861 33.9003 55.7105 34.0544 56.1244 34.2004C56.4541 34.316 56.7855 34.4285 57.1134 34.537L39.0868 44.2724C38.7272 44.1315 38.3729 43.9916 38.0239 43.8527C37.6152 43.6895 37.2134 43.5263 36.817 43.3641C36.4222 43.2029 36.0311 43.0417 35.6469 42.8805C35.2609 42.7203 34.882 42.5602 34.5065 42.402C34.1311 42.2418 33.7609 42.0827 33.3942 41.9256C33.0293 41.7674 32.6678 41.6093 32.3099 41.4531C31.952 41.295 31.5993 41.1399 31.2484 40.9838C30.8975 40.8277 30.5483 40.6725 30.2044 40.5185C29.8588 40.3634 29.5184 40.2093 29.178 40.0551L28.9902 39.969C28.7147 39.8443 28.441 39.7206 28.1742 39.5949C27.8566 39.4459 27.5337 39.2877 27.2125 39.1245C26.9036 38.9684 26.5946 38.8062 26.2944 38.6409C25.9942 38.4777 25.6975 38.3105 25.4096 38.1442ZM25.4524 13.2845C25.415 13.2629 25.3676 13.2474 25.3131 13.2406C25.2273 13.2315 25.1364 13.2457 25.0701 13.2802L7.52134 22.7013C7.43932 22.7469 7.41171 22.8159 7.4558 22.8777C7.65873 23.1707 7.87215 23.4677 8.09087 23.7617C8.30426 24.0506 8.52115 24.3335 8.74147 24.6123C8.96006 24.8901 9.18038 25.1628 9.40588 25.4304C9.6279 25.6981 9.85516 25.9606 10.0824 26.2191C10.3078 26.4766 10.5368 26.7301 10.7692 26.9794C10.9999 27.2278 11.2323 27.4711 11.4664 27.7114C11.7006 27.9517 11.9347 28.1879 12.1723 28.42C12.4098 28.6522 12.6474 28.8803 12.8867 29.1053C13.1278 29.3294 13.367 29.5504 13.6097 29.7673C13.8508 29.9853 14.0953 30.1992 14.3397 30.4111C14.5842 30.6209 14.8304 30.8298 15.0783 31.0335C15.2594 31.1846 15.4423 31.3326 15.6251 31.4806L16.5552 32.2379C16.7979 32.4366 17.0423 32.6343 17.2849 32.8309C17.5276 33.0276 17.7702 33.2223 18.0128 33.4169C18.2554 33.6116 18.498 33.8062 18.7424 33.9978C18.985 34.1904 19.2311 34.381 19.4755 34.5706C19.7215 34.7612 19.9676 34.9497 20.2155 35.1373C20.4651 35.3259 20.7164 35.5114 20.9677 35.6969C21.2225 35.8824 21.4774 36.0659 21.7374 36.2484C21.994 36.4309 22.2557 36.6123 22.521 36.7917C22.7863 36.9712 23.0551 37.1506 23.3292 37.327C23.6014 37.5044 23.8772 37.6798 24.16 37.8532C24.4427 38.0265 24.729 38.1978 25.0204 38.3682L25.124 38.428C25.3839 38.578 25.649 38.727 25.9159 38.873C26.2231 39.0403 26.5373 39.2056 26.8497 39.3637C27.1762 39.5299 27.5061 39.6901 27.829 39.8422C28.0975 39.9689 28.3748 40.0946 28.652 40.2203L28.8415 40.3055C29.1819 40.4596 29.5241 40.6147 29.868 40.7688C30.2137 40.9239 30.5611 41.08 30.912 41.2361C31.2647 41.3933 31.6191 41.5494 31.9788 41.7065C32.3385 41.8637 32.6998 42.0218 33.0683 42.18C33.435 42.3391 33.8052 42.4983 34.1824 42.6574C34.5578 42.8176 34.9403 42.9778 35.3245 43.139C35.7122 43.3002 36.1034 43.4614 36.5016 43.6246C36.898 43.7868 37.3033 43.95 37.712 44.1133C38.1225 44.2775 38.5382 44.4427 38.9609 44.608C39.0679 44.6495 39.2096 44.6424 39.3021 44.5927L57.7649 34.6201C57.8294 34.5866 57.8606 34.536 57.8499 34.4853C57.8423 34.4498 57.8141 34.4172 57.7708 34.3922C57.7523 34.3815 57.731 34.3722 57.7074 34.3646C57.2778 34.2278 56.8412 34.0808 56.4098 33.9287C55.9995 33.7848 55.5821 33.6327 55.1716 33.4766C54.784 33.3296 54.3963 33.1765 53.9876 33.0113C53.6017 32.8552 53.2228 32.697 52.8491 32.5378C52.4771 32.3797 52.1105 32.2205 51.7508 32.0614C51.3893 31.9012 51.0331 31.742 50.6822 31.5818C50.3312 31.4217 49.9838 31.2615 49.6399 31.1033C49.2977 30.9442 48.9573 30.786 48.6203 30.6279L47.6148 30.1565C47.2814 30.0004 46.9497 29.8453 46.6216 29.6922C46.2899 29.5391 45.9618 29.386 45.6301 29.235L45.3318 29.0991C45.1055 28.9947 44.8774 28.8913 44.6562 28.7859C44.3439 28.6399 44.0297 28.4848 43.7208 28.3266C43.4276 28.1776 43.1257 28.0174 42.8238 27.8532C42.5722 27.7149 42.3179 27.5737 42.0702 27.4306C42.0326 27.409 41.9953 27.3873 41.9581 27.3656C41.6737 27.1993 41.3945 27.032 41.1205 26.8637C40.8448 26.6944 40.576 26.5231 40.3073 26.3498C40.0403 26.1774 39.7767 26.001 39.5167 25.8246C39.255 25.6472 38.9949 25.4688 38.7401 25.2873C38.4853 25.1079 38.2305 24.9244 37.9792 24.7409C37.7279 24.5574 37.4783 24.3709 37.227 24.1833C36.9791 23.9958 36.7313 23.8062 36.4852 23.6156C36.2391 23.425 35.9912 23.2314 35.7469 23.0377C35.499 22.8441 35.2546 22.6485 35.0085 22.4498C34.7623 22.2531 34.5162 22.0544 34.2683 21.8547L32.6823 20.5652C32.4573 20.3827 32.234 20.1992 32.0089 20.0127C31.7574 19.8028 31.5042 19.5899 31.2545 19.373C31.0047 19.156 30.7549 18.935 30.5069 18.711C30.2606 18.4859 30.0126 18.2578 29.7662 18.0246C29.5216 17.7925 29.277 17.5563 29.0341 17.315C28.7912 17.0737 28.5483 16.8284 28.3071 16.578C28.0677 16.3286 27.8283 16.0731 27.5922 15.8136C27.3545 15.553 27.1185 15.2895 26.8842 15.0188C26.6516 14.7491 26.4191 14.4734 26.1917 14.1925C25.9626 13.9128 25.7335 13.6248 25.5113 13.3329C25.4962 13.3147 25.4764 13.2984 25.4524 13.2845Z" fill="#374874"/>
<path d="M21.863 19.6398C20.5678 18.8976 18.8756 18.7849 17.5425 19.4998C15.4317 20.5983 15.4363 23.1754 17.5536 24.2656C19.3565 25.225 22.2187 25.0594 23.3441 23.1728C24.0741 21.8279 23.0841 20.3026 21.863 19.6398Z" fill="#374874"/>
<path d="M40.4488 30.9464C40.1349 28.6756 38.1341 27.0723 36.2621 25.9502C33.0276 24.1039 29.0371 23.4791 25.4216 24.4308C22.5681 25.1284 19.425 27.4875 20.0089 30.7478C20.6147 33.8757 23.8352 35.6265 26.7308 36.2515C29.6198 36.8633 32.7028 36.6897 35.5197 35.8226C37.7394 35.1058 40.6583 33.6483 40.4488 30.9464Z" fill="#374874"/>
<path d="M37.0354 30.2407C36.966 30.0268 36.8334 29.7906 36.6552 29.5442C36.477 29.2979 36.2516 29.0404 35.9946 28.7849C35.7376 28.5294 35.4475 28.2749 35.1363 28.0347C35.5097 27.8339 35.6964 27.7356 36.0699 27.5349C36.2356 27.4467 36.2417 27.2845 36.0818 27.172C36.071 27.1644 36.0598 27.1573 36.0482 27.1506C35.8868 27.0574 35.6463 27.0463 35.4918 27.1304C35.1201 27.3281 34.9351 27.4275 34.5634 27.6251C34.4362 27.5404 34.3056 27.459 34.1727 27.3822C34.1386 27.3625 34.1043 27.3431 34.0699 27.3241C33.9031 27.2298 33.7346 27.1427 33.5644 27.0646C33.2064 26.9023 32.8522 26.7787 32.4999 26.6945C32.1512 26.6103 31.8044 26.5657 31.4648 26.5617C31.1253 26.5577 30.7929 26.5921 30.4713 26.6691C30.1514 26.7452 29.8406 26.8628 29.544 27.021C29.1897 27.2085 28.9353 27.4093 28.765 27.6201C28.5929 27.83 28.5014 28.048 28.4746 28.273C28.4479 28.498 28.4842 28.7272 28.5678 28.9594C28.6496 29.1905 28.7786 29.4247 28.9322 29.6568C29.0893 29.889 29.2726 30.1201 29.4646 30.3442C29.1261 30.5266 28.8207 30.6878 28.5363 30.8409C28.2519 30.992 27.9884 31.1328 27.7301 31.2708C27.4736 31.4076 27.2224 31.5414 26.9659 31.6783C26.7076 31.8162 26.4441 31.9571 26.1579 32.1091C25.8735 32.2602 25.5699 32.4224 25.2296 32.6039C25.0061 32.3798 24.8105 32.1456 24.6464 31.9094C24.4788 31.6732 24.3462 31.435 24.2469 31.2039C24.1458 30.9717 24.0816 30.7487 24.0542 30.5408C24.0285 30.334 24.0397 30.1444 24.093 29.9792C24.1248 29.8781 24.0634 29.7734 23.9463 29.7058C23.899 29.6784 23.8426 29.6572 23.7795 29.6447C23.564 29.6011 23.3492 29.6812 23.3028 29.8221C23.2477 29.9944 23.2278 30.181 23.2359 30.3776C23.2457 30.5754 23.2854 30.7842 23.3531 30.9971C23.4208 31.2099 23.5166 31.429 23.6368 31.6479C23.7571 31.8669 23.9018 32.0858 24.0693 32.2997C24.2367 32.5137 24.4252 32.7236 24.6311 32.9232C24.2402 33.1321 24.0448 33.2355 23.6539 33.4443C23.4882 33.5326 23.4786 33.6988 23.635 33.8134C23.6483 33.8233 23.6623 33.8324 23.677 33.841C23.8337 33.9314 24.0649 33.9405 24.2181 33.859C24.588 33.6623 24.773 33.5629 25.1429 33.3662C25.2097 33.4169 25.273 33.4676 25.3415 33.5152C25.5069 33.6351 25.6803 33.7469 25.8585 33.8498C25.9169 33.8836 25.9759 33.9163 26.0353 33.9482C26.2775 34.0779 26.5285 34.1925 26.7863 34.2867C27.1546 34.4226 27.5261 34.5179 27.8975 34.5746C28.2671 34.6325 28.6383 34.6507 28.9987 34.6304C29.3592 34.6121 29.7124 34.5554 30.0532 34.4632C30.3939 34.3689 30.7205 34.2401 31.0294 34.0748C31.4254 33.863 31.6867 33.642 31.843 33.4148C31.9992 33.1878 32.0487 32.9556 32.0228 32.7184C31.997 32.4811 31.8958 32.2389 31.7457 31.9945C31.5991 31.7502 31.4051 31.5028 31.1937 31.2555C30.9823 31.0081 30.7516 30.7618 30.5315 30.5195L30.5156 30.5002C30.917 30.2853 31.2677 30.0977 31.5958 29.9235C31.9221 29.7501 32.224 29.5889 32.5258 29.4277C32.8277 29.2665 33.1278 29.1063 33.4541 28.9309C33.7822 28.7565 34.1329 28.569 34.536 28.3551C34.8103 28.57 35.0636 28.7971 35.2836 29.0211C35.5037 29.2452 35.6921 29.4672 35.8421 29.675C35.9903 29.8818 36.1016 30.0755 36.1621 30.2417C36.2225 30.41 36.2356 30.5509 36.1889 30.6574C36.1505 30.7441 36.2034 30.8358 36.3137 30.8995C36.3672 30.9304 36.4343 30.9547 36.511 30.9686C36.7475 31.0102 36.9851 30.9392 37.0421 30.8104C37.113 30.6493 37.1067 30.4556 37.0354 30.2407ZM30.6713 31.7361C30.8829 32.0098 31.0383 32.2572 31.1131 32.4863C31.1897 32.7164 31.1838 32.9273 31.073 33.128C30.9639 33.3277 30.7496 33.5152 30.4076 33.6977C30.0831 33.8721 29.7442 33.9938 29.3945 34.0648C29.0432 34.1367 28.6827 34.155 28.3115 34.1205C27.9402 34.086 27.5617 33.9989 27.1776 33.8559C26.911 33.7566 26.6548 33.6369 26.416 33.5011C26.3972 33.4905 26.3785 33.4799 26.3599 33.4692C26.1389 33.3416 25.9325 33.2004 25.7379 33.0489C26.0694 32.8725 26.3696 32.7123 26.647 32.5634C26.928 32.4143 27.1862 32.2765 27.4392 32.1416C27.6923 32.0068 27.9366 31.8749 28.1896 31.7401C28.4426 31.6053 28.7026 31.4664 28.9835 31.3174C29.261 31.1684 29.5611 31.0082 29.8944 30.8308C30.192 31.1623 30.4598 31.4623 30.6713 31.7361ZM32.9214 28.5C32.6073 28.6683 32.3159 28.8235 32.0245 28.9786C31.7348 29.1347 31.4451 29.2888 31.1293 29.4561C30.8152 29.6244 30.475 29.8059 30.0894 30.0116C29.8568 29.7339 29.6645 29.4734 29.5266 29.232C29.3888 28.9887 29.3035 28.7637 29.2848 28.5548C29.2661 28.344 29.314 28.1493 29.4443 27.9658C29.5728 27.7813 29.7835 27.61 30.0889 27.4467C30.3925 27.2846 30.7087 27.1781 31.0375 27.1274C31.3627 27.0767 31.7005 27.0818 32.0491 27.1416C32.3978 27.2014 32.7572 27.316 33.1292 27.4843C33.3053 27.5639 33.4764 27.6533 33.6428 27.7494C33.7515 27.8121 33.8583 27.8778 33.9631 27.9455C33.5758 28.1523 33.2372 28.3328 32.9214 28.5Z" fill="white"/>
<path d="M46.8931 36.0385C44.7715 34.9228 41.837 34.8341 39.6768 35.8864C37.7817 36.8859 38.3256 38.4561 40.0856 39.166C41.8787 39.9005 44.0306 39.9098 45.878 39.3617C47.7512 38.8311 49.0535 37.2954 46.8931 36.0385Z" fill="#374874"/>
<path d="M25.9988 10.959C28.5131 14.649 31.7593 17.7631 35.2551 20.5108C37.7295 22.5315 40.2354 24.5206 42.9722 26.1788C45.3718 27.6673 48.0027 28.7259 50.5421 29.9571C54.3173 31.7514 58.1615 33.4217 62.2583 34.3772C61.3953 34.8487 60.534 35.3181 59.6718 35.7886L60.7928 36.3683L60.0242 36.815L60.7928 37.2124L60.3807 37.4519L60.7928 37.683L60.3827 37.8444L60.7928 38.0565L60.4029 38.2831L60.7928 38.5441L60.4839 38.7409L60.7928 38.9006L60.4102 39.123L60.7928 39.3574L60.4818 39.5839L60.7928 39.7448L60.4115 39.9663L60.7928 40.1866L60.4499 40.4116L60.7928 40.5888L60.3642 40.8379L60.7928 41.1115L60.4639 41.2628L60.7928 41.4329L60.3599 41.6845L60.7928 41.9765L60.4769 42.1137L60.7928 42.277L60.4042 42.5029L60.7928 42.7062L60.4153 42.926L60.7928 43.1212L60.3715 43.3661L60.7928 43.5891L60.4491 43.7875L60.7928 43.9653L60.3902 44.1993L60.7928 44.4333L60.4493 44.6318L60.7928 44.8094L39.4786 57.1959L3.41754 36.3761L3.80295 36.1521L3.41754 35.9296L3.76076 35.7301L3.41754 35.532L3.80295 35.308L3.41754 35.0854L3.77676 34.8953L3.41754 34.6879L3.83475 34.4454L3.41754 34.2025L3.74359 34.032L3.41754 33.8438L3.78284 33.6315L3.41754 33.4729L3.79555 33.2179L3.41754 32.9997L3.79381 32.781L3.41754 32.6078L3.78954 32.3703L3.41754 32.1555L3.79955 31.9335L3.41754 31.6829L3.73911 31.4971L3.41754 31.3114L3.76707 31.1083L3.41754 30.8537L3.7422 30.6547L3.41754 30.4673L3.76796 30.2636L3.41754 30.0404L3.75223 29.8164L3.41754 29.6231L3.8729 29.3585L3.41754 29.1792L3.76919 28.9821L3.41754 28.779L4.14618 28.3556L3.41754 27.9349L7.2227 25.7236C6.35194 24.6727 5.5043 23.5794 4.67075 22.4361C11.7932 18.5979 18.8725 14.7907 25.9988 10.959ZM25.9982 10.0446C25.8515 10.0446 25.7032 10.0799 25.5659 10.1537C18.4205 13.9956 11.4126 17.7644 4.23701 21.6312C4.00455 21.7565 3.83763 21.9761 3.77916 22.2336C3.72069 22.4911 3.77642 22.7613 3.93196 22.9747C4.55802 23.8334 5.19658 24.6696 5.83792 25.4708L2.95815 27.1444C2.67614 27.3083 2.50279 27.61 2.50325 27.9362C2.50346 28.0852 2.53996 28.2292 2.6065 28.357C2.53955 28.4856 2.50302 28.6304 2.50325 28.7804C2.50334 28.848 2.51091 28.9146 2.52538 28.9791C2.50638 29.0638 2.49927 29.152 2.50535 29.2413C2.50906 29.2959 2.51758 29.3493 2.53056 29.4012C2.51253 29.4733 2.50314 29.5482 2.50325 29.6244C2.50334 29.6951 2.51162 29.7646 2.52734 29.8318C2.51072 29.9027 2.50245 29.9762 2.5033 30.0507C2.50407 30.1199 2.51267 30.188 2.52848 30.2539C2.5118 30.3233 2.50314 30.3954 2.50325 30.4686C2.50334 30.5339 2.51038 30.5982 2.52387 30.6605C2.51283 30.7116 2.50608 30.764 2.50398 30.8172C2.50037 30.9077 2.51022 30.997 2.53235 31.0825C2.51315 31.1568 2.50314 31.234 2.50325 31.3127C2.50334 31.3754 2.50983 31.4372 2.52229 31.4972C2.51148 31.5493 2.50515 31.6028 2.50362 31.657C2.50108 31.7467 2.51171 31.8349 2.53429 31.9192C2.51381 31.9957 2.50314 32.0755 2.50325 32.1568C2.50336 32.2337 2.5131 32.3091 2.53164 32.3817C2.50791 32.4745 2.49863 32.5718 2.5054 32.6704C2.50851 32.7156 2.51493 32.7602 2.52448 32.8037C2.51043 32.8678 2.50316 32.9339 2.50327 33.001C2.50339 33.0815 2.51408 33.1605 2.5344 33.2363C2.50686 33.339 2.49706 33.4474 2.50714 33.5568C2.51031 33.5911 2.51536 33.625 2.52227 33.6583C2.50967 33.7191 2.5032 33.7816 2.5033 33.845C2.50339 33.9055 2.50944 33.9651 2.52103 34.0231C2.51068 34.0749 2.50474 34.1279 2.50352 34.1817C2.50147 34.272 2.51278 34.3606 2.53607 34.4452C2.51447 34.5236 2.50316 34.6056 2.5033 34.6892C2.50339 34.7564 2.51086 34.8226 2.52515 34.8866C2.51198 34.9457 2.5046 35.0067 2.50346 35.0686C2.50195 35.1506 2.51146 35.2313 2.53095 35.3087C2.51269 35.3812 2.50318 35.4566 2.5033 35.5333C2.50339 35.6005 2.51086 35.6667 2.52515 35.7308C2.51066 35.7957 2.50318 35.8628 2.5033 35.931C2.50341 36.0067 2.5129 36.0812 2.53095 36.1529C2.51269 36.2254 2.50318 36.3007 2.5033 36.3774C2.50375 36.7036 2.67797 37.0048 2.96044 37.1679L39.0215 57.9878C39.163 58.0694 39.3208 58.1102 39.4787 58.1102C39.6374 58.1102 39.796 58.0689 39.938 57.9865L61.2523 45.6C61.5408 45.4322 61.7151 45.1206 61.7069 44.7869C61.7055 44.7307 61.699 44.6753 61.6876 44.6214C61.7004 44.5605 61.7071 44.4979 61.7071 44.4344C61.7072 44.354 61.6968 44.2751 61.6767 44.1993C61.6986 44.1168 61.709 44.0306 61.7069 43.9428C61.7055 43.8866 61.6989 43.8312 61.6876 43.7772C61.7016 43.7107 61.7083 43.642 61.707 43.5723C61.7056 43.4981 61.6953 43.4252 61.6767 43.3552C61.6986 43.2727 61.709 43.1865 61.7069 43.0987C61.7053 43.0357 61.6973 42.9737 61.6833 42.9137C61.7005 42.8398 61.7087 42.7632 61.7069 42.6854C61.7054 42.6194 61.6968 42.5544 61.6816 42.4916C61.7001 42.4151 61.7089 42.3355 61.7069 42.2545C61.7058 42.2113 61.7017 42.1686 61.6947 42.1267C61.6984 42.1049 61.7012 42.0828 61.7033 42.0605C61.7145 41.9385 61.701 41.8179 61.6658 41.7047C61.695 41.6109 61.7094 41.5117 61.7069 41.4104C61.7057 41.3636 61.701 41.3174 61.6929 41.2722C61.6987 41.24 61.7027 41.2072 61.705 41.1741C61.7126 41.063 61.6998 40.9535 61.669 40.8502C61.6961 40.7595 61.7093 40.6638 61.7069 40.5663C61.7054 40.5055 61.6978 40.4457 61.6848 40.3878C61.7014 40.3142 61.709 40.238 61.7068 40.1608C61.7049 40.0942 61.6958 40.0289 61.68 39.9657C61.6996 39.8872 61.7089 39.8054 61.7068 39.7223C61.7054 39.6641 61.6985 39.6068 61.6864 39.551C61.7026 39.4763 61.7095 39.3991 61.7064 39.3209C61.7038 39.2555 61.6942 39.1912 61.6782 39.1291C61.699 39.0483 61.7089 38.964 61.7068 38.8782C61.7055 38.8253 61.6997 38.7732 61.6896 38.7224C61.7005 38.6676 61.7064 38.6114 61.707 38.5545C61.708 38.4675 61.6966 38.3821 61.674 38.3004C61.6977 38.2149 61.7091 38.1253 61.7068 38.034C61.7055 37.9782 61.699 37.9233 61.6879 37.8697C61.6964 37.829 61.7021 37.7873 61.705 37.745C61.7119 37.6433 61.7017 37.543 61.6764 37.4477C61.6984 37.3648 61.709 37.2781 61.7068 37.1899C61.7033 37.0481 61.6671 36.9118 61.6039 36.7903C61.674 36.6555 61.7107 36.5031 61.7068 36.3458C61.7021 36.1523 61.6364 35.9692 61.5242 35.8196C61.9148 35.6065 62.3056 35.3932 62.6967 35.1795C63.0294 34.9976 63.2154 34.6293 63.1642 34.2537C63.113 33.878 62.8352 33.5729 62.466 33.4868C58.38 32.5338 54.5091 30.8303 50.9346 29.1313C50.2069 28.7785 49.457 28.433 48.7318 28.099C46.956 27.2809 45.1197 26.435 43.4542 25.4018C40.7199 23.7451 38.1905 21.7276 35.8334 19.8027C35.829 19.799 35.8246 19.7956 35.8201 19.792C31.9135 16.7214 28.9481 13.6637 26.7544 10.4441C26.5787 10.1863 26.292 10.0446 25.9982 10.0446Z" fill="#374874"/>
</svg>
