<svg width="64" height="64" viewBox="0 0 64 64" fill="none" xmlns="http://www.w3.org/2000/svg">
<path d="M3.94407 33.263L29.0786 18.7516L60.7935 37.0603C61.2698 37.3352 61.2698 38.0227 60.7935 38.2977L36.0006 52.6136C35.7748 52.744 35.4965 52.744 35.2707 52.6136L3.94407 34.5272C3.45749 34.2462 3.45749 33.5439 3.94407 33.263Z" fill="#FBDBD0"/>
<path d="M2.84927 26.3213L28.7214 11.384C28.9424 11.2564 29.2147 11.2564 29.4358 11.384L60.7935 29.4865C61.2698 29.7615 61.2698 30.449 60.7935 30.724L35.6357 45.2506L2.84927 26.3213Z" fill="white"/>
<path d="M39.625 42.9972L6.83844 24.0698L2.85549 26.3178L2.84927 26.3142V26.3213L2.85071 32.6539C2.8509 33.4227 3.26109 34.133 3.92687 34.5174L35.2868 52.6228C35.4427 52.7128 35.6376 52.6003 35.6376 52.4203L35.6362 46.7666C35.6359 45.8299 36.1402 44.9656 36.9559 44.5049L39.625 42.9972Z" fill="#FBDBD0"/>
<path fill-rule="evenodd" clip-rule="evenodd" d="M6.37803 23.5401L39.7393 42.7993L39.5108 43.1952L6.14948 23.936L6.37803 23.5401Z" fill="#374874"/>
<path d="M36.7775 44.5878L58.3233 32.1215V37.3054L35.6357 50.4384L35.6357 46.5675C35.6357 45.7511 36.0709 44.9967 36.7775 44.5878Z" fill="white"/>
<path fill-rule="evenodd" clip-rule="evenodd" d="M58.5519 37.305C58.552 37.3867 58.5086 37.4623 58.4378 37.5032L35.7502 50.6362C35.6409 50.6995 35.5011 50.6622 35.4378 50.5529C35.3746 50.4437 35.4119 50.3038 35.5211 50.2406L58.0945 37.1737L58.0861 32.8415L39.7373 43.1962C39.6274 43.2583 39.488 43.2194 39.4259 43.1095C39.3639 42.9996 39.4027 42.8601 39.5127 42.7981L58.5425 32.025C58.5425 33.9428 58.5485 35.5664 58.5519 37.305Z" fill="#374874"/>
<path d="M20.3568 26.0742L33.1396 18.6862L38.9735 22.0638L26.1905 29.4534L20.3568 26.0742Z" fill="#C1DBF6"/>
<path d="M29.0786 11.2883C29.2019 11.2883 29.3253 11.3202 29.4358 11.384L60.7935 29.4865C61.2697 29.7614 61.2698 30.4489 60.7935 30.7239L58.3233 32.1503V35.6344L60.7935 37.0603C61.2697 37.3353 61.2698 38.0227 60.7935 38.2977L36.4643 52.346L36.3866 52.391C36.3862 52.3912 36.3857 52.3913 36.3853 52.3915L36.3774 52.3961L36.0037 52.6129C35.8902 52.6788 35.7634 52.7118 35.6366 52.7118C35.5104 52.7118 35.3841 52.6791 35.271 52.6138C35.2709 52.6137 35.2708 52.6137 35.2707 52.6137L18.8129 43.1118L3.92685 34.5173C3.26106 34.133 2.85087 33.4226 2.85071 32.6539L2.84957 27.651C2.84938 26.8238 3.29069 26.0595 4.00712 25.646L28.7214 11.384C28.8319 11.3202 28.9552 11.2883 29.0786 11.2883ZM29.0786 10.374C28.7932 10.374 28.5116 10.4494 28.2644 10.5921L3.55016 24.8541C2.55382 25.4291 1.93503 26.5009 1.9353 27.6512L1.93645 32.6541C1.9367 33.7459 2.52422 34.7633 3.46973 35.3091L18.3558 43.9036L34.8136 53.4055C34.8151 53.4063 34.8166 53.4072 34.8181 53.408C35.0669 53.5506 35.3498 53.626 35.6366 53.626C35.9264 53.626 36.212 53.5492 36.4626 53.4037L36.8297 53.1907C36.8311 53.1899 36.8325 53.1892 36.8339 53.1884C36.8375 53.1863 36.8412 53.1842 36.8448 53.1822L36.9225 53.1371L61.2507 39.0895C61.7606 38.795 62.065 38.2677 62.065 37.6789C62.065 37.0901 61.7605 36.5629 61.2506 36.2685L59.2376 35.1064V32.6781L61.2507 31.5156C61.7606 31.2212 62.0651 30.6939 62.065 30.105C62.0649 29.5162 61.7604 28.9889 61.2505 28.6946L29.8929 10.5922C29.6457 10.4495 29.3641 10.374 29.0786 10.374Z" fill="#374874"/>
<path fill-rule="evenodd" clip-rule="evenodd" d="M39.824 42.8848C39.8861 42.9947 39.8474 43.1342 39.7374 43.1962L37.0683 44.7039L36.9559 44.5049L37.0683 44.7039C36.3244 45.1241 35.8645 45.9123 35.8647 46.7666L35.8658 51.5558C35.8659 52.022 36.3606 52.3215 36.7736 52.1061L39.8627 50.4121C39.9734 50.3514 40.1123 50.392 40.173 50.5027C40.2337 50.6133 40.1932 50.7523 40.0825 50.813L36.9915 52.508L36.9879 52.5099C36.2702 52.8869 35.4088 52.3666 35.4087 51.5559L35.4076 46.7667C35.4073 45.7475 35.956 44.8071 36.8434 44.3059L39.5126 42.7982C39.6225 42.7361 39.762 42.7749 39.824 42.8848Z" fill="#374874"/>
</svg>
