<svg width="64" height="64" viewBox="0 0 64 64" fill="none" xmlns="http://www.w3.org/2000/svg">
<path d="M33.0387 9.13901C32.9287 8.7487 32.0709 6.63277 29.9594 4.92772C28.3758 3.65405 25.5263 2.00562 25.5263 2.00562V3.00445C25.5263 3.00445 27.3844 3.90834 28.968 5.182C31.0795 6.88708 31.9372 9.00299 32.0472 9.3933L32.3395 10.9177L33.2415 10.2996L33.0387 9.13901Z" fill="#C1DBF6"/>
<path d="M33.9632 8.64582L33.8533 8.25551C33.8533 8.25551 32.3967 3.52721 26.6847 1.52209L25.5263 2.00555C25.5263 2.00555 28.3758 3.65398 29.9594 4.92765C32.0709 6.63272 32.9287 8.74863 33.0387 9.13894H33.0372L33.2403 10.3004H34.2857L34.1443 9.68104L33.9632 8.64582Z" fill="white"/>
<path d="M45.4613 50.2276C45.1943 50.0016 44.9478 50.0221 44.578 50.0016C44.352 50.0016 44.1877 50.0427 44.1877 50.0427L43.3454 50.5151C43.6536 50.4535 43.9617 50.5151 44.2288 50.7411C45.1737 51.5217 45.6668 52.6721 45.6668 53.8431C45.6668 54.1718 45.523 54.3977 45.297 54.5416C45.5641 54.3978 46.2625 53.9869 46.735 53.6171C46.7761 53.576 46.8788 53.3706 46.8788 52.9392C46.8993 51.8915 46.3036 50.926 45.4613 50.2276Z" fill="white"/>
<path d="M45.6873 53.843C45.6873 52.6926 45.1737 51.5422 44.2493 50.7411C43.5508 50.1659 42.4415 50.6794 42.4415 51.5833C42.4415 52.7337 43.1811 53.8636 43.9001 54.4182C44.5575 54.9113 45.6873 54.7469 45.6873 53.843Z" fill="#FBDBD0"/>
<path d="M31.184 40.5313C30.9169 40.3053 30.6704 40.3258 30.3007 40.3053C30.0747 40.3053 29.9103 40.3464 29.9103 40.3464L29.0681 40.8189C29.3762 40.7572 29.6844 40.8189 29.9514 41.0448C30.8964 41.8255 31.3894 42.9759 31.3894 44.1468C31.3894 44.4755 31.2456 44.7015 31.0197 44.8453C31.2867 44.7015 31.9852 44.2906 32.4577 43.9208C32.4987 43.8798 32.6015 43.6743 32.6015 43.2429C32.622 42.1952 32.0263 41.2297 31.184 40.5313Z" fill="white"/>
<path d="M31.41 44.1262C31.41 42.9758 30.8964 41.8254 29.972 41.0243C29.2735 40.4491 28.1642 40.9626 28.1642 41.8665C28.1642 43.0169 28.9037 44.1468 29.6227 44.7014C30.2801 45.215 31.41 45.0301 31.41 44.1262Z" fill="#FBDBD0"/>
<path d="M38.6205 54.3978C37.5934 54.3978 35.6829 53.9458 34.5736 53.3296L16.3109 45.0918L17.4407 44.7221L35.6623 52.8365C37.2647 53.5966 38.6822 53.8842 39.8736 53.309C39.8736 53.309 43.9206 50.9877 45.0299 50.3097C45.3381 50.1248 45.5024 49.8783 45.523 49.6113C45.5435 49.2004 45.2148 48.7074 44.6601 48.3171L29.0475 37.5731L30.3006 37.4498L45.0915 47.7213C45.9954 48.1527 46.4679 49.036 46.4268 49.6934C46.4063 50.0632 46.0571 50.5151 45.3997 50.926C44.2904 51.6039 40.5104 53.9869 40.5104 53.9869C39.9558 54.2539 39.2984 54.3978 38.6205 54.3978Z" fill="white"/>
<path d="M43.3865 52.0147C43.5098 52.4255 43.7563 52.7953 44.126 52.857C44.4958 52.9186 44.4753 52.857 44.6396 52.631C44.7834 52.405 46.0571 49.303 46.0571 49.303L43.3454 48.091C43.3248 48.091 43.2427 51.6038 43.3865 52.0147Z" fill="#C1DBF6"/>
<path d="M44.6601 48.317L29.0475 37.573V38.8056L29.0492 38.8067C29.0227 39.7468 28.9962 41.9957 29.1091 42.3184C29.2324 42.7293 29.4789 43.0991 29.8487 43.1607C30.1979 43.2018 30.1979 43.1607 30.3623 42.9347C30.4572 42.7855 31.0445 41.3831 31.4327 40.447L44.6602 49.5495C45.0916 49.7961 45.2354 50.1453 45.2354 50.1453C45.4202 49.981 45.5024 49.7961 45.5229 49.6112C45.5435 49.2003 45.2148 48.7073 44.6601 48.317Z" fill="#C1DBF6"/>
<path d="M37.5523 55.8563C37.2852 55.6304 37.0387 55.6509 36.6689 55.6304C36.443 55.6304 36.2786 55.6715 36.2786 55.6715L35.4364 56.1439C35.7445 56.0823 36.0527 56.1439 36.3197 56.3699C37.2647 57.1506 37.7577 58.301 37.7577 59.4719C37.7577 59.8006 37.6139 60.0266 37.3879 60.1704C37.655 60.0266 38.3534 59.6157 38.8259 59.2459C38.867 59.2048 38.9697 58.9994 38.9697 58.568C38.9697 57.5203 38.3945 56.5548 37.5523 55.8563Z" fill="white"/>
<path d="M37.7783 59.4513C37.7783 58.3009 37.2647 57.1505 36.3402 56.3493C35.6418 55.7741 34.5325 56.2877 34.5325 57.1916C34.5325 58.342 35.272 59.4719 35.991 60.0265C36.6484 60.5401 37.7783 60.3758 37.7783 59.4513Z" fill="#FBDBD0"/>
<path d="M18.8582 51.7477C18.8582 50.5973 18.3446 49.4469 17.4202 48.6457C16.7217 48.0705 15.6124 48.5841 15.6124 49.488C15.6124 50.6384 16.3519 51.7683 17.071 52.3229C17.7283 52.8159 18.8582 52.6516 18.8582 51.7477Z" fill="#FBDBD0"/>
<path d="M18.6322 48.1321C18.3651 47.9061 18.1186 47.9267 17.7489 47.9061C17.5229 47.9061 17.3586 47.9472 17.3586 47.9472L16.5163 48.4197C16.8244 48.3581 17.1326 48.4197 17.3996 48.6457C18.3446 49.4263 18.8376 50.5767 18.8376 51.7476C18.8376 52.0763 18.6938 52.3023 18.4679 52.4461C18.7349 52.3023 19.4334 51.8915 19.9059 51.5217C19.9469 51.4806 20.0497 51.2752 20.0497 50.8438C20.0497 49.7961 19.4745 48.8306 18.6322 48.1321Z" fill="white"/>
<path d="M45.4202 50.9054C44.3109 51.5834 40.531 53.9664 40.531 53.9664C39.9558 54.2539 39.319 54.3978 38.6205 54.3978C37.5934 54.3978 35.7034 53.9458 34.5736 53.3295L16.3109 45.0918V46.3038L16.4877 46.3836C16.4705 47.3082 16.4392 49.5938 16.5368 49.9194C16.6601 50.3302 16.9066 50.7 17.2764 50.7616C17.6256 50.8027 17.6256 50.7616 17.79 50.5357C17.9206 50.356 18.7392 48.359 19.0693 47.5481L34.5736 54.5416C34.8149 54.6757 35.0955 54.8013 35.3955 54.9169C35.383 55.9765 35.3816 57.3925 35.4569 57.6435C35.5801 58.0544 35.8267 58.4242 36.1964 58.4858C36.5456 58.5269 36.5456 58.4858 36.71 58.2598C36.8274 58.0984 37.5003 56.4697 37.8752 55.5522C38.1515 55.5891 38.4059 55.6098 38.6205 55.6098C39.319 55.6098 39.9558 55.466 40.531 55.1784C40.531 55.1784 44.3109 52.7954 45.4202 52.1175L46.3446 51.3779L46.4268 49.6934C46.4063 50.0632 46.0776 50.4946 45.4202 50.9054Z" fill="#C1DBF6"/>
<path d="M38.6205 54.3978C37.5934 54.3978 35.6829 53.9458 34.5736 53.3296L16.3109 45.0918L17.4407 44.7221L35.6623 52.8365C37.2647 53.5966 38.6822 53.8842 39.8736 53.309C39.8736 53.309 43.9206 50.9877 45.0299 50.3097C45.3381 50.1248 45.5024 49.8783 45.523 49.6113C45.5435 49.2004 45.2148 48.7074 44.6601 48.3171L29.0475 37.5731L30.3006 37.4498L45.0915 47.7213C45.9954 48.1527 46.4679 49.036 46.4268 49.6934C46.4063 50.0632 46.0571 50.5151 45.3997 50.926C44.2904 51.6039 40.5104 53.9869 40.5104 53.9869C39.9558 54.2539 39.2984 54.3978 38.6205 54.3978Z" fill="white"/>
<path d="M17.1605 45.475L17.743 43.1617C18.1128 41.5183 19.0783 40.0803 20.4341 39.0942L21.2969 38.4779C23.1663 37.1221 23.8146 35.6302 23.3627 33.35L20.7435 17.3099C20.6408 16.9196 19.8397 14.8037 17.8675 13.0986C16.3884 11.8249 13.727 10.1765 13.727 10.1765V11.1753C13.727 11.1753 15.4624 12.0792 16.9415 13.3529C18.9136 15.058 19.7148 17.1739 19.8175 17.5642L22.5818 32.9997C23.0337 35.28 22.3854 36.7719 20.516 38.1277L19.6532 38.744C18.2974 39.73 17.3319 41.1681 16.9621 42.8115L16.3109 45.0918L17.1605 45.475Z" fill="#C1DBF6"/>
<path fill-rule="evenodd" clip-rule="evenodd" d="M26.5408 2.75327C26.6768 2.96597 26.6147 3.24867 26.402 3.38469L15.0306 10.6565C14.8179 10.7926 14.5352 10.7304 14.3992 10.5177C14.2632 10.305 14.3253 10.0223 14.538 9.88629L25.9094 2.61443C26.1221 2.47841 26.4048 2.54057 26.5408 2.75327Z" fill="#374874"/>
<path fill-rule="evenodd" clip-rule="evenodd" d="M26.4535 30.0673C26.5187 29.9592 26.6592 29.9244 26.7673 29.9896L45.7232 41.4243C45.8313 41.4895 45.866 41.6299 45.8008 41.738C45.7356 41.8461 45.5952 41.8809 45.4871 41.8157L26.5311 30.3811C26.423 30.3159 26.3883 30.1754 26.4535 30.0673Z" fill="#C1DBF6"/>
<path fill-rule="evenodd" clip-rule="evenodd" d="M23.5597 15.717C23.6836 15.6927 23.8037 15.7735 23.8279 15.8973L26.6244 30.1749C26.6486 30.2988 26.5679 30.4189 26.444 30.4432C26.3201 30.4674 26.2 30.3867 26.1758 30.2628L23.3793 15.9852C23.3551 15.8613 23.4358 15.7412 23.5597 15.717Z" fill="#C1DBF6"/>
<path fill-rule="evenodd" clip-rule="evenodd" d="M31.779 10.9506C31.9032 10.9275 32.0225 11.0094 32.0455 11.1336L34.5929 24.8435C34.6159 24.9676 34.534 25.0869 34.4099 25.11C34.2858 25.133 34.1665 25.0511 34.1434 24.927L31.5961 11.2171C31.573 11.093 31.6549 10.9736 31.779 10.9506Z" fill="#C1DBF6"/>
<path fill-rule="evenodd" clip-rule="evenodd" d="M34.7917 24.9805C34.8596 24.8741 35.0009 24.8428 35.1073 24.9107L53.144 36.4148C53.2505 36.4827 53.2817 36.624 53.2138 36.7304C53.1459 36.8368 53.0046 36.8681 52.8982 36.8002L34.8615 25.2961C34.7551 25.2283 34.7238 25.0869 34.7917 24.9805Z" fill="#C1DBF6"/>
<path fill-rule="evenodd" clip-rule="evenodd" d="M25.6333 14.5052C25.757 14.4802 25.8776 14.5603 25.9025 14.6841L28.5731 27.9215C28.5981 28.0452 28.518 28.1658 28.3943 28.1908C28.2705 28.2157 28.15 28.1356 28.125 28.0119L25.4544 14.7745C25.4294 14.6507 25.5095 14.5302 25.6333 14.5052Z" fill="#C1DBF6"/>
<path fill-rule="evenodd" clip-rule="evenodd" d="M28.1744 28.3125C28.2401 28.2047 28.3807 28.1705 28.4885 28.2362L48.0454 40.1511C48.1532 40.2168 48.1873 40.3574 48.1217 40.4652C48.056 40.573 47.9153 40.6072 47.8075 40.5415L28.2507 28.6266C28.1429 28.5609 28.1087 28.4203 28.1744 28.3125Z" fill="#C1DBF6"/>
<path fill-rule="evenodd" clip-rule="evenodd" d="M29.6789 12.1636C29.8025 12.1379 29.9235 12.2173 29.9492 12.3409L32.7841 25.9918C32.8098 26.1154 32.7304 26.2364 32.6068 26.2621C32.4832 26.2877 32.3622 26.2083 32.3365 26.0847L29.5016 12.4338C29.476 12.3102 29.5553 12.1892 29.6789 12.1636Z" fill="#C1DBF6"/>
<path fill-rule="evenodd" clip-rule="evenodd" d="M32.4264 26.2383C32.4917 26.1303 32.6322 26.0957 32.7402 26.1609L51.6397 37.5828C51.7477 37.6481 51.7824 37.7886 51.7171 37.8967C51.6518 38.0047 51.5113 38.0394 51.4033 37.9741L32.5038 26.5522C32.3957 26.4869 32.3611 26.3464 32.4264 26.2383Z" fill="#C1DBF6"/>
<path fill-rule="evenodd" clip-rule="evenodd" d="M27.8532 13.2107C27.977 13.1865 28.0971 13.2672 28.1214 13.3911L30.7509 26.8134C30.7752 26.9373 30.6944 27.0574 30.5705 27.0817C30.4467 27.106 30.3266 27.0252 30.3023 26.9013L27.6728 13.479C27.6485 13.3551 27.7293 13.235 27.8532 13.2107Z" fill="#C1DBF6"/>
<path fill-rule="evenodd" clip-rule="evenodd" d="M30.33 27.2877C30.3944 27.1791 30.5346 27.1433 30.6432 27.2076L50.0768 38.7322C50.1854 38.7966 50.2212 38.9369 50.1568 39.0454C50.0924 39.154 49.9522 39.1898 49.8436 39.1254L30.41 27.6009C30.3014 27.5365 30.2656 27.3962 30.33 27.2877Z" fill="#C1DBF6"/>
<path fill-rule="evenodd" clip-rule="evenodd" d="M54.1065 23.6019C54.2324 23.6113 54.3268 23.721 54.3173 23.8469L53.5161 34.5087C53.5067 34.6346 53.3969 34.729 53.2711 34.7195C53.1452 34.71 53.0508 34.6003 53.0603 34.4744L53.8614 23.8127C53.8709 23.6868 53.9806 23.5924 54.1065 23.6019Z" fill="#C1DBF6"/>
<path fill-rule="evenodd" clip-rule="evenodd" d="M52.3028 22.2691C52.4288 22.2779 52.5237 22.3872 52.5148 22.5131L51.7495 33.3778C51.7406 33.5037 51.6313 33.5986 51.5054 33.5897C51.3795 33.5808 51.2846 33.4716 51.2935 33.3457L52.0588 22.481C52.0677 22.3551 52.1769 22.2602 52.3028 22.2691Z" fill="#C1DBF6"/>
<path fill-rule="evenodd" clip-rule="evenodd" d="M50.0576 21.1297C50.1838 21.1313 50.2848 21.2349 50.2832 21.3612L50.1394 32.7419C50.1378 32.8682 50.0342 32.9692 49.908 32.9676C49.7818 32.966 49.6807 32.8624 49.6823 32.7362L49.8261 21.3554C49.8277 21.2292 49.9313 21.1281 50.0576 21.1297Z" fill="#C1DBF6"/>
<path fill-rule="evenodd" clip-rule="evenodd" d="M47.6369 19.1845C47.7631 19.1834 47.8663 19.2848 47.8674 19.411L47.9702 31.0178C47.9713 31.144 47.8699 31.2473 47.7436 31.2484C47.6174 31.2495 47.5142 31.1481 47.513 31.0218L47.4103 19.4151C47.4092 19.2888 47.5106 19.1856 47.6369 19.1845Z" fill="#C1DBF6"/>
<path fill-rule="evenodd" clip-rule="evenodd" d="M45.3931 17.8724C45.5193 17.8688 45.6245 17.9681 45.6282 18.0943L45.9748 30.0914C45.9785 30.2175 45.8791 30.3228 45.7529 30.3264C45.6268 30.3301 45.5215 30.2307 45.5179 30.1046L45.1712 18.1075C45.1676 17.9813 45.2669 17.8761 45.3931 17.8724Z" fill="#C1DBF6"/>
<path fill-rule="evenodd" clip-rule="evenodd" d="M42.8826 16.1856C43.0087 16.1782 43.1168 16.2744 43.1242 16.4004L43.8612 28.9521C43.8686 29.0781 43.7724 29.1863 43.6464 29.1937C43.5204 29.2011 43.4122 29.1049 43.4048 28.9789L42.6679 16.4272C42.6605 16.3012 42.7566 16.193 42.8826 16.1856Z" fill="#C1DBF6"/>
<path fill-rule="evenodd" clip-rule="evenodd" d="M40.4033 14.6097C40.529 14.5987 40.6399 14.6917 40.6509 14.8175L41.7935 27.8596C41.8045 27.9854 41.7115 28.0963 41.5858 28.1073C41.46 28.1183 41.3491 28.0253 41.3381 27.8995L40.1955 14.8574C40.1845 14.7316 40.2775 14.6207 40.4033 14.6097Z" fill="#C1DBF6"/>
<path fill-rule="evenodd" clip-rule="evenodd" d="M37.8724 12.9144C37.9979 12.9011 38.1105 12.992 38.1238 13.1176L39.5513 26.5378C39.5646 26.6633 39.4737 26.7759 39.3482 26.7893C39.2226 26.8026 39.1101 26.7117 39.0967 26.5862L37.6693 13.1659C37.6559 13.0404 37.7468 12.9278 37.8724 12.9144Z" fill="#C1DBF6"/>
<path fill-rule="evenodd" clip-rule="evenodd" d="M35.6211 11.4583C35.7464 11.4436 35.86 11.5332 35.8748 11.6586L37.4745 25.2453C37.4893 25.3707 37.3996 25.4843 37.2743 25.499C37.1489 25.5138 37.0353 25.4241 37.0205 25.2987L35.4208 11.7121C35.406 11.5867 35.4957 11.4731 35.6211 11.4583Z" fill="#C1DBF6"/>
<path fill-rule="evenodd" clip-rule="evenodd" d="M34.5105 18.2824C34.5832 18.239 34.674 18.2394 34.7464 18.2834L54.9838 30.5936C55.0917 30.6592 55.1259 30.7998 55.0603 30.9077C54.9947 31.0155 54.8541 31.0498 54.7463 30.9842L34.6264 18.7455L22.8371 25.7781C22.7287 25.8428 22.5884 25.8074 22.5237 25.6989C22.459 25.5905 22.4945 25.4502 22.6029 25.3856L34.5105 18.2824Z" fill="#C1DBF6"/>
<path fill-rule="evenodd" clip-rule="evenodd" d="M35.3211 24.4336C35.3847 24.3246 35.5247 24.2877 35.6337 24.3513L35.5185 24.5488L35.4034 24.7462C35.2943 24.6826 35.2575 24.5426 35.3211 24.4336ZM53.3913 35.2991C53.384 35.2942 53.372 35.2863 53.3542 35.2751C53.3191 35.2528 53.2673 35.2208 53.1992 35.1794C53.0633 35.0966 52.8663 34.9785 52.6166 34.8298C52.1174 34.5326 51.4095 34.1144 50.5626 33.6159C48.8688 32.619 46.6199 31.3011 44.374 29.9871C42.1281 28.673 39.8855 27.3628 38.2043 26.3811C37.3637 25.8902 36.6634 25.4815 36.1734 25.1955L35.4036 24.7463C35.4036 24.7463 35.4034 24.7462 35.5185 24.5488C35.6337 24.3513 35.6339 24.3515 35.6339 24.3515L36.4038 24.8007C36.8939 25.0867 37.5941 25.4954 38.4348 25.9863C40.116 26.9681 42.3588 28.2783 44.6048 29.5925C46.8508 30.9066 49.1001 32.2247 50.7945 33.222C51.6416 33.7206 52.3503 34.1392 52.8505 34.4371C53.1005 34.5859 53.299 34.705 53.4369 34.7889C53.5056 34.8308 53.5602 34.8644 53.5989 34.8889C53.618 34.9011 53.6347 34.9119 53.6478 34.9207C53.6541 34.925 53.6615 34.9301 53.6685 34.9354C53.672 34.938 53.6771 34.9419 53.6827 34.9466C53.686 34.9494 53.6992 34.9605 53.7129 34.9769C53.7937 35.0738 53.7806 35.218 53.6836 35.2988C53.5976 35.3705 53.4744 35.3683 53.3913 35.2991Z" fill="#C1DBF6"/>
<path fill-rule="evenodd" clip-rule="evenodd" d="M35.8785 24.4099C35.9438 24.5179 35.9092 24.6585 35.8012 24.7238L23.9545 31.8903C23.8465 31.9556 23.706 31.921 23.6406 31.813C23.5753 31.705 23.6099 31.5645 23.7179 31.4991L35.5646 24.3327C35.6726 24.2673 35.8131 24.3019 35.8785 24.4099Z" fill="#C1DBF6"/>
<path fill-rule="evenodd" clip-rule="evenodd" d="M33.3758 9.95033C33.5007 9.932 33.6168 10.0184 33.6352 10.1433L35.7447 24.5156C35.763 24.6405 35.6766 24.7566 35.5517 24.7749C35.4268 24.7933 35.3107 24.7069 35.2924 24.582L33.1829 10.2097C33.1645 10.0848 33.2509 9.96866 33.3758 9.95033Z" fill="#C1DBF6"/>
<path d="M29.6709 37.998L30.0574 35.6627L31.2095 36.3046L30.924 37.8748L29.6709 37.998Z" fill="white"/>
<path d="M29.6706 38.0019L30.1281 35.2346L29.5318 34.8793L29.0421 37.5731L29.6706 38.0019Z" fill="#C1DBF6"/>
<path fill-rule="evenodd" clip-rule="evenodd" d="M55.6739 25.6807C55.9238 25.7163 56.0976 25.9477 56.0621 26.1977L55.6095 26.1333L55.1569 26.0689C55.1925 25.819 55.4239 25.6451 55.6739 25.6807ZM42.5736 41.5581L42.5727 41.5576L24.0578 31.295C23.837 31.1726 23.5588 31.2524 23.4364 31.4732C23.314 31.694 23.3938 31.9722 23.6146 32.0946L42.1312 42.3582L42.1329 42.3592C43.8897 43.3233 45.7191 43.5684 47.115 42.8822C47.1289 42.8754 47.1425 42.8678 47.1556 42.8596C47.1919 42.8369 47.2464 42.7939 47.2843 42.764L47.2876 42.7614C47.339 42.7208 47.4085 42.6651 47.493 42.597C47.6622 42.4607 47.8956 42.2712 48.1736 42.0454L48.3163 41.9294C48.853 41.4933 49.5309 40.9426 50.2334 40.3768C51.7833 39.1287 53.4049 37.8473 53.9271 37.5282L53.9329 37.5246C54.0556 37.4471 54.1159 37.331 54.1334 37.2974L54.1342 37.2957C54.1625 37.2413 54.186 37.1818 54.2056 37.1263C54.2455 37.0135 54.2861 36.8689 54.3269 36.705C54.4093 36.3746 54.503 35.9241 54.6026 35.4C54.8023 34.3497 55.0311 32.9762 55.247 31.6149C55.463 30.2525 55.6668 28.8983 55.8165 27.8849C55.8914 27.3782 55.9527 26.9565 55.9954 26.6615C56.0167 26.5139 56.0334 26.3981 56.0447 26.319L56.062 26.1982L56.0621 26.1977C56.0621 26.1977 56.0621 26.1977 55.6095 26.1333C55.1569 26.0689 55.1569 26.0689 55.1569 26.0689L55.1568 26.0694L55.1397 26.1893C55.1284 26.268 55.1118 26.3835 55.0905 26.5306C55.048 26.8249 54.9867 27.2456 54.912 27.7513C54.7626 28.7628 54.5593 30.1136 54.344 31.4717C54.1285 32.8307 53.9015 34.193 53.7044 35.2292C53.6057 35.7484 53.5158 36.1788 53.4398 36.4839C53.4027 36.6328 53.3712 36.7423 53.3462 36.8143C52.6823 37.2502 51.0976 38.507 49.6599 39.6647C48.9557 40.2318 48.2763 40.7838 47.7397 41.2198L47.5971 41.3357C47.3188 41.5618 47.0868 41.7502 46.9193 41.8851C46.8354 41.9527 46.7688 42.0061 46.721 42.0438C46.7 42.0604 46.6855 42.0716 46.6763 42.0788C45.6495 42.564 44.167 42.4323 42.5736 41.5581Z" fill="#374874"/>
<path fill-rule="evenodd" clip-rule="evenodd" d="M23.4639 18.4891C23.5885 18.4687 23.706 18.5531 23.7265 18.6777L26.0273 32.7085C26.0477 32.8331 25.9633 32.9507 25.8387 32.9711C25.7141 32.9915 25.5966 32.9071 25.5761 32.7825L23.2753 18.7517C23.2549 18.6271 23.3393 18.5096 23.4639 18.4891Z" fill="#374874"/>
<path fill-rule="evenodd" clip-rule="evenodd" d="M25.9741 19.9676C26.099 19.9493 26.215 20.0358 26.2333 20.1607L28.2465 33.9245C28.2648 34.0494 28.1783 34.1655 28.0534 34.1837C27.9285 34.202 27.8125 34.1156 27.7942 33.9906L25.781 20.2269C25.7627 20.1019 25.8492 19.9859 25.9741 19.9676Z" fill="#374874"/>
<path fill-rule="evenodd" clip-rule="evenodd" d="M28.4837 21.5926C28.6089 21.5763 28.7237 21.6645 28.74 21.7896L30.4862 35.1399C30.5025 35.2651 30.4143 35.3799 30.2892 35.3962C30.164 35.4126 30.0493 35.3244 30.0329 35.1992L28.2867 21.8489C28.2704 21.7238 28.3586 21.609 28.4837 21.5926Z" fill="#374874"/>
<path fill-rule="evenodd" clip-rule="evenodd" d="M30.9946 22.8837C31.1201 22.8699 31.233 22.9604 31.2468 23.0859L32.7054 36.3361C32.7192 36.4616 32.6286 36.5745 32.5032 36.5883C32.3777 36.6021 32.2648 36.5116 32.251 36.3861L30.7924 23.1359C30.7786 23.0104 30.8691 22.8975 30.9946 22.8837Z" fill="#374874"/>
<path fill-rule="evenodd" clip-rule="evenodd" d="M33.5054 24.3418C33.6311 24.3305 33.7422 24.4232 33.7535 24.5489L34.9245 37.5526C34.9358 37.6783 34.843 37.7894 34.7173 37.8008C34.5916 37.8121 34.4805 37.7193 34.4692 37.5936L33.2982 24.5899C33.2869 24.4642 33.3796 24.3531 33.5054 24.3418Z" fill="#374874"/>
<path fill-rule="evenodd" clip-rule="evenodd" d="M35.9954 25.8C36.1213 25.791 36.2306 25.8859 36.2396 26.0118L37.1434 38.769C37.1524 38.8949 37.0575 39.0042 36.9316 39.0132C36.8057 39.0221 36.6964 38.9272 36.6874 38.8013L35.7836 26.0441C35.7746 25.9182 35.8695 25.8089 35.9954 25.8Z" fill="#374874"/>
<path fill-rule="evenodd" clip-rule="evenodd" d="M38.5077 27.2787C38.6338 27.2731 38.7406 27.3709 38.7461 27.497L39.3008 40.0282C39.3064 40.1543 39.2087 40.261 39.0826 40.2666C38.9564 40.2722 38.8497 40.1745 38.8441 40.0484L38.2894 27.5172C38.2839 27.3911 38.3816 27.2843 38.5077 27.2787Z" fill="#374874"/>
<path fill-rule="evenodd" clip-rule="evenodd" d="M41.0191 28.7371C41.1453 28.7344 41.2498 28.8345 41.2526 28.9607L41.5196 41.3275C41.5223 41.4537 41.4222 41.5583 41.296 41.561C41.1698 41.5637 41.0653 41.4636 41.0626 41.3374L40.7955 28.9705C40.7928 28.8443 40.8929 28.7398 41.0191 28.7371Z" fill="#374874"/>
<path fill-rule="evenodd" clip-rule="evenodd" d="M43.5089 30.342C43.6352 30.3416 43.7379 30.4435 43.7383 30.5698L43.7794 42.1945C43.7798 42.3207 43.6779 42.4234 43.5516 42.4238C43.4254 42.4243 43.3227 42.3223 43.3223 42.1961L43.2812 30.5714C43.2807 30.4451 43.3827 30.3424 43.5089 30.342Z" fill="#374874"/>
<path fill-rule="evenodd" clip-rule="evenodd" d="M22.5183 25.4744C22.5777 25.363 22.7162 25.3209 22.8276 25.3803L43.4759 36.3926C45.1189 37.2942 46.6952 37.4509 47.8146 36.9068C47.8827 36.8631 48.2161 36.6436 48.7029 36.3232C49.2556 35.9594 50.0061 35.4654 50.7906 34.9506C52.3014 33.9592 53.9363 32.8919 54.495 32.5505C54.6027 32.4847 54.7434 32.5186 54.8092 32.6263C54.875 32.734 54.8411 32.8747 54.7334 32.9406C54.1827 33.2771 52.5559 34.3389 51.0414 35.3328C50.2774 35.8341 49.5416 36.3185 48.9901 36.6814C48.4521 37.0355 48.0896 37.2741 48.0476 37.3004C48.041 37.3045 48.0342 37.3083 48.0273 37.3117C46.7236 37.9525 44.9775 37.7377 43.2572 36.794C43.2568 36.7938 43.2564 36.7936 43.256 36.7934L22.6124 25.7836C22.501 25.7242 22.4589 25.5858 22.5183 25.4744Z" fill="#374874"/>
<path fill-rule="evenodd" clip-rule="evenodd" d="M46.0636 31.0816C46.1898 31.0853 46.2892 31.1905 46.2855 31.3167L45.9774 42.058C45.9738 42.1842 45.8686 42.2836 45.7424 42.28C45.6162 42.2763 45.5168 42.1711 45.5204 42.0449L45.8286 31.3036C45.8322 31.1774 45.9374 31.078 46.0636 31.0816Z" fill="#374874"/>
<path fill-rule="evenodd" clip-rule="evenodd" d="M50.9457 29.2721C51.0714 29.2838 51.1639 29.3951 51.1523 29.5208L50.2289 39.5046C50.2173 39.6303 50.106 39.7228 49.9803 39.7112C49.8546 39.6996 49.7621 39.5882 49.7737 39.4625L50.6971 29.4787C50.7087 29.353 50.82 29.2605 50.9457 29.2721Z" fill="#374874"/>
<path fill-rule="evenodd" clip-rule="evenodd" d="M48.953 30.4224C49.0788 30.4335 49.1718 30.5443 49.1608 30.6701L48.1998 41.64C48.1887 41.7658 48.0779 41.8588 47.9521 41.8478C47.8264 41.8368 47.7333 41.7259 47.7444 41.6001L48.7054 30.6302C48.7164 30.5044 48.8273 30.4114 48.953 30.4224Z" fill="#374874"/>
<path fill-rule="evenodd" clip-rule="evenodd" d="M53.2368 27.9456C53.3624 27.9587 53.4536 28.0711 53.4405 28.1966L52.4166 38.0301C52.4035 38.1557 52.2911 38.2468 52.1656 38.2338C52.04 38.2207 51.9488 38.1083 51.9619 37.9828L52.9858 28.1493C52.9989 28.0237 53.1113 27.9326 53.2368 27.9456Z" fill="#374874"/>
<path fill-rule="evenodd" clip-rule="evenodd" d="M20.6773 17.0793C20.8048 16.8613 21.0847 16.7879 21.3027 16.9153L43.0979 29.6564C44.3582 30.3446 45.596 30.686 46.7144 30.686C47.4491 30.686 48.1335 30.5363 48.7169 30.2471C48.8106 30.1916 49.0636 30.0458 49.402 29.8506C49.4568 29.819 49.5139 29.7861 49.5729 29.7521C50.0891 29.4543 50.785 29.0529 51.5192 28.6279C52.9912 27.7757 54.6073 26.8342 55.2472 26.4381C55.4619 26.3052 55.7437 26.3715 55.8765 26.5861C56.0094 26.8008 55.9431 27.0826 55.7285 27.2154C55.0742 27.6205 53.4437 28.5701 51.9773 29.4191C51.2423 29.8446 50.5459 30.2463 50.0297 30.5441C49.6934 30.738 49.4452 30.8813 49.3083 30.9603C49.2283 31.0065 49.1866 31.0305 49.1866 31.0305C49.1709 31.041 49.1545 31.0506 49.1375 31.059C48.4087 31.4234 47.5771 31.6003 46.7144 31.6003C45.4105 31.6003 44.0208 31.2032 42.6536 30.4555C42.6497 30.4534 42.646 30.4513 42.6422 30.4491L20.8413 17.7047C20.6233 17.5772 20.5499 17.2973 20.6773 17.0793Z" fill="#374874"/>
<path fill-rule="evenodd" clip-rule="evenodd" d="M33.0255 9.9278C33.1629 9.71598 33.446 9.65564 33.6578 9.79302L54.523 23.3257C54.5285 23.3292 54.534 23.3329 54.5393 23.3367C55.6395 24.1196 56.3799 25.0737 56.0499 26.2561C55.982 26.4993 55.7299 26.6414 55.4867 26.5736C55.2435 26.5057 55.1014 26.2536 55.1692 26.0104C55.3319 25.4277 55.047 24.8221 54.0171 24.0873L33.1603 10.5601C32.9485 10.4227 32.8881 10.1396 33.0255 9.9278Z" fill="#374874"/>
<path fill-rule="evenodd" clip-rule="evenodd" d="M33.7143 10.0572C33.8407 10.2757 33.8564 10.4459 33.6379 10.5723L21.3008 17.7057C21.0823 17.8321 20.8026 17.7573 20.6762 17.5388C20.5499 17.3202 20.6246 17.0406 20.8432 16.9142L33.1802 9.78079C33.3988 9.65441 33.5879 9.83859 33.7143 10.0572Z" fill="#374874"/>
<path d="M17.8676 13.0986C16.3885 11.825 13.7271 10.1765 13.7271 10.1765L14.809 9.69312C20.144 11.6982 21.5044 16.4265 21.5044 16.4265L21.6071 16.8168L24.2263 32.8569C24.6782 35.1372 24.0299 36.629 22.1605 37.9848L21.2977 38.6011C19.9419 39.5872 18.9764 41.0252 18.6066 42.6686L18.0241 44.982L17.1592 45.4751L17.7416 43.1618C18.1114 41.5183 19.0769 40.0803 20.4328 39.0943L21.2956 38.478C23.165 37.1221 23.8133 35.6303 23.3613 33.35L20.7422 17.31H20.7436C20.6409 16.9197 19.8397 14.8037 17.8676 13.0986Z" fill="white"/>
<path d="M17.1605 45.475L17.743 43.1617C18.1128 41.5183 19.0783 40.0803 20.4341 39.0942L21.2969 38.4779C23.1663 37.1221 23.8146 35.6302 23.3627 33.35L20.7435 17.3099C20.6408 16.9196 19.8397 14.8037 17.8675 13.0986C16.3884 11.8249 13.727 10.1765 13.727 10.1765V11.1753C13.727 11.1753 15.4624 12.0792 16.9415 13.3529C18.9136 15.058 19.7148 17.1739 19.8175 17.5642L22.5818 32.9997C23.0337 35.28 22.3854 36.7719 20.516 38.1277L19.6532 38.744C18.2974 39.73 17.3319 41.1681 16.9621 42.8115L16.3109 45.0918L17.1605 45.475Z" fill="#C1DBF6"/>
<path d="M17.8676 13.0986C16.3885 11.825 13.7271 10.1765 13.7271 10.1765L14.809 9.69312C20.144 11.6982 21.5044 16.4265 21.5044 16.4265L21.6071 16.8168L24.2263 32.8569C24.6782 35.1372 24.0299 36.629 22.1605 37.9848L21.2977 38.6011C19.9419 39.5872 18.9764 41.0252 18.6066 42.6686L18.0241 44.982L17.1592 45.4751L17.7416 43.1618C18.1114 41.5183 19.0769 40.0803 20.4328 39.0943L21.2956 38.478C23.165 37.1221 23.8133 35.6303 23.3613 33.35L20.7422 17.31H20.7436C20.6409 16.9197 19.8397 14.8037 17.8676 13.0986Z" fill="white"/>
<path d="M26.6847 1.52212C32.3968 3.52724 33.8533 8.25553 33.8533 8.25553L33.9633 8.64584L34.2309 10.1765V10.1765C33.7116 9.85741 33.0612 9.84098 32.5265 10.1335L32.2212 10.3004L32.0473 9.39325C31.9373 9.00294 31.0795 6.88701 28.968 5.18196C27.3844 3.90829 25.5263 3.0044 25.5263 3.0044V2.00557L26.6847 1.52212ZM26.6565 0.543236L26.3327 0.67839L25.1742 1.16182L24.6121 1.39642V3.57638L25.1264 3.82657C25.1437 3.83503 26.9151 4.7041 28.395 5.89441C30.1767 7.33313 31.0165 9.16157 31.1579 9.61L31.3233 10.4727L31.5595 11.7046L32.66 11.1026L33.3645 10.7172L33.7522 10.9555L35.481 12.018L35.1315 10.0191L34.8639 8.4884L34.8559 8.44262L34.8433 8.39789L34.7333 8.00758L34.7303 7.99693L34.7271 7.98637C34.6621 7.7753 33.0649 2.79279 26.9876 0.659441L26.6565 0.543236Z" fill="#374874"/>
<path d="M14.809 9.69308C20.144 11.6982 21.5044 16.4265 21.5044 16.4265L21.6071 16.8168L24.2263 32.8568C24.6782 35.1371 24.0299 36.6289 22.1605 37.9848L21.2977 38.6011C19.9418 39.5871 18.9763 41.0251 18.6066 42.6686L18.0241 44.9818L35.6623 52.8364C36.6828 53.3205 37.6282 53.6129 38.4881 53.6129C38.9784 53.6129 39.4409 53.5178 39.8736 53.3089C39.8736 53.3089 41.1417 52.5816 42.4527 51.8222C42.4458 51.7428 42.4415 51.6631 42.4415 51.5833C42.4415 51.0438 42.8373 50.6456 43.3045 50.5328C43.3 49.8623 43.311 49.1184 43.3234 48.6297L31.4327 40.447C31.4033 40.5178 31.3725 40.592 31.3412 40.6674C32.0993 41.3526 32.6207 42.2617 32.6014 43.2429C32.6014 43.6743 32.4987 43.8797 32.4576 43.9208C31.9851 44.2906 31.2866 44.7014 31.0196 44.8452C31.0564 44.8218 31.0901 44.7953 31.1223 44.7674C30.9458 44.9116 30.7058 44.9834 30.4544 44.9834C30.1662 44.9834 29.8629 44.8891 29.6227 44.7014C28.9037 44.1467 28.1641 43.0169 28.1641 41.8665C28.1641 41.327 28.5599 40.9289 29.027 40.816C29.0224 40.0902 29.0357 39.2816 29.0491 38.8067L29.0474 38.8056V37.5767L29.1248 37.1905L29.5318 35.3073L30.128 35.6626H30.0573L31.2094 36.3045L30.9239 37.8747L30.9139 37.8757L45.0915 47.7212C45.9954 48.1526 46.4679 49.036 46.4268 49.6934C46.4204 49.8084 46.4171 49.8667 46.4171 49.8667C46.4171 49.8667 46.4203 49.8094 46.4268 49.6934L46.3524 51.2184C46.6897 51.739 46.8908 52.3247 46.8787 52.9392C46.8787 53.3706 46.776 53.576 46.7349 53.6171C46.2967 53.9601 45.6684 54.3356 45.3659 54.5034C45.193 54.6286 44.9672 54.6903 44.7312 54.6903C44.4433 54.6903 44.1403 54.5985 43.9 54.4183C43.6245 54.2058 43.3464 53.9084 43.1077 53.5582C41.8161 54.3681 40.5309 55.1784 40.5309 55.1784C39.9557 55.4659 39.3189 55.6098 38.6205 55.6098C38.4059 55.6098 38.1514 55.589 37.8751 55.5522C37.8216 55.6831 37.7616 55.8294 37.6985 55.983C38.4603 56.6693 38.9697 57.5822 38.9697 58.5679C38.9697 58.9993 38.867 59.2048 38.8259 59.2459C38.3647 59.6068 37.691 60.0051 37.4106 60.1577C37.2471 60.2617 37.0439 60.313 36.832 60.313C36.5412 60.313 36.234 60.2163 35.991 60.0265C35.272 59.4718 34.5324 58.3419 34.5324 57.1915C34.5324 56.6543 34.9249 56.2573 35.3894 56.1425C35.3878 55.7356 35.3909 55.3027 35.3954 54.9169C35.2578 54.8638 35.1249 54.8084 34.9973 54.7512C34.9966 54.7509 34.9958 54.7506 34.9951 54.7503C34.8455 54.6832 34.7035 54.6137 34.5735 54.5415L19.0693 47.548C18.9935 47.7341 18.8915 47.984 18.7785 48.2588C19.5403 48.9451 20.0497 49.858 20.0497 50.8438C20.0497 51.2752 19.9469 51.4806 19.9058 51.5217C19.4676 51.8647 18.8393 52.2402 18.5368 52.408C18.3639 52.5332 18.1381 52.5949 17.9021 52.5949C17.6142 52.5949 17.3112 52.5031 17.0709 52.3229C16.3519 51.7682 15.6124 50.6383 15.6124 49.4879C15.6124 48.9507 16.0049 48.5537 16.4695 48.4389C16.4663 47.6948 16.4788 46.8594 16.4876 46.3835L16.3108 46.3038V45.0918L16.9621 42.8115C17.3318 41.168 18.2973 39.73 19.6532 38.744L20.516 38.1277C22.3854 36.7719 23.0337 35.28 22.5817 32.9997L19.8175 17.5642C19.7148 17.1739 18.9136 15.058 16.9415 13.3529C15.4624 12.0792 13.727 11.1754 13.727 11.1754V10.1765L14.809 9.69308ZM31.1644 44.7283C31.1572 44.7354 31.1499 44.7423 31.1425 44.7491C31.1501 44.7425 31.1573 44.7355 31.1644 44.7283C31.1716 44.7213 31.1785 44.7142 31.1853 44.707C31.1783 44.7141 31.1715 44.7213 31.1644 44.7283ZM14.779 8.70508L14.436 8.85833L13.3541 9.34176L12.8128 9.58364V11.73L13.3047 11.9863C13.3208 11.9947 14.9685 12.8604 16.345 14.0457C18.009 15.4844 18.794 17.3201 18.9251 17.7672L21.6818 33.1609L21.6833 33.1692L21.685 33.1775C22.0605 35.0723 21.5982 36.2134 19.9793 37.3876L19.1218 38C17.5739 39.1257 16.4953 40.7514 16.0761 42.5845L15.4317 44.8407L15.3966 44.9638V46.8944L15.5639 46.9699C15.5602 47.2406 15.557 47.5498 15.5555 47.8651C15.029 48.2322 14.6981 48.8294 14.6981 49.488C14.6981 50.9795 15.6094 52.3501 16.5125 53.0468L16.5174 53.0506L16.5224 53.0543C16.9136 53.3477 17.4035 53.5092 17.9022 53.5092C18.3195 53.5092 18.705 53.3972 19.0216 53.1845C19.2138 53.0763 19.9267 52.6665 20.4694 52.2417L20.5131 52.2075L20.5523 52.1683C20.8178 51.9029 20.964 51.4325 20.964 50.8438C20.964 50.3 20.8474 49.7627 20.6242 49.2524L34.1647 55.3601C34.2617 55.413 34.3646 55.4651 34.4759 55.5178C34.4758 55.5348 34.4757 55.5518 34.4757 55.5687C33.9492 55.9358 33.6182 56.5331 33.6182 57.1916C33.6182 58.6831 34.5295 60.0537 35.4326 60.7504C35.8247 61.0568 36.3233 61.2274 36.8322 61.2274C37.2123 61.2274 37.5707 61.1309 37.8713 60.948C38.1903 60.7727 38.8854 60.3604 39.3895 59.9659L39.4333 59.9317L39.4726 59.8923C39.7379 59.6269 39.8841 59.1566 39.8841 58.568C39.8841 57.8462 39.6787 57.1359 39.291 56.4848C39.8774 56.4147 40.4298 56.2512 40.94 55.9962L40.9804 55.9759L41.0187 55.9518C41.0189 55.9517 41.8872 55.4043 42.9132 54.7598C43.0515 54.9008 43.1951 55.0292 43.3417 55.1422L43.3466 55.146L43.3516 55.1497C43.7427 55.4431 44.2327 55.6046 44.7313 55.6046C45.1487 55.6046 45.5343 55.4925 45.8508 55.2798C46.0431 55.1716 46.7559 54.7618 47.2985 54.3372L47.3423 54.3029L47.3817 54.2635C47.6456 53.9994 47.7916 53.5326 47.7931 52.9482C47.8044 52.2855 47.6276 51.6131 47.2792 50.9864L47.3398 49.7429C47.4078 48.6468 46.6781 47.4991 45.557 46.9314L31.9275 37.4665L32.0893 36.5768L33.4475 36.5766L32.2222 35.8463L32.2262 35.8243L31.6545 35.5059L31.5992 35.4751L30.5962 34.8773L30 34.522L28.907 33.8707L28.6382 35.1142L28.2312 36.9974L28.2297 37.0042L28.2284 37.011L28.151 37.3972L28.1332 37.4861V38.8553C28.124 39.2064 28.1149 39.7138 28.1125 40.2397C27.5828 40.6061 27.2499 41.2047 27.2499 41.8666C27.2499 43.3581 28.1612 44.7288 29.0643 45.4254C29.4526 45.7288 29.9479 45.8978 30.4544 45.8978C30.815 45.8978 31.1593 45.8097 31.4505 45.6459L31.4531 45.6503C31.7011 45.5168 32.4662 45.0752 33.0211 44.6409L33.0649 44.6066L33.1041 44.5673C33.3682 44.3033 33.5142 43.8363 33.5157 43.2519C33.5172 43.1634 33.5155 43.075 33.5106 42.9868L42.3991 49.1035C42.3947 49.3661 42.3912 49.6594 42.3898 49.9565C41.9401 50.2675 41.6322 50.7461 41.5495 51.2886C40.5296 51.8782 39.6249 52.3976 39.4494 52.4983C39.1598 52.6331 38.8449 52.6987 38.4881 52.6987C37.8267 52.6987 37.0305 52.4735 36.0542 52.0104L36.0443 52.0057L36.0343 52.0012L19.0985 44.4594L19.4932 42.8918L19.496 42.8806L19.4985 42.8693C19.8159 41.4589 20.6458 40.2057 21.8354 39.3405L22.6919 38.7288C24.8842 37.1388 25.6338 35.2784 25.1262 32.6946L22.5095 16.6695L22.5024 16.6264L22.4913 16.5842L22.3886 16.1939L22.386 16.1838L22.3831 16.1737C22.3223 15.9626 20.8301 10.9793 15.1306 8.83726L14.779 8.70508Z" fill="#374874"/>
</svg>
