<svg width="64" height="64" viewBox="0 0 64 64" fill="none" xmlns="http://www.w3.org/2000/svg">
<path fill-rule="evenodd" clip-rule="evenodd" d="M11.2327 23.0633C11.5288 23.0633 11.7688 23.3034 11.7688 23.5994V62.7245C11.7688 63.0206 11.5288 63.2606 11.2327 63.2606C10.9366 63.2606 10.6966 63.0206 10.6966 62.7245V23.5994C10.6966 23.3034 10.9366 23.0633 11.2327 23.0633Z" fill="#ECECEC"/>
<path fill-rule="evenodd" clip-rule="evenodd" d="M17.7089 19.3921C18.0049 19.3921 18.245 19.6321 18.245 19.9282V59.0361C18.245 59.3322 18.0049 59.5722 17.7089 59.5722C17.4128 59.5722 17.1728 59.3322 17.1728 59.0361V19.9282C17.1728 19.6321 17.4128 19.3921 17.7089 19.3921Z" fill="#ECECEC"/>
<path fill-rule="evenodd" clip-rule="evenodd" d="M23.7733 15.9867C24.0694 15.9867 24.3094 16.2267 24.3094 16.5228V55.5836C24.3094 55.8797 24.0694 56.1197 23.7733 56.1197C23.4772 56.1197 23.2372 55.8797 23.2372 55.5836V16.5228C23.2372 16.2267 23.4772 15.9867 23.7733 15.9867Z" fill="#ECECEC"/>
<path fill-rule="evenodd" clip-rule="evenodd" d="M29.8356 12.5642C30.1317 12.5642 30.3717 12.8043 30.3717 13.1003V52.0174C30.3717 52.3135 30.1317 52.5535 29.8356 52.5535C29.5395 52.5535 29.2995 52.3135 29.2995 52.0174V13.1003C29.2995 12.8043 29.5395 12.5642 29.8356 12.5642Z" fill="#ECECEC"/>
<path fill-rule="evenodd" clip-rule="evenodd" d="M35.7885 9.20606C36.0846 9.20606 36.3246 9.44608 36.3246 9.74216V48.7386C36.3246 49.0347 36.0846 49.2747 35.7885 49.2747C35.4925 49.2747 35.2524 49.0347 35.2524 48.7386V9.74216C35.2524 9.44608 35.4925 9.20606 35.7885 9.20606Z" fill="#ECECEC"/>
<path fill-rule="evenodd" clip-rule="evenodd" d="M41.9623 5.72135C42.2584 5.72135 42.4984 5.96137 42.4984 6.25745V45.2239C42.4984 45.5199 42.2584 45.76 41.9623 45.76C41.6663 45.76 41.4262 45.5199 41.4262 45.2239V6.25745C41.4262 5.96137 41.6663 5.72135 41.9623 5.72135Z" fill="#ECECEC"/>
<path fill-rule="evenodd" clip-rule="evenodd" d="M48.0268 2.51758C48.3229 2.51758 48.5629 2.7576 48.5629 3.05368V41.8014C48.5629 42.0974 48.3229 42.3375 48.0268 42.3375C47.7307 42.3375 47.4907 42.0974 47.4907 41.8014V3.05368C47.4907 2.7576 47.7307 2.51758 48.0268 2.51758Z" fill="#ECECEC"/>
<path fill-rule="evenodd" clip-rule="evenodd" d="M50.8987 5.56324C51.0452 5.82052 50.9554 6.14787 50.6982 6.2944L11.7253 28.4914C11.468 28.6379 11.1407 28.5481 10.9941 28.2909C10.8476 28.0336 10.9374 27.7062 11.1947 27.5597L50.1675 5.36272C50.4248 5.21618 50.7521 5.30596 50.8987 5.56324Z" fill="#ECECEC"/>
<path fill-rule="evenodd" clip-rule="evenodd" d="M50.8987 12.4791C51.0452 12.7363 50.9554 13.0637 50.6981 13.2102L11.498 35.5337C11.2407 35.6802 10.9134 35.5904 10.7668 35.3331C10.6203 35.0759 10.7101 34.7485 10.9674 34.602L50.1675 12.2785C50.4248 12.132 50.7522 12.2218 50.8987 12.4791Z" fill="#ECECEC"/>
<path fill-rule="evenodd" clip-rule="evenodd" d="M50.8987 19.3927C51.0452 19.65 50.9554 19.9773 50.6981 20.1238L11.498 42.4474C11.2407 42.5939 10.9134 42.5041 10.7668 42.2468C10.6203 41.9895 10.7101 41.6622 10.9674 41.5156L50.1675 19.1921C50.4248 19.0456 50.7522 19.1354 50.8987 19.3927Z" fill="#ECECEC"/>
<path fill-rule="evenodd" clip-rule="evenodd" d="M50.8987 26.3063C51.0452 26.5636 50.9554 26.891 50.6981 27.0375L11.5495 49.3331C11.2922 49.4796 10.9648 49.3899 10.8183 49.1326C10.6718 48.8753 10.7616 48.5479 11.0188 48.4014L50.1675 26.1058C50.4248 25.9592 50.7522 26.049 50.8987 26.3063Z" fill="#ECECEC"/>
<path fill-rule="evenodd" clip-rule="evenodd" d="M50.8987 33.22C51.0452 33.4772 50.9554 33.8046 50.6981 33.9511L11.498 56.2768C11.2407 56.4233 10.9134 56.3335 10.7668 56.0762C10.6203 55.8189 10.7101 55.4916 10.9674 55.3451L50.1675 33.0194C50.4248 32.8729 50.7522 32.9627 50.8987 33.22Z" fill="#ECECEC"/>
<path fill-rule="evenodd" clip-rule="evenodd" d="M50.8987 40.1336C51.0452 40.3909 50.9554 40.7182 50.6981 40.8647L11.498 63.1904C11.2407 63.3369 10.9134 63.2471 10.7668 62.9899C10.6203 62.7326 10.7101 62.4052 10.9674 62.2587L50.1675 39.933C50.4248 39.7865 50.7522 39.8763 50.8987 40.1336Z" fill="#ECECEC"/>
<path d="M20.3597 51.6602C20.1992 51.6602 20.0376 51.6477 19.8791 51.6234C19.3887 51.5522 18.9294 51.3707 18.518 51.0846L14.6184 48.4571C13.9716 48.0109 13.9242 47.0067 14.4959 45.9556C14.9041 45.2045 15.7126 44.6594 16.4182 44.6594C16.6278 44.6594 16.8162 44.7065 16.9783 44.7998C17.0191 44.823 17.0593 44.852 17.097 44.8853L20.0037 47.0991C20.0084 47.1027 20.0129 47.1056 20.0178 47.1078C20.0245 47.1093 20.0309 47.1109 20.0374 47.1125C20.0486 47.1136 20.0566 47.114 20.0628 47.114C20.0716 47.114 20.0765 47.1131 20.0816 47.1118L20.1048 47.1024C20.1097 47.0982 20.1193 47.0904 20.1244 47.0864C20.1251 47.0848 20.1367 47.064 20.1374 47.0625L28.2432 30.4797C28.7633 29.3772 29.8932 28.6611 31.1189 28.6611C31.5896 28.6611 32.0457 28.7636 32.4742 28.9658C32.6584 29.0526 32.8349 29.1578 32.999 29.2781L40.3845 34.3216C40.3994 34.3323 40.4088 34.3374 40.4175 34.3406L40.4311 34.3428C40.4396 34.3428 40.4483 34.3437 40.4573 34.3448C40.4749 34.3426 40.4997 34.335 40.518 34.3098L42.914 30.5183L51.0512 17.6254C49.6702 16.3145 49.1559 14.8975 49.7419 13.9486C49.8162 13.8283 49.9104 13.7178 50.0291 13.6125C50.0439 13.5971 50.0597 13.5826 50.0769 13.5692C50.0845 13.5631 50.0936 13.5564 50.1028 13.5502C50.1805 13.4877 50.2637 13.4317 50.3506 13.3837L58.168 8.12967C58.2448 8.07811 58.3338 8.052 58.4229 8.052C58.501 8.052 58.5794 8.07209 58.6497 8.11228C58.8006 8.19845 58.8896 8.36295 58.8791 8.53639C58.8791 8.53639 58.2912 18.4089 58.2908 18.4141C58.2878 18.4458 58.2818 18.4766 58.2729 18.506C58.239 18.7205 58.1686 18.915 58.0633 19.0859C57.7211 19.6399 57.043 19.9453 56.1539 19.9453C55.6354 19.9453 55.0497 19.8431 54.4421 19.6482L43.3352 37.5795C42.8251 38.404 41.9785 38.9444 41.0126 39.0618C41.0064 39.0625 40.9961 39.0636 40.9896 39.0643C40.8939 39.0754 40.8131 39.0815 40.7318 39.0844C40.7267 39.0846 40.5749 39.0846 40.5749 39.0846C40.5298 39.0846 40.4847 39.0837 40.4396 39.0808C40.343 39.0755 40.2434 39.0647 40.1443 39.0498C40.1403 39.0493 40.1361 39.0487 40.1321 39.0478C39.6568 38.9741 39.2151 38.7987 38.8189 38.5259L31.5267 33.4728C31.5171 33.4665 31.5006 33.4618 31.4818 33.4618C31.4812 33.4618 31.4747 33.4621 31.4687 33.4625C31.46 33.4645 31.4497 33.467 31.4497 33.467C31.4379 33.4721 31.4251 33.4821 31.4151 33.4969L23.228 49.8565C22.707 50.9491 21.5798 51.6602 20.3597 51.6602Z" fill="white"/>
<path d="M58.4229 8.50913H58.424ZM58.4229 8.50913L57.8359 18.3639C57.8366 18.3445 57.8349 18.3247 57.8357 18.3052C57.8226 18.5021 57.7732 18.6854 57.6742 18.8458C57.407 19.2785 56.8574 19.4881 56.154 19.4881C55.5939 19.4881 54.9363 19.3552 54.2462 19.096L42.9466 37.3388C42.4937 38.0708 41.7502 38.5117 40.9574 38.6081C40.9547 38.6085 40.9519 38.6085 40.9492 38.6088C40.8718 38.618 40.7942 38.6249 40.7161 38.6274C40.7118 38.6275 40.7075 38.6276 40.7032 38.6276C40.6878 38.6276 40.6724 38.6268 40.657 38.6268C40.6553 38.6268 40.6536 38.6268 40.652 38.6268C40.6263 38.6271 40.6007 38.6274 40.5751 38.6274C40.5393 38.6274 40.5035 38.6268 40.4677 38.6247C40.3822 38.6199 40.2969 38.6105 40.2119 38.5977C40.2117 38.5976 40.2115 38.5976 40.2112 38.5976C39.8153 38.5375 39.4275 38.3899 39.0781 38.1494L31.787 33.0972C31.6937 33.0341 31.5873 33.0045 31.4814 33.0045C31.4679 33.0045 31.4545 33.005 31.4411 33.006C31.4283 33.0071 31.4155 33.0073 31.4028 33.0093C31.3902 33.0111 31.3779 33.0144 31.3654 33.0171C31.34 33.0229 31.3147 33.0292 31.2903 33.0386C31.2883 33.0394 31.2862 33.0403 31.2842 33.0411C31.1879 33.0797 31.1014 33.1459 31.0382 33.2379C31.0221 33.2613 31.0079 33.286 30.9957 33.3116L22.819 49.6522C22.3521 50.6314 21.3765 51.2031 20.3594 51.2031C20.2228 51.2031 20.0854 51.1927 19.9484 51.1717C19.5394 51.1123 19.1386 50.9597 18.7789 50.7094L14.8739 48.0782C14.445 47.7822 14.445 47.0059 14.8974 46.1739C15.2578 45.5112 15.9283 45.1165 16.4182 45.1166C16.5434 45.1166 16.6568 45.1424 16.7502 45.1961C16.7691 45.2069 16.7869 45.2207 16.8037 45.2367L19.7267 47.4627C19.7881 47.5099 19.8565 47.5412 19.9271 47.5586C19.9256 47.5576 19.9233 47.5559 19.9219 47.5549C19.967 47.5667 20.0123 47.5722 20.0571 47.5722C20.1025 47.5722 20.1474 47.5665 20.1907 47.5558C20.196 47.5545 20.2015 47.5536 20.2068 47.5521C20.2271 47.5464 20.2465 47.5385 20.266 47.5306C20.279 47.5252 20.292 47.5199 20.3046 47.5134C20.318 47.5067 20.3308 47.499 20.3435 47.4912C20.3633 47.4789 20.3827 47.4657 20.401 47.4506C20.4065 47.4462 20.412 47.4418 20.4173 47.4372C20.4424 47.4148 20.4662 47.3904 20.4874 47.3627C20.5111 47.3319 20.5315 47.2985 20.548 47.2633L28.6539 30.6804C29.1186 29.6955 30.0975 29.1183 31.1189 29.1183C31.5081 29.1184 31.9037 29.2022 32.279 29.3793C32.4371 29.4539 32.5875 29.5434 32.7284 29.6468L40.1267 34.6991C40.186 34.7423 40.2513 34.7712 40.3184 34.7875C40.3281 34.79 40.3378 34.7904 40.3475 34.7924C40.3736 34.7972 40.3998 34.8017 40.426 34.8027C40.4264 34.8027 40.4267 34.8028 40.4271 34.8028C40.4285 34.8028 40.4299 34.8027 40.4313 34.8027C40.4316 34.8027 40.432 34.8027 40.4323 34.8027C40.4371 34.8028 40.4418 34.8028 40.4466 34.8028C40.615 34.8028 40.781 34.7255 40.8875 34.5789C40.8937 34.5705 40.8995 34.562 40.9051 34.5532L43.3004 30.7626L51.643 17.5445C50.2863 16.3724 49.6256 15.0073 50.1308 14.1888C50.1948 14.0852 50.2789 13.9977 50.3735 13.9194C50.3705 13.9216 50.3672 13.9234 50.3641 13.9253L50.3755 13.9176C50.4402 13.8644 50.5106 13.8164 50.588 13.7748L58.4229 8.50913ZM50.3641 13.9253L50.3599 13.9281C50.3612 13.9271 50.3626 13.9262 50.3641 13.9253ZM57.8359 18.3639C57.8358 18.3671 57.8356 18.3703 57.8354 18.3735L57.8359 18.3639ZM58.4241 7.59485H58.4229C58.2297 7.59485 58.0504 7.65478 57.9028 7.75713L50.1105 12.9941C50.0128 13.0496 49.9187 13.113 49.8299 13.1831C49.824 13.1873 49.8183 13.1914 49.813 13.1954C49.7766 13.2226 49.743 13.2518 49.7119 13.283C49.5659 13.4147 49.4479 13.5546 49.3529 13.7085C48.6904 14.7815 49.1317 16.2936 50.4695 17.6907L42.5272 30.2746L40.3393 33.7371L33.2559 28.8998C33.072 28.7662 32.8747 28.6493 32.6692 28.5524C32.1793 28.3212 31.6577 28.204 31.119 28.204C29.7195 28.2039 28.4293 29.0202 27.83 30.2841L19.922 46.4622L17.3852 44.5303C17.328 44.4813 17.2672 44.4383 17.2038 44.4021C16.9737 44.2699 16.7088 44.2023 16.4182 44.2023C15.5414 44.2022 14.5857 44.8333 14.0943 45.7371C13.4051 47.0044 13.5097 48.2476 14.3546 48.8306L18.2625 51.4639C18.7247 51.7841 19.2621 51.9959 19.8171 52.0765C19.9909 52.1032 20.1759 52.1173 20.3594 52.1173C21.7517 52.1173 23.0384 51.3078 23.6402 50.0541L31.625 34.0972L38.5573 38.9009C39.0147 39.2157 39.5223 39.4169 40.0683 39.5006C40.0705 39.501 40.0727 39.5013 40.0749 39.5017C40.1917 39.5194 40.3068 39.5314 40.4169 39.5376C40.4677 39.5406 40.5214 39.5417 40.5752 39.5417L40.6456 39.5412L40.6599 39.5411L40.7032 39.5419C40.7184 39.5419 40.7335 39.5417 40.7486 39.5411C40.8392 39.5382 40.9367 39.5307 41.0438 39.5183C41.0526 39.5175 41.0613 39.5165 41.069 39.5156C42.1722 39.3814 43.1404 38.7633 43.7241 37.8199L54.6471 20.1852C55.1774 20.3282 55.6889 20.4024 56.154 20.4024C57.2075 20.4024 58.0236 20.0202 58.4521 19.3261C58.5853 19.1105 58.6749 18.8689 58.7199 18.6055C58.7328 18.5559 58.7418 18.5046 58.7463 18.4518C58.747 18.4433 58.7478 18.4315 58.7485 18.4203C58.7485 18.4196 58.7486 18.419 58.7486 18.4183L59.3336 8.59734C59.3364 8.56831 59.3378 8.53889 59.3378 8.50913C59.3378 8.0042 58.929 7.59485 58.4241 7.59485Z" fill="#374874"/>
<path d="M57.6741 18.8458C58.3037 17.826 57.1255 15.9567 55.0425 14.6707C52.9595 13.3847 50.7605 13.1689 50.1308 14.1888C49.5012 15.2086 50.6794 17.0779 52.7624 18.3639C54.8455 19.6499 57.0445 19.8657 57.6741 18.8458Z" fill="#C1DBF6"/>
<path d="M18.8368 50.7371L14.8739 48.078L16.7502 45.1959L19.7267 47.4626C19.9644 47.6451 20.305 47.6003 20.4874 47.3626C20.5111 47.3317 20.5314 47.2984 20.548 47.2632L28.654 30.6803C29.2957 29.32 30.9187 28.7374 32.279 29.3792C32.437 29.4537 32.5875 29.5433 32.7284 29.6467L40.1266 34.699C40.3699 34.8759 40.7106 34.8221 40.8875 34.5788C40.8936 34.5704 40.8995 34.5619 40.9051 34.5532L52.3499 16.4413C52.3499 16.4413 52.8881 15.8623 54.0997 16.4799C55.3114 17.0975 55.0497 17.7988 55.0497 17.7988L42.9466 37.3388C42.1552 38.6179 40.4768 39.0133 39.1977 38.2219C39.1601 38.1986 39.123 38.1745 39.0866 38.1494L31.7955 33.0971C31.5475 32.9268 31.2085 32.9899 31.0382 33.2379C31.0221 33.2613 31.0079 33.2859 30.9957 33.3115L22.819 49.6521C22.1717 51.0098 20.5463 51.5856 19.1886 50.9383C19.0665 50.8801 18.9489 50.8128 18.8368 50.7371Z" fill="white"/>
<path d="M54.7066 14.475C56.2313 15.292 57.9554 16.9711 57.8354 18.3735L58.4229 8.50916L50.3599 13.9281C51.4171 13.1368 53.2377 13.6987 54.7066 14.475Z" fill="white"/>
<path d="M16.7502 45.1961C17.0354 45.359 17.0933 46.1374 16.6344 46.9673C16.1755 47.7972 15.2663 48.3419 14.8739 48.0782C14.445 47.7822 14.445 47.006 14.8974 46.1739C15.3499 45.3419 16.2913 44.9323 16.7502 45.1961Z" fill="#C1DBF6"/>
<path fill-rule="evenodd" clip-rule="evenodd" d="M15.8723 45.3764C15.5431 45.5399 15.2124 45.834 14.9978 46.2285C14.7781 46.6327 14.6722 47.0164 14.6694 47.3281C14.6667 47.6403 14.7662 47.8646 14.9382 47.9837C15.003 48.027 15.0995 48.0439 15.2295 48.0201C15.359 47.9965 15.5104 47.9341 15.669 47.8357C15.9862 47.6391 16.3145 47.3098 16.5344 46.912C16.756 46.5114 16.8503 46.1273 16.8571 45.829C16.8605 45.6796 16.8419 45.5555 16.8092 45.4629C16.776 45.3687 16.7324 45.3175 16.6935 45.2953L16.6933 45.2951C16.5128 45.1914 16.2079 45.2098 15.8723 45.3764ZM16.8072 45.097C16.5287 44.9369 16.1335 44.9915 15.7706 45.1717C15.4012 45.3551 15.035 45.6817 14.797 46.1193C14.5644 46.5472 14.444 46.9676 14.4409 47.3261C14.4377 47.6836 14.5524 47.9952 14.809 48.1722L14.8101 48.173C14.9415 48.2613 15.1056 48.2751 15.2705 48.245C15.4361 48.2148 15.6144 48.1386 15.7894 48.03C16.1397 47.8128 16.4955 47.4548 16.7344 47.0226C16.9718 46.5934 17.0779 46.1734 17.0856 45.8342C17.0895 45.6648 17.0689 45.5119 17.0248 45.3869C16.9813 45.2634 16.9108 45.1563 16.8072 45.097Z" fill="#C1DBF6"/>
<path d="M40.7099 37.7162C39.5219 37.3731 33.2537 32.8205 32.0271 31.9263C31.9256 31.8524 31.7835 31.8748 31.7096 31.9763C31.7033 31.9849 31.6976 31.994 31.6926 32.0035C31.4396 32.4667 31.1737 32.9835 31.075 33.1808C31.2589 32.9804 31.5617 32.9448 31.787 33.0971L39.078 38.1494C40.2141 38.9314 41.7556 38.7397 42.6657 37.7034C42.6132 37.7061 42.5609 37.7118 42.5091 37.7205C42.1188 37.787 41.5892 37.9736 40.7099 37.7162Z" fill="#C1DBF6"/>
<path fill-rule="evenodd" clip-rule="evenodd" d="M31.6172 31.909C31.7282 31.7565 31.9418 31.7228 32.0944 31.8339C32.7075 32.2809 34.5804 33.6419 36.448 34.9339C37.382 35.58 38.3137 36.2082 39.0856 36.6959C39.4716 36.9399 39.8166 37.1481 40.1014 37.3056C40.3889 37.4647 40.6068 37.5675 40.7416 37.6064L40.742 37.6065C41.4602 37.8168 41.9283 37.7208 42.2979 37.6451C42.3648 37.6314 42.4285 37.6183 42.4899 37.6079C42.5461 37.5984 42.6029 37.5922 42.6597 37.5892L42.9303 37.5752L42.7515 37.7788C41.8032 38.8587 40.1971 39.0583 39.0132 38.2436L39.0129 38.2434L31.7229 33.1918C31.7228 33.1917 31.7226 33.1916 31.7224 33.1915C31.5441 33.0713 31.3047 33.0995 31.1592 33.258L30.6086 33.8581L30.9728 33.1297C31.0719 32.9314 31.3383 32.4137 31.592 31.9493C31.5995 31.9351 31.608 31.9217 31.6172 31.909ZM31.802 32.0435C31.7988 32.0479 31.796 32.0524 31.7936 32.0569L31.7929 32.0583C31.6338 32.3495 31.4696 32.662 31.3454 32.9024C31.5154 32.8673 31.698 32.899 31.851 33.0025L31.8521 33.0032L39.1428 38.0553C39.1429 38.0553 39.1428 38.0552 39.1428 38.0553C40.1356 38.7385 41.4517 38.6458 42.3368 37.8707C41.965 37.9473 41.4463 38.0508 40.678 37.826C40.5159 37.7791 40.2781 37.6646 39.9907 37.5056C39.7005 37.345 39.3513 37.1343 38.9635 36.8892C38.1876 36.3989 37.2529 35.7687 36.318 35.1219C34.4479 33.8283 32.5733 32.4659 31.9598 32.0186C31.9093 31.9819 31.8387 31.9931 31.802 32.0435Z" fill="#C1DBF6"/>
<path d="M20.443 50.2718C19.8211 50.0917 17.4922 48.5349 15.4829 47.141C15.2684 47.4476 15.0411 47.8208 14.8739 48.0781L18.7789 50.7093C19.9263 51.5076 21.4906 51.3145 22.4094 50.2611C22.3665 50.2611 21.3393 50.5292 20.443 50.2718Z" fill="#C1DBF6"/>
<path fill-rule="evenodd" clip-rule="evenodd" d="M15.4545 46.9822L15.548 47.0471C16.5523 47.7437 17.6356 48.4805 18.545 49.0654C18.9998 49.3579 19.4102 49.6118 19.7449 49.8035C20.0833 49.9972 20.3341 50.1213 20.4746 50.162C20.9033 50.2851 21.3681 50.2834 21.7356 50.2492C21.9186 50.2322 22.0756 50.2072 22.1897 50.1865C22.2467 50.1762 22.293 50.1669 22.3268 50.1601L22.329 50.1597C22.3447 50.1565 22.3585 50.1537 22.369 50.1518C22.3744 50.1507 22.38 50.1497 22.3851 50.149L22.3854 50.1489C22.3885 50.1484 22.3986 50.1468 22.4094 50.1468H22.6607L22.4955 50.3363C21.5386 51.4333 19.9095 51.6347 18.7143 50.8036L14.7168 48.1101L14.7781 48.0158C14.829 47.9374 14.8864 47.8469 14.9477 47.7501C15.0842 47.5347 15.2404 47.2883 15.3892 47.0755L15.4545 46.9822ZM15.512 47.3002C15.3867 47.4845 15.2601 47.6843 15.1448 47.8662C15.1052 47.9287 15.067 47.989 15.0306 48.0459L18.8442 50.6155C19.8449 51.3118 21.1767 51.221 22.0718 50.438C21.9797 50.452 21.8733 50.4659 21.7568 50.4768C21.376 50.5122 20.879 50.5159 20.4114 50.3817L20.4112 50.3816C20.2406 50.3322 19.9672 50.1941 19.6314 50.0018C19.2917 49.8074 18.8777 49.5511 18.4214 49.2577C17.5371 48.6889 16.4903 47.978 15.512 47.3002Z" fill="#C1DBF6"/>
<path d="M30.2966 30.2236C29.4388 31.1071 21.9505 46.8129 21.3222 48.1961C21.2704 48.3104 21.1357 48.3612 21.0213 48.3094C21.0119 48.3051 21.0028 48.3002 20.9941 48.2947C20.5459 48.016 20.0999 47.6771 19.9219 47.5549C20.1747 47.6208 20.4389 47.4986 20.5523 47.2633L28.669 30.6525C29.2748 29.4142 30.71 28.8232 32.0122 29.2758C31.9658 29.2999 31.9178 29.3207 31.8685 29.338C31.4889 29.4731 30.9378 29.5674 30.2966 30.2236Z" fill="#FBDBD0"/>
<path d="M53.7245 16.3213C53.7245 16.3213 42.359 34.0429 41.7157 35.426C41.6747 35.5371 41.5514 35.594 41.4403 35.553C41.4214 35.5461 41.4037 35.5365 41.3876 35.5247C40.9394 35.2459 40.4934 34.9071 40.3154 34.787C40.5687 34.8525 40.8331 34.7294 40.9458 34.4932L52.3392 16.4414C52.9182 15.9696 53.7245 16.3213 53.7245 16.3213Z" fill="#FBDBD0"/>
</svg>
