<svg width="41" height="64" viewBox="0 0 41 64" fill="none" xmlns="http://www.w3.org/2000/svg">
<path d="M37.3387 63.9999C36.7637 64.0052 36.1967 63.8639 35.6914 63.5893L2.62385 44.4981C1.63699 43.8842 1.02039 42.8194 0.979126 41.6579V3.46248C1.04776 2.30902 1.6576 1.25593 2.62385 0.622286L2.99566 0.407981C4.02559 -0.135994 5.25777 -0.135994 6.2877 0.407981L39.3553 19.5147C40.3431 20.1276 40.9601 21.193 41 22.3549V60.5245C40.9314 61.6779 40.3215 62.731 39.3553 63.3647L38.9835 63.579" fill="#374874"/>
<path d="M38.5265 62.5694L38.8957 62.3577C39.5267 61.9435 39.9242 61.2548 39.9672 60.5013V22.3497C39.925 21.5959 39.5273 20.9069 38.8957 20.4933L5.84618 1.41754C5.17251 1.07659 4.3768 1.07659 3.70313 1.41754L3.3339 1.62926C2.70583 2.04517 2.31138 2.73355 2.27012 3.48571V41.6372C2.31069 42.3916 2.70878 43.0812 3.34165 43.4937L36.3911 62.5694C37.0621 62.9103 37.8555 62.9103 38.5265 62.5694Z" fill="white"/>
<path d="M39.9672 41.4255V22.3472C39.9553 21.9749 39.8496 21.6117 39.6599 21.2911L35.0614 24.0074V61.7432L36.4221 62.5488C37.1066 62.9051 37.922 62.9051 38.6065 62.5488L38.9163 62.3655C39.536 61.9494 39.9249 61.2671 39.9672 60.5219V41.4255Z" fill="#FBDBD0"/>
<path d="M2.27012 3.5451C2.27012 2.86604 2.75295 2.58718 3.34165 2.928L36.3163 21.965C36.9477 22.3761 37.3449 23.064 37.3852 23.8163V61.8955C37.3852 62.5772 36.9075 62.8535 36.3163 62.5126L3.33907 43.473C2.70767 43.0619 2.31048 42.3741 2.27012 41.6217V3.5451Z" fill="white"/>
</svg>
