<svg width="50" height="50" viewBox="0 0 50 50" fill="none" xmlns="http://www.w3.org/2000/svg">
<g clip-path="url(#clip0_13_62)">
<path d="M20.6727 0.0282367C22.1405 -0.20371 23.4998 1.0197 23.4999 2.72746V22.5702C23.4999 23.3658 23.1835 24.1297 22.621 24.6923L8.58973 38.7235C7.38214 39.9308 5.55638 39.8344 4.6825 38.6327C2.60813 35.7788 1.16478 32.4967 0.470591 29.0068C-0.474579 24.2544 0.0108569 19.3281 1.86512 14.8515C3.71949 10.3749 6.8597 6.54836 10.8886 3.85636C13.8472 1.87951 17.1879 0.579433 20.6727 0.0282367Z" fill="#1AD3BB"/>
<path d="M26.5 2.72743C26.5001 1.01971 27.8594 -0.203622 29.3271 0.0282131C31.2272 0.328738 33.0905 0.853103 34.876 1.59267C37.8483 2.82387 40.5493 4.62834 42.8242 6.90321C45.0991 9.17811 46.9035 11.8792 48.1348 14.8515C48.8743 16.637 49.3987 18.5002 49.6992 20.4003C49.9312 21.8681 48.7079 23.2274 47 23.2274H29.5C27.8432 23.2273 26.5 21.8842 26.5 20.2274V2.72743Z" fill="#2EBCFA"/>
<path d="M47.0004 26.2275C48.7081 26.2275 49.9313 27.587 49.6996 29.0547C49.1484 32.5395 47.8482 35.8803 45.8714 38.8389C43.1794 42.8677 39.3529 46.0079 34.8763 47.8623C30.3997 49.7166 25.4735 50.2021 20.7211 49.2568C17.2311 48.5626 13.949 47.1194 11.0951 45.0449C9.89351 44.171 9.79706 42.3452 11.0043 41.1377L25.0355 27.1064C25.5981 26.5439 26.362 26.2275 27.1576 26.2275H47.0004Z" fill="#FBB945"/>
</g>
<defs>
<clipPath id="clip0_13_62">
<rect width="50" height="50" fill="white"/>
</clipPath>
</defs>
</svg>
