<svg width="50" height="50" viewBox="0 0 50 50" xmlns="http://www.w3.org/2000/svg"><path d="m23.096 19.58v16.14c0 2.3078 5.1276 4.1763 11.453 4.1763 6.3246 0 11.452-1.8687 11.452-4.1763v-19.454c0-2.3064-5.1269-4.175-11.452-4.175-0.96021 0-1.8928 0.0431-2.784 0.12422v15.413c0 1.4122-1.9199 2.66-4.8594 3.4157v-8.3544c0-1.2355-1.4711-2.3453-3.8094-3.1096z" fill="#fbb945" stroke-width=".44898"/><path d="m20.313 4.0002c-6.3252 0-11.453 1.8687-11.453 4.1751v11.101c1.8643-0.47926 4.1387-0.76081 6.5935-0.76081 6.3246 0 11.452 1.8687 11.452 4.1751v8.3544c2.9394-0.75574 4.8594-2.0035 4.8594-3.4157v-19.454c0-2.3064-5.1269-4.1751-11.452-4.1751z" fill="#fc868b" stroke-width=".44898"/><path d="m26.904 22.69c0-2.3064-5.1268-4.175-11.452-4.175-6.3252 0-11.453 1.8687-11.453 4.175v19.454c0 2.3078 5.1277 4.1763 11.453 4.1763 6.3246 0 11.452-1.8687 11.452-4.1763z" fill="#2ebcfa" stroke-width=".44898"/><path d="m23.096 19.58c2.3383 0.76433 3.8094 1.8742 3.8094 3.1096v8.3544c2.9394-0.75575 4.8594-2.0035 4.8594-3.4157v-15.413c-4.9797 0.45325-8.6688 2.0944-8.6688 4.0508z" fill="#f86126" stroke-width=".44898"/><path d="m26.904 31.045v-8.3544c0-2.3064-5.1269-4.1751-11.452-4.1751-2.4548 0-4.7292 0.28155-6.5935 0.76081v8.3529c0 2.3078 5.1278 4.1763 11.453 4.1763 2.4543 0 4.7282-0.28146 6.5921-0.76069z" fill="#2d6388" stroke-width=".44898"/></svg>
