<svg xmlns="http://www.w3.org/2000/svg" width="600" height="208" fill="none"><path fill="#fff" d="M330 25.4a6.4 6.4 0 0 1 6.4-6.4h237.2a6.4 6.4 0 0 1 6.4 6.4v157.2a6.4 6.4 0 0 1-6.4 6.4H336.4a6.4 6.4 0 0 1-6.4-6.4V25.4Z"/><path stroke="#DADFE3" d="M385.33 173.302h182.439"/><path stroke="#212529" stroke-opacity=".04" d="M361.77 147.208h206M361.77 122.208h206M361.77 95.207h206M361.77 69.207h206"/><path fill="#DCEBFF" d="M478.03 164.255c-27.529 0-75.249-33.289-115.7-41.661v51.208h205.439V69.651c-44.383 0-34.946 94.604-89.739 94.604Z"/><path stroke="#AED0FF" d="M362.33 122.594c40.451 8.372 88.171 41.661 115.7 41.661 54.793 0 45.356-94.604 89.739-94.604"/><path fill="#212529" fill-opacity=".6" d="M343.384 71.287v-.884l3.139-4.97h.699v1.308h-.45l-2.246 3.554v.059h4.312v.933h-5.454Zm3.437 1.42v-1.689l.01-.405v-5.18h1.045v7.274h-1.055Zm3.819-1.85-.015-1.294h.19l2.173-2.314h1.27l-2.476 2.636h-.176l-.966.972Zm-.977 1.85v-7.275h1.055v7.275h-1.055Zm3.438 0-1.954-2.587.733-.747 2.529 3.334h-1.308ZM346.064 97.975c-.491 0-.927-.083-1.308-.249a2.208 2.208 0 0 1-.903-.703 1.803 1.803 0 0 1-.352-1.04h1.103c.017.215.09.4.22.556a1.3 1.3 0 0 0 .513.367c.215.084.454.127.718.127.286 0 .54-.05.761-.152.222-.1.394-.239.518-.415.127-.179.19-.386.19-.62 0-.244-.061-.459-.185-.645a1.204 1.204 0 0 0-.542-.439 2.133 2.133 0 0 0-.859-.156h-.621v-.899h.621c.266 0 .502-.048.708-.146a1.15 1.15 0 0 0 .478-.405c.117-.173.176-.376.176-.61 0-.225-.051-.42-.152-.587-.1-.169-.242-.3-.424-.39a1.389 1.389 0 0 0-.645-.142 1.72 1.72 0 0 0-.664.127 1.252 1.252 0 0 0-.503.366.918.918 0 0 0-.2.572h-1.06c.01-.394.124-.74.342-1.036a2.2 2.2 0 0 1 .879-.698c.368-.17.775-.254 1.221-.254.465 0 .867.091 1.206.274.342.179.605.42.791.722.185.3.278.627.278.982 0 .413-.114.761-.342 1.045-.228.28-.532.47-.913.571v.054c.482.075.855.267 1.118.576.267.31.401.693.401 1.152 0 .4-.112.759-.337 1.075a2.264 2.264 0 0 1-.913.746 3.042 3.042 0 0 1-1.319.274Zm4.488-1.948-.015-1.294h.191l2.172-2.315h1.27l-2.476 2.637h-.175l-.967.972Zm-.977 1.85v-7.275h1.055v7.275h-1.055Zm3.438 0-1.953-2.588.732-.747 2.529 3.335h-1.308ZM344.549 125.651v-.791l2.461-2.559c.261-.273.476-.514.645-.722.172-.212.301-.412.386-.601a1.42 1.42 0 0 0 .131-.601c0-.244-.057-.454-.171-.629a1.12 1.12 0 0 0-.463-.406 1.515 1.515 0 0 0-.664-.141c-.261 0-.487.053-.679.161a1.103 1.103 0 0 0-.449.449 1.393 1.393 0 0 0-.157.679h-1.045c0-.443.101-.83.303-1.162.205-.332.485-.59.84-.772a2.6 2.6 0 0 1 1.211-.278c.459 0 .863.091 1.211.273.348.183.62.43.815.742.196.31.293.66.293 1.05 0 .27-.05.534-.151.791-.098.257-.272.546-.523.865-.247.315-.592.696-1.035 1.142l-1.445 1.514v.058h3.271v.938h-4.785Zm6.709-1.851-.014-1.294h.19l2.173-2.314h1.269l-2.475 2.637h-.176l-.967.971Zm-.976 1.851v-7.276h1.054v7.276h-1.054Zm3.437 0-1.953-2.588.733-.747 2.529 3.335h-1.309ZM349.215 142.677v7.276h-1.084v-6.172h-.049l-1.728 1.138v-1.055l1.806-1.187h1.055Zm2.07 5.425-.014-1.294h.19l2.173-2.314h1.269l-2.475 2.636h-.176l-.967.972Zm-.976 1.851v-7.276h1.054v7.276h-1.054Zm3.437 0-1.953-2.588.732-.747 2.53 3.335h-1.309ZM352.245 174.352c-.56 0-1.04-.146-1.44-.439-.397-.293-.702-.716-.913-1.27-.209-.556-.313-1.23-.313-2.021 0-.788.106-1.46.318-2.017.211-.56.516-.986.913-1.279.4-.296.879-.444 1.435-.444.56 0 1.039.148 1.436.444.4.293.705.719.913 1.279.212.557.317 1.229.317 2.017 0 .791-.104 1.465-.312 2.021-.208.554-.511.977-.908 1.27-.397.293-.879.439-1.446.439Zm0-.937c.342 0 .63-.109.865-.327.234-.218.413-.536.537-.953.123-.419.185-.924.185-1.513 0-.593-.062-1.097-.185-1.514-.124-.42-.303-.739-.537-.957a1.215 1.215 0 0 0-.865-.332c-.504 0-.895.246-1.172.737-.273.489-.41 1.177-.41 2.066 0 .589.062 1.094.186 1.513.124.417.303.735.537.953.238.218.524.327.859.327Z"/><circle cx="382" cy="128" r="3" fill="#AED0FF"/><circle cx="477" cy="164" r="3" fill="#AED0FF"/><path fill="#000" d="M344 35h2.322l4.018 9.815h.144L354.51 35h2.356v12.629h-1.864v-9.137h-.119l-3.738 9.12h-1.509l-3.695-9.128h-.119v9.145H344V35ZM358.901 47.629V35h4.509c.977 0 1.788.17 2.432.508.644.334 1.127.8 1.45 1.4.322.592.483 1.279.483 2.059 0 .768-.161 1.446-.483 2.034-.323.588-.808 1.042-1.458 1.364-.644.323-1.458.484-2.441.484h-3.399V41.22h3.221c.627 0 1.133-.09 1.517-.271.39-.18.672-.438.847-.771.181-.334.272-.738.272-1.212 0-.48-.091-.893-.272-1.238a1.797 1.797 0 0 0-.856-.805c-.384-.192-.89-.288-1.517-.288h-2.398v10.993h-1.907Zm7.187 0-3.06-5.704h2.111l3.119 5.704h-2.17ZM369.377 47.629V35h4.509c.977 0 1.788.17 2.432.508.644.334 1.128.8 1.45 1.4.322.592.483 1.279.483 2.059 0 .768-.161 1.446-.483 2.034-.322.588-.808 1.042-1.458 1.364-.644.323-1.458.484-2.441.484h-3.399V41.22h3.221c.627 0 1.133-.09 1.517-.271.39-.18.672-.438.848-.771.18-.334.271-.738.271-1.212 0-.48-.091-.893-.271-1.238a1.806 1.806 0 0 0-.856-.805c-.385-.192-.89-.288-1.518-.288h-2.398v10.993h-1.907Zm7.187 0-3.06-5.704h2.111l3.119 5.704h-2.17Z"/><path fill="#28A745" d="M517.737 46.078v-8.332h1.652v8.332h-1.652Zm-3.348-3.33v-1.67h8.34v1.67h-8.34ZM525.255 46.883l5.509-10.9v-.093h-6.374v-1.636h8.357v1.704l-5.5 10.925h-1.992ZM538.375 47.053c-.972 0-1.805-.255-2.5-.763-.689-.509-1.218-1.243-1.585-2.204-.362-.966-.543-2.136-.543-3.509 0-1.367.184-2.534.551-3.5.368-.972.896-1.712 1.585-2.22.695-.515 1.526-.772 2.492-.772.972 0 1.803.257 2.492.771.695.509 1.223 1.249 1.585 2.22.367.967.551 2.134.551 3.501 0 1.373-.181 2.543-.542 3.51-.362.96-.888 1.694-1.577 2.203-.689.508-1.526.763-2.509.763Zm0-1.628c.594 0 1.094-.189 1.5-.567.407-.38.718-.93.933-1.653.215-.73.322-1.605.322-2.628 0-1.028-.107-1.904-.322-2.627-.215-.73-.526-1.283-.933-1.662-.406-.384-.906-.576-1.5-.576-.876 0-1.554.427-2.034 1.28-.475.848-.712 2.043-.712 3.585 0 1.023.107 1.899.322 2.628.215.723.526 1.274.933 1.653.412.378.909.567 1.491.567ZM548.868 47.053c-.972 0-1.805-.255-2.5-.763-.689-.509-1.218-1.243-1.585-2.204-.362-.966-.542-2.136-.542-3.509 0-1.367.183-2.534.55-3.5.368-.972.896-1.712 1.585-2.22.695-.515 1.526-.772 2.492-.772.972 0 1.803.257 2.492.771.695.509 1.224 1.249 1.585 2.22.367.967.551 2.134.551 3.501 0 1.373-.181 2.543-.542 3.51-.362.96-.887 1.694-1.577 2.203-.689.508-1.525.763-2.509.763Zm0-1.628c.594 0 1.094-.189 1.501-.567.406-.38.717-.93.932-1.653.215-.73.322-1.605.322-2.628 0-1.028-.107-1.904-.322-2.627-.215-.73-.526-1.283-.932-1.662-.407-.384-.907-.576-1.501-.576-.876 0-1.554.427-2.034 1.28-.475.848-.712 2.043-.712 3.585 0 1.023.108 1.899.322 2.628.215.723.526 1.274.933 1.653.412.378.909.567 1.491.567ZM561.565 44.51v-.661c0-.48.099-.918.297-1.314.198-.395.489-.712.873-.95.384-.242.85-.364 1.398-.364.56 0 1.029.12 1.407.356.379.238.664.557.856.958.192.396.289.834.289 1.314v.661c0 .48-.099.921-.297 1.322a2.277 2.277 0 0 1-.856.95c-.379.237-.845.356-1.399.356-.553 0-1.022-.12-1.407-.356a2.318 2.318 0 0 1-.873-.95 3.023 3.023 0 0 1-.288-1.322Zm1.433-.661v.661c0 .356.084.678.254.966.169.288.463.432.881.432.413 0 .701-.144.865-.432.164-.288.246-.61.246-.966v-.661c0-.356-.079-.675-.238-.958-.158-.288-.449-.432-.873-.432-.412 0-.706.144-.881.432a1.82 1.82 0 0 0-.254.958Zm-7.781-6.56v-.662c0-.48.099-.918.296-1.313.204-.401.495-.72.873-.958.385-.237.848-.356 1.39-.356.56 0 1.029.119 1.407.356.385.237.673.557.865.958.192.395.285.833.28 1.313v.662c.005.474-.091.912-.289 1.313a2.38 2.38 0 0 1-.864.958c-.379.237-.845.356-1.399.356-.553 0-1.022-.118-1.407-.356a2.395 2.395 0 0 1-.864-.958 3.004 3.004 0 0 1-.288-1.313Zm1.432-.662v.662c0 .356.085.678.254.966.17.288.461.43.873.424.419.005.71-.136.873-.424.164-.288.246-.61.246-.966v-.662c0-.355-.079-.678-.237-.966-.158-.288-.452-.43-.882-.424-.406-.005-.697.136-.873.424-.169.288-.254.61-.254.966Zm-.847 10.256 8.679-12.629h1.475l-8.68 12.63h-1.474Z"/><path fill="#fff" d="M20 25.4a6.4 6.4 0 0 1 6.4-6.4h281.2a6.4 6.4 0 0 1 6.4 6.4v25.2a6.4 6.4 0 0 1-6.4 6.4H26.4a6.4 6.4 0 0 1-6.4-6.4V25.4Z"/><path fill="#017E84" d="M55.022 43.127a3.52 3.52 0 0 1-1.448-.286 2.383 2.383 0 0 1-1.015-.85c-.25-.373-.375-.825-.375-1.359v-.184H53.6v.184c0 .259.059.485.177.68.123.194.29.344.502.45.216.102.463.153.742.153.3 0 .557-.064.769-.19.211-.128.372-.314.482-.56.11-.25.165-.554.165-.913v-6.71h1.416v6.71c0 .605-.117 1.123-.35 1.555a2.356 2.356 0 0 1-.977.983c-.423.225-.925.337-1.505.337Zm7.23.019c-.665 0-1.247-.152-1.746-.457a3.09 3.09 0 0 1-1.155-1.282c-.271-.55-.407-1.19-.407-1.917 0-.737.136-1.38.407-1.93.275-.554.66-.984 1.155-1.288.5-.305 1.081-.457 1.745-.457.67 0 1.251.152 1.746.457.495.304.88.734 1.155 1.288.275.55.413 1.193.413 1.93 0 .728-.138 1.367-.413 1.917a3.09 3.09 0 0 1-1.155 1.282c-.495.305-1.077.457-1.745.457Zm0-1.162c.435 0 .795-.114 1.079-.342.283-.229.493-.532.628-.908.14-.381.21-.796.21-1.244 0-.457-.07-.876-.21-1.257a2.007 2.007 0 0 0-.628-.914c-.284-.229-.644-.343-1.08-.343-.431 0-.789.114-1.072.343-.28.228-.49.533-.629.914-.14.38-.21.8-.21 1.257 0 .448.07.863.21 1.244.14.377.35.68.629.908.283.228.64.342 1.072.342Zm5.68-3.193V43h-1.37v-9.458h1.352v3.53h.095c.165-.386.417-.69.755-.915.343-.228.79-.342 1.34-.342.486 0 .912.099 1.275.298.364.199.648.497.851.895.207.398.311.893.311 1.485V43h-1.384v-4.342c0-.525-.135-.93-.406-1.218-.267-.288-.639-.432-1.117-.432-.33 0-.622.072-.876.216a1.53 1.53 0 0 0-.603.603c-.148.262-.222.584-.222.965Zm7.3 0V43h-1.37v-7.097h1.332v1.168h.096c.16-.385.412-.69.755-.914.343-.228.783-.342 1.32-.342.483 0 .904.101 1.263.304.364.199.646.497.845.895.203.398.304.89.304 1.48V43h-1.37v-4.342c0-.512-.136-.914-.407-1.206-.27-.296-.639-.444-1.105-.444-.317 0-.602.072-.856.216a1.5 1.5 0 0 0-.59.603c-.145.262-.217.584-.217.965Zm8.862-5.249h1.739l3.009 7.35h.108l3.015-7.35h1.764V43h-1.396v-6.843h-.089l-2.8 6.83h-1.13l-2.767-6.836h-.088V43h-1.365v-9.458ZM95.15 43v-7.097h1.371V43h-1.37Zm.692-8.188a.862.862 0 0 1-.615-.242.77.77 0 0 1-.254-.577c0-.229.084-.424.254-.584a.862.862 0 0 1 .615-.242c.237 0 .44.08.61.242.173.16.26.355.26.584a.76.76 0 0 1-.26.577.853.853 0 0 1-.61.242Zm3.37-1.27V43h-1.37v-9.458h1.37Zm2.692 0V43h-1.371v-9.458h1.371Zm4.374 9.604c-.694 0-1.295-.15-1.803-.45a3.014 3.014 0 0 1-1.174-1.27c-.271-.55-.406-1.192-.406-1.924 0-.727.133-1.369.399-1.923.271-.554.65-.986 1.137-1.295.491-.313 1.066-.47 1.726-.47.402 0 .792.066 1.168.197.377.131.715.339 1.016.622.3.284.537.652.711 1.105.177.453.266.998.266 1.638v.495h-5.643v-1.035h4.932l-.641.343c0-.436-.067-.821-.203-1.156a1.684 1.684 0 0 0-.609-.78c-.267-.19-.599-.286-.997-.286s-.738.095-1.022.286c-.279.19-.493.442-.641.755a2.376 2.376 0 0 0-.222 1.028v.705c0 .487.085.9.254 1.238.169.338.404.596.704.774.305.178.658.267 1.061.267.262 0 .499-.038.71-.114.216-.077.402-.19.559-.343.157-.153.275-.34.356-.565l1.307.247c-.106.381-.292.715-.558 1.003a2.72 2.72 0 0 1-1.01.673 3.773 3.773 0 0 1-1.377.235Zm4.005-.146v-7.097h1.327v1.137h.076c.131-.381.36-.682.686-.902a1.94 1.94 0 0 1 1.117-.336c.084 0 .184.004.298.013.119.004.214.01.286.019v1.32a3.523 3.523 0 0 0-.724-.076c-.326 0-.618.07-.876.21a1.548 1.548 0 0 0-.603.564 1.557 1.557 0 0 0-.216.825V43h-1.371Zm117.527.14c-.427 0-.779-.072-1.054-.216a2.106 2.106 0 0 1-.641-.514 4.382 4.382 0 0 1-.355-.514h-.115V43h-1.333v-9.458h1.372v3.517h.076c.084-.148.201-.32.349-.515a1.95 1.95 0 0 1 .635-.507c.27-.148.624-.222 1.06-.222.571 0 1.079.143 1.523.431.449.288.802.705 1.06 1.25.258.546.387 1.204.387 1.975 0 .761-.127 1.417-.38 1.968-.254.545-.606.966-1.054 1.263a2.723 2.723 0 0 1-1.53.438Zm-.298-1.175c.41 0 .753-.11 1.028-.33.275-.22.482-.518.622-.895.144-.38.216-.808.216-1.282 0-.47-.07-.89-.21-1.263a1.964 1.964 0 0 0-.622-.883c-.275-.215-.62-.323-1.034-.323-.402 0-.741.103-1.016.31-.275.204-.484.492-.628.864-.14.368-.21.8-.21 1.295 0 .495.072.931.216 1.308.144.376.353.67.628.882.28.211.616.317 1.01.317Zm6.322 1.187c-.449 0-.855-.082-1.219-.247a2.04 2.04 0 0 1-.863-.736c-.212-.322-.317-.714-.317-1.175 0-.402.076-.73.228-.984.157-.258.366-.463.628-.615.263-.153.555-.267.876-.343.322-.076.652-.136.991-.178.427-.047.772-.087 1.034-.12.263-.034.453-.087.572-.16.122-.075.184-.196.184-.361V38.2c0-.402-.115-.713-.343-.933-.224-.22-.559-.33-1.003-.33-.461 0-.827.102-1.098.305-.267.199-.451.425-.552.679l-1.302-.298c.157-.432.383-.78.68-1.041.3-.267.643-.462 1.028-.584a4.027 4.027 0 0 1 1.219-.184c.283 0 .584.033.901.101.317.064.616.184.895.362.284.173.514.423.692.749.178.326.267.747.267 1.263V43h-1.353v-.971h-.05a1.874 1.874 0 0 1-.4.52 2.111 2.111 0 0 1-.686.432c-.279.114-.615.171-1.009.171Zm.298-1.104c.385 0 .713-.074.984-.222.271-.153.478-.352.622-.597.144-.245.216-.506.216-.78v-.921a.78.78 0 0 1-.286.133 3.755 3.755 0 0 1-.476.108c-.177.03-.351.057-.52.083-.169.02-.311.038-.425.05-.267.038-.51.098-.73.178-.22.076-.398.19-.534.343-.131.148-.196.345-.196.59 0 .343.127.601.38.775.254.173.576.26.965.26Zm9.833-4.405-1.251.215a1.556 1.556 0 0 0-.45-.653c-.216-.2-.54-.299-.972-.299-.389 0-.715.09-.977.267-.258.173-.387.395-.387.666 0 .237.086.43.26.578.178.148.459.267.844.355l1.136.254c.648.148 1.132.381 1.454.699.322.317.482.723.482 1.218 0 .428-.122.809-.368 1.143-.245.33-.586.59-1.022.78-.436.187-.939.28-1.51.28-.796 0-1.443-.171-1.943-.514-.499-.343-.806-.825-.92-1.447l1.326-.204c.085.347.256.61.515.788.262.177.601.266 1.015.266.449 0 .809-.095 1.079-.285.275-.19.413-.422.413-.692 0-.449-.334-.752-1.003-.908l-1.2-.267c-.664-.152-1.155-.391-1.472-.717-.314-.33-.47-.745-.47-1.244 0-.42.116-.787.349-1.105.237-.317.561-.562.971-.736a3.565 3.565 0 0 1 1.416-.267c.77 0 1.373.168 1.809.502.44.334.732.776.876 1.327ZM245.07 43v-7.097h1.371V43h-1.371Zm.692-8.188a.864.864 0 0 1-.616-.242.769.769 0 0 1-.253-.577c0-.229.084-.424.253-.584a.864.864 0 0 1 .616-.242c.237 0 .44.08.61.242.173.16.26.355.26.584a.762.762 0 0 1-.26.577.856.856 0 0 1-.61.242Zm4.977 8.334c-.682 0-1.27-.157-1.765-.47a3.086 3.086 0 0 1-1.142-1.295c-.267-.55-.4-1.18-.4-1.891 0-.724.135-1.36.406-1.91a3.138 3.138 0 0 1 1.149-1.296c.495-.313 1.075-.47 1.739-.47.542 0 1.022.1 1.441.299.423.194.764.472 1.022.831a2.5 2.5 0 0 1 .463 1.257h-1.345a1.595 1.595 0 0 0-.273-.616 1.403 1.403 0 0 0-.521-.444 1.673 1.673 0 0 0-.768-.165c-.385 0-.721.102-1.009.305-.284.199-.506.484-.667.857-.16.372-.241.812-.241 1.32 0 .512.078.959.235 1.34.157.38.379.674.666.882.292.203.631.304 1.016.304.398 0 .736-.11 1.016-.33.283-.22.465-.52.546-.901h1.345a2.565 2.565 0 0 1-.444 1.231c-.25.36-.584.644-1.003.851-.419.207-.908.311-1.466.311Zm6.785 2.507v-9.75h1.333v1.156h.115c.084-.148.201-.32.349-.515a1.95 1.95 0 0 1 .635-.507c.27-.148.624-.222 1.06-.222.571 0 1.079.143 1.523.431.449.288.802.705 1.06 1.25.258.546.387 1.204.387 1.975 0 .761-.127 1.417-.381 1.968-.253.545-.605.966-1.053 1.263a2.726 2.726 0 0 1-1.53.438c-.427 0-.779-.072-1.054-.216a2.106 2.106 0 0 1-.641-.514 4.382 4.382 0 0 1-.355-.514h-.076v3.757h-1.372Zm3.2-3.688c.41 0 .753-.11 1.028-.33.275-.22.482-.518.622-.895.144-.38.216-.808.216-1.282 0-.47-.07-.89-.21-1.263a1.964 1.964 0 0 0-.622-.883c-.275-.215-.62-.323-1.034-.323-.402 0-.741.103-1.016.31-.275.204-.485.492-.628.864-.14.368-.21.8-.21 1.295 0 .495.072.931.216 1.308.144.376.353.67.628.882.28.211.616.317 1.01.317Zm5.636-8.423V43h-1.371v-9.458h1.371Zm3.377 9.61c-.448 0-.855-.082-1.218-.247a2.042 2.042 0 0 1-.864-.736c-.211-.322-.317-.714-.317-1.175 0-.402.076-.73.228-.984.157-.258.366-.463.629-.615.262-.153.554-.267.876-.343.321-.076.651-.136.99-.178.427-.047.772-.087 1.035-.12.262-.034.453-.087.571-.16.123-.075.184-.196.184-.361V38.2c0-.402-.114-.713-.343-.933-.224-.22-.558-.33-1.003-.33-.461 0-.827.102-1.098.305-.266.199-.45.425-.552.679l-1.301-.298c.156-.432.383-.78.679-1.041.3-.267.643-.462 1.028-.584.39-.123.796-.184 1.219-.184.284 0 .584.033.901.101a2.6 2.6 0 0 1 .895.362c.284.173.515.423.692.749.178.326.267.747.267 1.263V43h-1.352v-.971h-.051a1.874 1.874 0 0 1-.4.52 2.117 2.117 0 0 1-.685.432c-.28.114-.616.171-1.01.171Zm.299-1.104c.385 0 .713-.074.984-.222.27-.153.478-.352.622-.597.143-.245.215-.506.215-.78v-.921a.774.774 0 0 1-.285.133c-.14.042-.299.078-.476.108-.178.03-.352.057-.521.083-.169.02-.311.038-.425.05-.267.038-.51.098-.73.178-.22.076-.398.19-.533.343-.131.148-.197.345-.197.59 0 .343.127.601.381.775.254.173.575.26.965.26Zm5.897-3.257V43h-1.371v-7.097h1.333v1.168h.095c.161-.385.412-.69.755-.914.343-.228.783-.342 1.32-.342.483 0 .904.101 1.264.304.364.199.645.497.844.895.203.398.305.89.305 1.48V43h-1.372v-4.342c0-.512-.135-.914-.406-1.206-.271-.296-.639-.444-1.104-.444-.318 0-.603.072-.857.216a1.5 1.5 0 0 0-.591.603c-.143.262-.215.584-.215.965Z"/><path fill="#343A40" d="m122.941 37.643-1.25.215a1.559 1.559 0 0 0-.451-.653c-.216-.2-.539-.299-.971-.299-.389 0-.715.09-.977.267-.259.173-.388.395-.388.666 0 .237.087.43.261.578.177.148.459.267.844.355l1.136.254c.647.148 1.132.381 1.454.699.321.317.482.723.482 1.218 0 .428-.123.809-.368 1.143-.246.33-.586.59-1.022.78-.436.187-.94.28-1.511.28-.795 0-1.443-.171-1.942-.514-.5-.343-.806-.825-.921-1.447l1.327-.204c.085.347.256.61.514.788.263.177.601.266 1.016.266.448 0 .808-.095 1.079-.285.275-.19.413-.422.413-.692 0-.449-.335-.752-1.003-.908l-1.2-.267c-.664-.152-1.155-.391-1.473-.717-.313-.33-.469-.745-.469-1.244 0-.42.116-.787.349-1.105.237-.317.56-.562.971-.736a3.56 3.56 0 0 1 1.415-.267c.771 0 1.374.168 1.809.502.441.334.733.776.876 1.327Zm5.599 2.424v-4.164h1.371V43h-1.346v-1.231h-.076a2.313 2.313 0 0 1-.787.945c-.355.254-.8.38-1.333.375-.457 0-.861-.1-1.212-.298a2.06 2.06 0 0 1-.819-.895c-.195-.398-.292-.891-.292-1.48v-4.513h1.371v4.355c0 .478.135.861.406 1.149.271.288.62.43 1.048.425.258 0 .514-.063.768-.19.258-.127.472-.322.641-.584.173-.263.26-.593.26-.99Zm6.189 3.073c-.427 0-.779-.072-1.054-.216a2.106 2.106 0 0 1-.641-.514 4.382 4.382 0 0 1-.355-.514h-.115V43h-1.333v-9.458h1.372v3.517h.076c.084-.148.201-.32.349-.515a1.95 1.95 0 0 1 .635-.507c.27-.148.624-.222 1.06-.222.571 0 1.079.143 1.523.431.449.288.802.705 1.06 1.25.258.546.387 1.204.387 1.975 0 .761-.127 1.417-.381 1.968-.253.545-.605.966-1.053 1.263a2.723 2.723 0 0 1-1.53.438Zm-.298-1.175c.41 0 .753-.11 1.028-.33.275-.22.482-.518.622-.895.144-.38.216-.808.216-1.282 0-.47-.07-.89-.21-1.263a1.964 1.964 0 0 0-.622-.883c-.275-.215-.62-.323-1.034-.323-.402 0-.741.103-1.016.31-.275.204-.484.492-.628.864-.14.368-.21.8-.21 1.295 0 .495.072.931.216 1.308.144.376.353.67.628.882.28.211.616.317 1.01.317Zm9.572-4.322-1.251.215a1.556 1.556 0 0 0-.45-.653c-.216-.2-.54-.299-.971-.299-.39 0-.716.09-.978.267-.258.173-.387.395-.387.666 0 .237.087.43.26.578.178.148.459.267.844.355l1.137.254c.647.148 1.132.381 1.453.699.322.317.483.723.483 1.218 0 .428-.123.809-.369 1.143-.245.33-.586.59-1.022.78-.435.187-.939.28-1.51.28-.796 0-1.443-.171-1.943-.514-.499-.343-.806-.825-.92-1.447l1.327-.204c.084.347.256.61.514.788.262.177.601.266 1.015.266.449 0 .809-.095 1.079-.285.276-.19.413-.422.413-.692 0-.449-.334-.752-1.003-.908l-1.2-.267c-.664-.152-1.155-.391-1.472-.717-.313-.33-.47-.745-.47-1.244 0-.42.116-.787.349-1.105.237-.317.561-.562.971-.736a3.565 3.565 0 0 1 1.416-.267c.77 0 1.373.168 1.809.502.44.334.732.776.876 1.327Zm4.081 5.503c-.681 0-1.269-.157-1.764-.47a3.095 3.095 0 0 1-1.143-1.295c-.266-.55-.4-1.18-.4-1.891 0-.724.136-1.36.407-1.91a3.138 3.138 0 0 1 1.149-1.296c.495-.313 1.074-.47 1.739-.47.541 0 1.022.1 1.441.299a2.509 2.509 0 0 1 1.485 2.088h-1.346a1.566 1.566 0 0 0-.273-.616 1.4 1.4 0 0 0-.52-.444 1.673 1.673 0 0 0-.768-.165c-.385 0-.722.102-1.009.305-.284.199-.506.484-.667.857-.161.372-.241.812-.241 1.32 0 .512.078.959.235 1.34.156.38.378.674.666.882.292.203.631.304 1.016.304.398 0 .736-.11 1.015-.33.284-.22.466-.52.546-.901h1.346a2.586 2.586 0 0 1-.444 1.231c-.25.36-.584.644-1.003.851-.419.207-.908.311-1.467.311Zm3.892-.146v-7.097h1.326v1.137h.076c.132-.381.36-.682.686-.902a1.94 1.94 0 0 1 1.117-.336c.085 0 .184.004.298.013.119.004.214.01.286.019v1.32a3.547 3.547 0 0 0-.723-.076c-.326 0-.618.07-.876.21a1.558 1.558 0 0 0-.604.564 1.566 1.566 0 0 0-.215.825V43h-1.371Zm4.456 0v-7.097h1.371V43h-1.371Zm.692-8.188a.86.86 0 0 1-.616-.242.77.77 0 0 1-.254-.577c0-.229.085-.424.254-.584a.86.86 0 0 1 .616-.242c.237 0 .44.08.609.242.173.16.26.355.26.584a.762.762 0 0 1-.26.577.852.852 0 0 1-.609.242Zm5.497 8.328c-.428 0-.779-.072-1.054-.216a2.094 2.094 0 0 1-.641-.514 4.405 4.405 0 0 1-.356-.514h-.114V43h-1.333v-9.458h1.371v3.517h.076c.085-.148.201-.32.349-.515a1.96 1.96 0 0 1 .635-.507c.271-.148.624-.222 1.06-.222.572 0 1.079.143 1.524.431.448.288.802.705 1.06 1.25.258.546.387 1.204.387 1.975 0 .761-.127 1.417-.381 1.968-.254.545-.605.966-1.054 1.263a2.72 2.72 0 0 1-1.529.438Zm-.299-1.175c.411 0 .754-.11 1.029-.33.275-.22.482-.518.622-.895.144-.38.215-.808.215-1.282 0-.47-.069-.89-.209-1.263a1.972 1.972 0 0 0-.622-.883c-.275-.215-.62-.323-1.035-.323-.402 0-.74.103-1.015.31-.275.204-.485.492-.629.864-.139.368-.209.8-.209 1.295 0 .495.072.931.216 1.308.143.376.353.67.628.882.279.211.616.317 1.009.317Zm7.319 1.181c-.694 0-1.295-.15-1.803-.45a3.02 3.02 0 0 1-1.174-1.27c-.271-.55-.406-1.192-.406-1.924 0-.727.133-1.369.4-1.923a3.11 3.11 0 0 1 1.136-1.295c.491-.313 1.066-.47 1.727-.47.402 0 .791.066 1.167.197.377.131.716.339 1.016.622.301.284.538.652.711 1.105.178.453.267.998.267 1.638v.495h-5.643v-1.035h4.932l-.641.343c0-.436-.068-.821-.204-1.156a1.684 1.684 0 0 0-.609-.78c-.267-.19-.599-.286-.996-.286-.398 0-.739.095-1.022.286a1.86 1.86 0 0 0-.642.755 2.376 2.376 0 0 0-.222 1.028v.705c0 .487.085.9.254 1.238.169.338.404.596.705.774.304.178.658.267 1.06.267.262 0 .499-.038.711-.114a1.466 1.466 0 0 0 .914-.908l1.307.247c-.105.381-.292.715-.558 1.003a2.716 2.716 0 0 1-1.009.673 3.778 3.778 0 0 1-1.378.235Zm6.646-.006a2.755 2.755 0 0 1-1.536-.438c-.449-.297-.8-.718-1.054-1.264-.254-.55-.381-1.206-.381-1.967 0-.77.129-1.428.388-1.974.258-.546.611-.963 1.06-1.25a2.757 2.757 0 0 1 1.523-.432c.444 0 .8.074 1.067.222.27.144.48.313.628.507.152.195.269.367.349.515h.083v-3.517h1.371V43h-1.34v-1.105h-.114a3.58 3.58 0 0 1-.355.515 2.11 2.11 0 0 1-.642.514c-.266.144-.615.216-1.047.216Zm.298-1.175c.398 0 .735-.106 1.01-.317.275-.212.482-.506.622-.882.144-.377.216-.813.216-1.308 0-.495-.07-.927-.21-1.295-.14-.372-.347-.66-.622-.863-.275-.208-.614-.311-1.016-.311-.414 0-.759.108-1.034.324-.275.215-.483.51-.622.882a3.57 3.57 0 0 0-.21 1.263c0 .474.07.901.21 1.282.139.377.347.675.622.895.279.22.624.33 1.034.33Zm10.798-6.062v1.111h-4.006v-1.11h4.006ZM184.469 43v-7.922c0-.44.098-.806.292-1.098.199-.296.457-.516.775-.66a2.44 2.44 0 0 1 1.034-.222c.284 0 .525.023.724.07.199.046.345.086.438.12l-.33 1.117a3.49 3.49 0 0 0-.248-.07 1.492 1.492 0 0 0-.368-.038c-.334 0-.575.085-.724.254-.148.165-.222.407-.222.724V43h-1.371Zm6.488.146c-.665 0-1.247-.152-1.746-.457a3.09 3.09 0 0 1-1.155-1.282c-.271-.55-.407-1.19-.407-1.917 0-.737.136-1.38.407-1.93.275-.554.66-.984 1.155-1.288.499-.305 1.081-.457 1.746-.457.668 0 1.25.152 1.745.457.495.304.88.734 1.155 1.288.275.55.413 1.193.413 1.93 0 .728-.138 1.367-.413 1.917a3.09 3.09 0 0 1-1.155 1.282c-.495.305-1.077.457-1.745.457Zm0-1.162c.435 0 .795-.114 1.079-.342.283-.229.493-.532.628-.908.14-.381.21-.796.21-1.244 0-.457-.07-.876-.21-1.257a2.007 2.007 0 0 0-.628-.914c-.284-.229-.644-.343-1.079-.343-.432 0-.79.114-1.073.343-.28.228-.489.533-.629.914-.139.38-.209.8-.209 1.257 0 .448.07.863.209 1.244.14.377.349.68.629.908.283.228.641.342 1.073.342Zm4.31 1.016v-7.097h1.326v1.137h.076c.132-.381.36-.682.686-.902a1.94 1.94 0 0 1 1.117-.336c.085 0 .184.004.299.013.118.004.213.01.285.019v1.32a3.547 3.547 0 0 0-.723-.076c-.326 0-.618.07-.876.21a1.548 1.548 0 0 0-.603.564 1.557 1.557 0 0 0-.216.825V43h-1.371Zm10.651-7.097v1.111h-3.872v-1.11h3.872Zm-2.837-1.688h1.377v6.703c0 .326.068.565.203.717.136.148.353.222.654.222a2.543 2.543 0 0 0 .482-.05l.261 1.142c-.14.047-.292.083-.457.108-.165.026-.33.038-.496.038-.613 0-1.104-.171-1.472-.514-.368-.347-.552-.808-.552-1.384v-6.982Zm5.351 4.576V43h-1.371v-9.458h1.352v3.53h.095c.165-.386.417-.69.755-.915.343-.228.789-.342 1.34-.342.486 0 .911.099 1.275.298.364.199.648.497.851.895.207.398.311.893.311 1.485V43h-1.384v-4.342c0-.525-.135-.93-.406-1.218-.267-.288-.639-.432-1.117-.432-.33 0-.622.072-.876.216a1.53 1.53 0 0 0-.603.603c-.148.262-.222.584-.222.965Zm8.982 4.355c-.694 0-1.295-.15-1.803-.45a3.014 3.014 0 0 1-1.174-1.27c-.271-.55-.407-1.192-.407-1.924 0-.727.134-1.369.4-1.923.271-.554.65-.986 1.136-1.295.491-.313 1.067-.47 1.727-.47.402 0 .791.066 1.168.197.377.131.715.339 1.016.622.3.284.537.652.711 1.105.177.453.266.998.266 1.638v.495h-5.643v-1.035h4.932l-.641.343c0-.436-.068-.821-.203-1.156a1.69 1.69 0 0 0-.609-.78c-.267-.19-.599-.286-.997-.286s-.738.095-1.022.286c-.279.19-.493.442-.641.755a2.376 2.376 0 0 0-.222 1.028v.705c0 .487.084.9.254 1.238.169.338.404.596.704.774.305.178.658.267 1.06.267.263 0 .5-.038.711-.114.216-.077.402-.19.559-.343.156-.153.275-.34.355-.565l1.308.247c-.106.381-.292.715-.559 1.003a2.708 2.708 0 0 1-1.009.673 3.773 3.773 0 0 1-1.377.235Z"/><path fill="#000" d="M225.291 46.028a.444.444 0 1 1-.889 0 .444.444 0 0 1 .889 0Zm1.777 0a.444.444 0 1 1-.889 0 .444.444 0 0 1 .889 0Zm1.778 0a.445.445 0 1 1-.89 0 .445.445 0 0 1 .89 0Zm1.777 0a.444.444 0 1 1-.889 0 .444.444 0 0 1 .889 0Zm1.777 0a.444.444 0 1 1-.889 0 .444.444 0 0 1 .889 0Zm1.778 0a.445.445 0 1 1-.89 0 .445.445 0 0 1 .89 0Zm1.777 0a.444.444 0 1 1-.889 0 .444.444 0 0 1 .889 0Zm1.777 0a.444.444 0 1 1-.889 0 .444.444 0 0 1 .889 0Zm1.778 0a.445.445 0 1 1-.89 0 .445.445 0 0 1 .89 0Zm1.777 0a.444.444 0 1 1-.889 0 .444.444 0 0 1 .889 0Zm1.777 0a.444.444 0 1 1-.887.001.444.444 0 0 1 .887-.001Zm1.778 0a.445.445 0 1 1-.89 0 .445.445 0 0 1 .89 0Zm1.777 0a.444.444 0 1 1-.889 0 .444.444 0 0 1 .889 0Zm1.777 0a.444.444 0 1 1-.887.001.444.444 0 0 1 .887-.001Zm1.778 0a.445.445 0 1 1-.89 0 .445.445 0 0 1 .89 0Zm1.777 0a.444.444 0 1 1-.889 0 .444.444 0 0 1 .889 0Zm1.778 0a.445.445 0 1 1-.89 0 .445.445 0 0 1 .89 0Zm1.777 0a.444.444 0 1 1-.889 0 .444.444 0 0 1 .889 0Zm5.332 0a.444.444 0 1 1-.889 0 .444.444 0 0 1 .889 0Zm1.777 0a.444.444 0 1 1-.889 0 .444.444 0 0 1 .889 0Zm1.778 0a.445.445 0 1 1-.89 0 .445.445 0 0 1 .89 0Zm1.777 0a.444.444 0 1 1-.889 0 .444.444 0 0 1 .889 0Zm1.777 0a.444.444 0 1 1-.889 0 .444.444 0 0 1 .889 0Zm1.778 0a.445.445 0 1 1-.89 0 .445.445 0 0 1 .89 0Zm1.777 0a.444.444 0 1 1-.889 0 .444.444 0 0 1 .889 0Zm1.777 0a.444.444 0 1 1-.889 0 .444.444 0 0 1 .889 0Zm1.778 0a.445.445 0 1 1-.89 0 .445.445 0 0 1 .89 0Zm1.777 0a.444.444 0 1 1-.889 0 .444.444 0 0 1 .889 0Zm1.777 0a.444.444 0 1 1-.889 0 .444.444 0 0 1 .889 0Zm1.778 0a.445.445 0 1 1-.89 0 .445.445 0 0 1 .89 0Z"/><g fill="#fff" filter="url(#a)" shape-rendering="crispEdges"><path fill-opacity=".8" d="M40 169c0 4.416 2.813 6.952 7 6.952L287 176c4.187 0 7-2.584 7-7V89.996c0-4.416-3.395-7.996-7.582-7.996H47.582C43.395 82 40 85.58 40 89.996V169Z"/><path fill-opacity=".4" d="M271 188.006c4.187 0 7-2.59 7-7.006v-5.048H56.112V181c0 4.416 2.2 7.006 6.388 7.006H271Z"/></g><g filter="url(#b)"><path fill="#fff" d="M20 79.4a6.4 6.4 0 0 1 6.4-6.4h281.2a6.4 6.4 0 0 1 6.4 6.4v77.2a6.4 6.4 0 0 1-6.4 6.4H26.4a6.4 6.4 0 0 1-6.4-6.4V79.4Z"/></g><path fill="#343A40" d="M43.266 114.695c-1.25 0-2.37-.299-3.36-.898-.99-.599-1.77-1.455-2.343-2.568-.573-1.12-.86-2.452-.86-3.995 0-1.556.287-2.89.86-4.004.572-1.119 1.354-1.979 2.343-2.578.99-.599 2.11-.898 3.36-.898 1.263 0 2.386.299 3.369.898.983.599 1.758 1.459 2.324 2.578.573 1.114.86 2.448.86 4.004 0 1.55-.287 2.881-.86 3.995-.566 1.113-1.341 1.969-2.324 2.568-.983.599-2.106.898-3.37.898Zm0-2.002c.84 0 1.588-.208 2.246-.625.657-.416 1.175-1.032 1.553-1.845.384-.814.576-1.81.576-2.989 0-1.185-.192-2.184-.576-2.998-.378-.82-.896-1.438-1.553-1.855-.658-.417-1.407-.625-2.246-.625-.834 0-1.582.208-2.246.625-.658.417-1.179 1.035-1.563 1.855-.384.814-.576 1.813-.576 2.998 0 1.179.192 2.175.576 2.989.384.813.905 1.429 1.563 1.845.664.417 1.412.625 2.246.625Zm13.476-9.111v1.709H50.58v-1.709h6.162ZM52.26 114.5v-12.188c0-.677.15-1.24.449-1.689a2.808 2.808 0 0 1 1.191-1.016 3.76 3.76 0 0 1 1.592-.341c.436 0 .808.035 1.114.107.305.072.53.133.673.186l-.508 1.718a5.66 5.66 0 0 0-.38-.107 2.292 2.292 0 0 0-.567-.059c-.514 0-.885.131-1.113.391-.228.254-.342.625-.342 1.113V114.5h-2.11Zm11.025-10.918v1.709h-6.162v-1.709h6.162ZM58.803 114.5v-12.188c0-.677.15-1.24.449-1.689a2.808 2.808 0 0 1 1.191-1.016 3.76 3.76 0 0 1 1.592-.341c.436 0 .807.035 1.113.107.306.072.531.133.674.186l-.508 1.718a5.677 5.677 0 0 0-.38-.107 2.292 2.292 0 0 0-.567-.059c-.514 0-.885.131-1.113.391-.228.254-.342.625-.342 1.113V114.5h-2.11Zm5.83 0v-10.918h2.11V114.5h-2.11Zm1.064-12.598c-.37 0-.687-.123-.947-.371a1.181 1.181 0 0 1-.39-.888c0-.352.13-.651.39-.899.26-.247.576-.371.947-.371.365 0 .677.124.938.371.267.248.4.547.4.899 0 .345-.133.641-.4.888a1.31 1.31 0 0 1-.938.371Zm7.656 12.823c-1.048 0-1.953-.241-2.714-.723a4.758 4.758 0 0 1-1.758-1.992c-.41-.847-.615-1.817-.615-2.91 0-1.114.208-2.093.625-2.94.423-.853 1.012-1.517 1.767-1.992.762-.482 1.654-.723 2.676-.723.833 0 1.572.153 2.217.459.65.3 1.175.726 1.572 1.28.404.553.641 1.198.713 1.933h-2.07a2.43 2.43 0 0 0-.42-.947 2.162 2.162 0 0 0-.801-.684c-.332-.169-.726-.254-1.182-.254-.592 0-1.11.157-1.552.469-.437.306-.778.746-1.026 1.319-.247.572-.37 1.25-.37 2.031 0 .788.12 1.474.36 2.06.241.586.583 1.039 1.026 1.358.449.312.97.469 1.562.469.612 0 1.133-.17 1.563-.508.436-.339.716-.801.84-1.387h2.07c-.072.71-.3 1.341-.684 1.895a3.995 3.995 0 0 1-1.543 1.308c-.644.319-1.396.479-2.255.479Zm10.684 0c-1.068 0-1.992-.232-2.773-.694a4.638 4.638 0 0 1-1.807-1.953c-.417-.846-.625-1.833-.625-2.959 0-1.12.205-2.106.615-2.959.417-.853 1-1.517 1.748-1.992.756-.482 1.64-.723 2.657-.723a5.42 5.42 0 0 1 1.796.303c.58.202 1.1.521 1.563.957.462.436.827 1.003 1.094 1.699.273.697.41 1.537.41 2.52v.762h-8.682v-1.592h7.588l-.986.527c0-.67-.104-1.263-.313-1.777-.208-.515-.52-.915-.937-1.201-.41-.293-.922-.44-1.533-.44-.612 0-1.136.147-1.573.44-.43.293-.758.68-.986 1.162a3.65 3.65 0 0 0-.342 1.582v1.084c0 .748.13 1.383.39 1.904.261.521.623.918 1.085 1.191.468.274 1.012.411 1.63.411.404 0 .769-.059 1.094-.176.332-.117.619-.293.86-.528.24-.234.423-.524.547-.869l2.011.381c-.162.586-.449 1.1-.859 1.543-.41.443-.928.788-1.553 1.035-.618.241-1.325.362-2.119.362Zm16.846-.03c-1.25 0-2.37-.299-3.36-.898-.99-.599-1.767-1.455-2.334-2.568-.566-1.12-.85-2.452-.85-3.995 0-1.556.284-2.89.85-4.004.573-1.119 1.351-1.979 2.334-2.578.99-.599 2.11-.898 3.36-.898.768 0 1.487.11 2.158.332a5.782 5.782 0 0 1 1.816.967c.534.423.974.94 1.319 1.552a5.92 5.92 0 0 1 .703 2.081h-2.207a3.308 3.308 0 0 0-.479-1.25 3.27 3.27 0 0 0-.849-.918 3.456 3.456 0 0 0-1.123-.567 4.31 4.31 0 0 0-1.309-.195c-.833 0-1.585.211-2.256.635-.664.416-1.188 1.035-1.572 1.855-.378.814-.566 1.81-.566 2.988 0 1.185.192 2.185.576 2.998.384.808.908 1.42 1.572 1.836.664.417 1.41.625 2.236.625.463 0 .899-.061 1.309-.185.41-.124.784-.309 1.123-.557.339-.247.622-.547.85-.898.234-.358.397-.772.488-1.241h2.207a5.763 5.763 0 0 1-.674 1.983 5.563 5.563 0 0 1-1.299 1.543 6.026 6.026 0 0 1-1.806 1.006 6.746 6.746 0 0 1-2.217.351Zm9.746-14.746V114.5h-2.109V99.95h2.109Zm6.728 14.776c-1.067 0-1.992-.232-2.773-.694a4.646 4.646 0 0 1-1.807-1.953c-.416-.846-.625-1.833-.625-2.959 0-1.12.205-2.106.616-2.959.416-.853.999-1.517 1.748-1.992.755-.482 1.64-.723 2.656-.723.618 0 1.217.101 1.797.303a4.34 4.34 0 0 1 1.562.957c.462.436.827 1.003 1.094 1.699.273.697.41 1.537.41 2.52v.762h-8.681v-1.592h7.587l-.986.527c0-.67-.104-1.263-.312-1.777-.209-.515-.521-.915-.938-1.201-.41-.293-.921-.44-1.533-.44-.612 0-1.136.147-1.572.44-.43.293-.759.68-.987 1.162a3.648 3.648 0 0 0-.342 1.582v1.084c0 .748.131 1.383.391 1.904.261.521.622.918 1.084 1.191.469.274 1.012.411 1.631.411.404 0 .768-.059 1.094-.176.332-.117.618-.293.859-.528a2.25 2.25 0 0 0 .547-.869l2.012.381c-.163.586-.45 1.1-.86 1.543-.41.443-.927.788-1.552 1.035-.619.241-1.325.362-2.12.362Zm9.327.009c-.691 0-1.316-.127-1.875-.38a3.15 3.15 0 0 1-1.329-1.133c-.325-.495-.488-1.097-.488-1.807 0-.618.117-1.123.352-1.514a2.7 2.7 0 0 1 .967-.947c.403-.234.852-.41 1.347-.527a14.338 14.338 0 0 1 1.524-.274 80.563 80.563 0 0 0 1.591-.185c.404-.052.697-.134.879-.244.189-.118.284-.303.284-.557v-.049c0-.618-.176-1.097-.528-1.435-.345-.339-.859-.508-1.543-.508-.709 0-1.273.156-1.689.469-.41.306-.694.654-.85 1.045l-2.002-.459c.241-.665.589-1.198 1.045-1.602.462-.41.99-.71 1.582-.898a6.194 6.194 0 0 1 1.875-.284c.436 0 .899.052 1.387.157a4.01 4.01 0 0 1 1.377.556c.436.267.791.651 1.064 1.153.274.501.41 1.149.41 1.943v7.246h-2.08v-1.494h-.078c-.13.267-.335.534-.615.801a3.246 3.246 0 0 1-1.055.664c-.429.175-.947.263-1.552.263Zm.459-1.699c.592 0 1.097-.114 1.513-.342a2.49 2.49 0 0 0 .957-.918 2.33 2.33 0 0 0 .332-1.201v-1.416c-.078.072-.224.14-.439.205a5.776 5.776 0 0 1-.733.166c-.273.046-.54.088-.8.127-.261.033-.479.059-.655.078-.41.059-.784.15-1.123.274a1.907 1.907 0 0 0-.82.527c-.202.228-.303.531-.303.908 0 .528.196.925.586 1.192.391.267.886.4 1.485.4Zm9.072-5.01v6.475h-2.11v-10.918h2.051v1.797h.147a3.037 3.037 0 0 1 1.162-1.406c.527-.352 1.204-.528 2.031-.528.742 0 1.39.157 1.943.469.56.306.993.765 1.299 1.377.313.612.469 1.37.469 2.275v6.934h-2.109v-6.68c0-.787-.209-1.406-.625-1.855-.417-.456-.983-.684-1.7-.684a2.63 2.63 0 0 0-1.318.332 2.306 2.306 0 0 0-.908.928c-.221.404-.332.898-.332 1.484Zm9.023 6.475v-10.918h2.11V114.5h-2.11Zm1.065-12.598c-.371 0-.687-.123-.948-.371a1.182 1.182 0 0 1-.39-.888c0-.352.13-.651.39-.899.261-.247.577-.371.948-.371.364 0 .677.124.937.371.267.248.401.547.401.899 0 .345-.134.641-.401.888a1.31 1.31 0 0 1-.937.371Zm5.185 6.123v6.475h-2.109v-10.918h2.051v1.797h.146a3.043 3.043 0 0 1 1.162-1.406c.528-.352 1.205-.528 2.032-.528.742 0 1.39.157 1.943.469.56.306.993.765 1.299 1.377.312.612.468 1.37.468 2.275v6.934h-2.109v-6.68c0-.787-.208-1.406-.625-1.855-.417-.456-.983-.684-1.699-.684-.488 0-.928.111-1.318.332a2.308 2.308 0 0 0-.909.928c-.221.404-.332.898-.332 1.484Zm13.574 10.791c-1.302 0-2.327-.244-3.076-.732-.748-.488-1.266-1.068-1.552-1.738l1.816-.752c.13.208.303.429.518.664.221.234.517.433.888.596.371.162.85.244 1.436.244.801 0 1.465-.196 1.992-.586.527-.384.791-1.003.791-1.856v-2.138h-.146a4.364 4.364 0 0 1-.538.771c-.24.28-.569.524-.986.732-.417.209-.96.313-1.631.313-.859 0-1.634-.202-2.324-.605-.684-.411-1.23-1.01-1.641-1.797-.403-.795-.605-1.771-.605-2.93 0-1.159.198-2.152.596-2.979.403-.833.95-1.471 1.64-1.914.69-.442 1.475-.664 2.354-.664.677 0 1.224.114 1.64.342.424.221.752.482.987.781.234.3.416.564.547.791h.156v-1.777h2.06v11.162c0 .938-.218 1.706-.654 2.305-.43.599-1.016 1.041-1.758 1.328-.742.293-1.579.439-2.51.439Zm-.019-6.25c.918 0 1.621-.315 2.109-.947.495-.638.743-1.52.743-2.646 0-.736-.108-1.381-.323-1.934-.215-.56-.534-.996-.957-1.309-.423-.319-.947-.478-1.572-.478-.638 0-1.172.166-1.602.498-.423.326-.742.771-.957 1.338-.214.56-.322 1.188-.322 1.885 0 .709.108 1.338.322 1.884.215.541.537.961.967 1.26.436.3.967.449 1.592.449Z"/><path fill="#212529" fill-opacity=".6" d="M37.004 135.5v-10.182h3.898c.736 0 1.347.116 1.834.348.491.229.857.542 1.1.94.245.398.367.848.367 1.352 0 .414-.08.769-.239 1.064-.159.292-.372.529-.64.711a2.73 2.73 0 0 1-.9.393v.099c.36.02.707.131 1.038.333.335.199.608.481.82.845.213.365.319.806.319 1.323 0 .527-.128 1.001-.383 1.422-.255.417-.64.747-1.153.989-.514.242-1.16.363-1.94.363h-4.12Zm1.845-1.541h1.983c.67 0 1.152-.128 1.447-.383.298-.259.448-.59.448-.994a1.523 1.523 0 0 0-.86-1.392c-.276-.143-.604-.214-.985-.214H38.85v2.983Zm0-4.311h1.824c.319 0 .605-.058.86-.174.256-.119.456-.286.602-.502a1.34 1.34 0 0 0 .224-.775c0-.395-.14-.719-.418-.975-.275-.255-.684-.383-1.228-.383H38.85v2.809Zm9.474 6.006c-.484 0-.92-.086-1.307-.258a2.14 2.14 0 0 1-.915-.776c-.222-.341-.333-.762-.333-1.263 0-.431.08-.787.239-1.069.159-.281.376-.507.65-.676a3.31 3.31 0 0 1 .93-.383 7.521 7.521 0 0 1 1.08-.193c.447-.047.81-.088 1.088-.125.279-.04.48-.099.607-.179.129-.083.194-.21.194-.383v-.029c0-.375-.111-.665-.334-.87-.222-.206-.541-.309-.959-.309-.44 0-.79.096-1.049.289a1.428 1.428 0 0 0-.517.681l-1.68-.239c.132-.464.35-.852.656-1.163.305-.315.678-.55 1.118-.706.441-.159.928-.239 1.462-.239.368 0 .734.043 1.099.129.364.087.697.229.999.428.302.196.544.462.726.8.186.339.278.761.278 1.268v5.111h-1.73v-1.049h-.06c-.109.212-.263.411-.462.597a2.234 2.234 0 0 1-.74.442 2.995 2.995 0 0 1-1.04.164Zm.468-1.322c.36 0 .674-.072.94-.214a1.58 1.58 0 0 0 .61-.577c.147-.238.22-.499.22-.78v-.9a.859.859 0 0 1-.289.129c-.132.04-.282.075-.447.104-.166.03-.33.057-.492.08l-.423.06a3.111 3.111 0 0 0-.72.179 1.2 1.2 0 0 0-.503.348c-.123.145-.184.334-.184.566 0 .332.121.582.363.751.242.169.55.254.925.254Zm11.41-4.45-1.641.179a1.316 1.316 0 0 0-.244-.467 1.203 1.203 0 0 0-.457-.353 1.658 1.658 0 0 0-.706-.134c-.375 0-.69.081-.945.243-.252.163-.376.373-.373.632a.659.659 0 0 0 .244.541c.169.14.447.254.835.343l1.303.279c.722.156 1.26.403 1.61.741.355.338.534.78.538 1.327a2.077 2.077 0 0 1-.423 1.273c-.275.364-.658.649-1.148.855-.491.205-1.054.308-1.69.308-.935 0-1.688-.195-2.258-.587-.57-.394-.91-.942-1.02-1.645l1.756-.169c.08.345.248.605.507.78.258.176.595.264 1.01.264.427 0 .77-.088 1.028-.264.262-.175.393-.392.393-.651a.679.679 0 0 0-.254-.542c-.165-.142-.424-.252-.775-.328l-1.303-.273c-.732-.153-1.274-.41-1.625-.771-.352-.365-.526-.825-.522-1.382a1.956 1.956 0 0 1 .383-1.223c.261-.348.624-.617 1.088-.805.468-.193 1.006-.289 1.616-.289.895 0 1.6.191 2.113.572.517.381.837.896.96 1.546Zm1.648 5.618v-7.636h1.8v7.636h-1.8Zm.904-8.72a1.05 1.05 0 0 1-.735-.284.912.912 0 0 1-.309-.691c0-.271.103-.502.309-.691a1.04 1.04 0 0 1 .735-.288c.289 0 .534.096.736.288.206.189.308.42.308.691a.912.912 0 0 1-.308.691 1.039 1.039 0 0 1-.736.284Zm6.077 8.869c-.762 0-1.417-.167-1.964-.502a3.355 3.355 0 0 1-1.258-1.387c-.291-.593-.437-1.276-.437-2.048 0-.776.149-1.46.447-2.054.299-.596.72-1.06 1.263-1.392.547-.334 1.193-.502 1.939-.502.62 0 1.168.115 1.646.343.48.226.863.545 1.148.96.285.411.447.891.487 1.442h-1.72a1.644 1.644 0 0 0-.497-.92c-.259-.249-.605-.373-1.04-.373-.367 0-.69.099-.969.298-.278.196-.495.477-.65.845-.153.368-.23.809-.23 1.323 0 .52.077.968.23 1.342.151.371.365.658.64.86.279.199.605.299.98.299.265 0 .502-.05.71-.15.213-.102.39-.25.533-.442.142-.192.24-.426.293-.701h1.72a3.002 3.002 0 0 1-.477 1.437c-.275.414-.65.739-1.124.974-.474.232-1.03.348-1.67.348Zm8.301-.149v-10.182h3.818c.783 0 1.439.146 1.97.438.533.291.936.692 1.207 1.203.275.507.413 1.084.413 1.73 0 .653-.138 1.233-.413 1.74a2.95 2.95 0 0 1-1.218 1.198c-.537.288-1.198.433-1.984.433h-2.53v-1.517h2.282c.457 0 .832-.079 1.123-.238.292-.159.508-.378.647-.657.142-.278.214-.598.214-.959s-.072-.68-.214-.955a1.455 1.455 0 0 0-.651-.641c-.292-.156-.668-.234-1.129-.234h-1.69v8.641H77.13Zm10.73-10.182V135.5h-1.8v-10.182h1.8Zm4.048 10.336c-.484 0-.92-.086-1.307-.258a2.14 2.14 0 0 1-.915-.776c-.222-.341-.333-.762-.333-1.263 0-.431.08-.787.239-1.069.159-.281.376-.507.65-.676a3.31 3.31 0 0 1 .93-.383 7.52 7.52 0 0 1 1.08-.193c.447-.047.81-.088 1.088-.125.279-.04.48-.099.607-.179.129-.083.194-.21.194-.383v-.029c0-.375-.111-.665-.334-.87-.222-.206-.542-.309-.96-.309-.44 0-.79.096-1.048.289a1.429 1.429 0 0 0-.517.681l-1.68-.239c.132-.464.35-.852.656-1.163.305-.315.677-.55 1.118-.706.441-.159.928-.239 1.462-.239.368 0 .734.043 1.099.129.364.087.697.229.999.428.302.196.544.462.726.8.185.339.278.761.278 1.268v5.111h-1.73v-1.049h-.06c-.109.212-.263.411-.462.597a2.234 2.234 0 0 1-.74.442 2.994 2.994 0 0 1-1.04.164Zm.468-1.322c.36 0 .674-.072.94-.214a1.58 1.58 0 0 0 .61-.577c.147-.238.22-.499.22-.78v-.9a.86.86 0 0 1-.289.129c-.132.04-.282.075-.447.104-.166.03-.33.057-.493.08l-.422.06a3.114 3.114 0 0 0-.721.179 1.2 1.2 0 0 0-.502.348c-.123.145-.184.334-.184.566 0 .332.12.582.363.751.242.169.55.254.925.254Zm7.174-3.306v4.474h-1.8v-7.636h1.72v1.297h.09c.175-.427.455-.767.84-1.019.388-.252.866-.378 1.437-.378.527 0 .986.113 1.377.338.394.226.699.552.914.98.219.427.327.946.324 1.556v4.862h-1.8v-4.584c0-.51-.133-.91-.398-1.198-.262-.288-.625-.432-1.089-.432-.314 0-.595.069-.84.208a1.446 1.446 0 0 0-.572.592c-.136.258-.203.572-.203.94Z"/><path fill="#343A40" d="M255.469 116.316V98.133h1.152v18.183h-1.152Zm.576-1.582c-1.087 0-2.031-.169-2.832-.507-.794-.345-1.416-.837-1.865-1.475-.45-.638-.7-1.397-.752-2.275h2.207c.045.527.215.966.508 1.318.299.345.686.602 1.162.771.475.17.996.254 1.562.254.619 0 1.172-.097 1.66-.293.489-.195.869-.468 1.143-.82.28-.358.42-.775.42-1.25 0-.43-.124-.781-.371-1.055-.241-.273-.57-.498-.987-.673a9.498 9.498 0 0 0-1.406-.479l-1.709-.469c-1.172-.312-2.096-.778-2.773-1.396-.677-.625-1.016-1.442-1.016-2.451 0-.84.225-1.573.674-2.198.456-.625 1.071-1.11 1.846-1.455.781-.351 1.657-.527 2.627-.527.989 0 1.858.176 2.607.527.755.345 1.351.821 1.787 1.426.443.599.674 1.286.693 2.061h-2.128c-.079-.671-.391-1.192-.938-1.563-.54-.371-1.23-.557-2.07-.557-.586 0-1.101.095-1.543.284-.436.182-.775.436-1.016.761-.234.326-.351.7-.351 1.123 0 .456.14.827.42 1.114a3.18 3.18 0 0 0 1.035.683c.41.163.804.297 1.181.401l1.416.381c.463.117.938.273 1.426.468.488.196.941.453 1.358.772.423.312.761.703 1.015 1.172.261.462.391 1.022.391 1.679a3.9 3.9 0 0 1-.635 2.188c-.423.638-1.035 1.142-1.836 1.514-.801.364-1.771.546-2.91.546Zm6.963-.234v-1.582l4.922-5.117c.521-.547.95-1.029 1.289-1.446.345-.423.602-.823.771-1.201.176-.377.264-.778.264-1.201 0-.488-.114-.908-.342-1.26a2.25 2.25 0 0 0-.928-.81 3.008 3.008 0 0 0-1.328-.283c-.521 0-.973.107-1.357.322a2.215 2.215 0 0 0-.899.898c-.208.384-.312.837-.312 1.358h-2.09c0-.886.202-1.66.606-2.324.41-.665.97-1.179 1.679-1.543.716-.372 1.524-.557 2.422-.557.918 0 1.725.182 2.422.547.697.364 1.24.859 1.631 1.484.39.619.586 1.319.586 2.1 0 .54-.101 1.067-.303 1.582-.195.514-.544 1.09-1.045 1.728-.495.632-1.185 1.394-2.07 2.285l-2.891 3.028v.117h6.543v1.875h-9.57Zm11.133-2.842v-1.767l6.279-9.942h1.396v2.617h-.898l-4.492 7.11v.117h8.623v1.865h-10.908Zm6.875 2.842v-3.379l.019-.81V99.949h2.09V114.5h-2.109Zm10.449.195c-.892 0-1.693-.169-2.403-.507a4.403 4.403 0 0 1-1.689-1.417 3.739 3.739 0 0 1-.674-2.06h2.129c.052.618.329 1.129.83 1.533.502.404 1.104.606 1.807.606.56 0 1.055-.131 1.484-.391.43-.26.768-.615 1.016-1.064.247-.456.371-.977.371-1.563s-.127-1.11-.381-1.572a2.816 2.816 0 0 0-1.055-1.104c-.442-.267-.953-.4-1.533-.4-.443 0-.885.078-1.328.234-.443.15-.801.345-1.074.586l-2.022-.293.821-7.334h7.998v1.885H289.6l-.459 4.072h.078c.28-.28.654-.508 1.123-.683a4.227 4.227 0 0 1 1.533-.274c.885 0 1.673.212 2.363.635.697.417 1.244.99 1.641 1.719.397.722.596 1.552.596 2.49 0 .944-.215 1.787-.645 2.529a4.66 4.66 0 0 1-1.777 1.739c-.749.423-1.612.634-2.588.634Z"/><path fill="#212529" fill-opacity=".6" d="M228.925 138.364v-10.5h1.77v1.262h.104c.093-.185.224-.382.393-.591.169-.212.397-.393.686-.542.288-.153.656-.229 1.104-.229.589 0 1.121.151 1.595.453.478.298.856.74 1.134 1.327.282.583.423 1.299.423 2.148 0 .838-.138 1.551-.413 2.138-.275.586-.65 1.034-1.124 1.342a2.89 2.89 0 0 1-1.61.462c-.438 0-.801-.073-1.089-.219a2.18 2.18 0 0 1-.696-.527 3.362 3.362 0 0 1-.403-.591h-.075v4.067h-1.799Zm1.765-6.682c0 .494.069.926.208 1.297.143.372.347.662.612.87.268.206.593.309.974.309.398 0 .731-.106 1-.319a1.96 1.96 0 0 0 .606-.879 3.66 3.66 0 0 0 .209-1.278 3.63 3.63 0 0 0-.204-1.263 1.9 1.9 0 0 0-.606-.865c-.269-.209-.604-.313-1.005-.313-.384 0-.711.101-.979.303-.268.202-.472.486-.612.85-.135.365-.203.794-.203 1.288Zm10.365 3.967c-.765 0-1.426-.159-1.983-.477a3.234 3.234 0 0 1-1.278-1.362c-.298-.59-.447-1.285-.447-2.083 0-.786.149-1.475.447-2.069a3.395 3.395 0 0 1 1.263-1.392c.54-.334 1.175-.502 1.904-.502.471 0 .915.076 1.332.229.421.149.792.381 1.114.696.325.315.58.716.766 1.203.185.484.278 1.061.278 1.73v.552h-6.259v-1.213h4.534a1.932 1.932 0 0 0-.224-.92 1.632 1.632 0 0 0-.611-.641 1.72 1.72 0 0 0-.905-.234c-.368 0-.691.09-.97.269a1.844 1.844 0 0 0-.651.696c-.152.285-.23.598-.234.939v1.059c0 .444.082.826.244 1.144.162.315.389.557.681.726.292.165.633.248 1.024.248.262 0 .499-.036.711-.109.212-.076.396-.187.552-.333.156-.146.273-.327.353-.542l1.68.189a2.618 2.618 0 0 1-.606 1.163 2.967 2.967 0 0 1-1.134.766c-.46.179-.987.268-1.581.268Zm4.919-.149v-7.636h1.745v1.272h.079c.139-.44.378-.78.716-1.019a1.97 1.97 0 0 1 1.168-.363c.1 0 .211.005.333.015.126.007.231.018.314.035v1.656a1.883 1.883 0 0 0-.363-.07 3.38 3.38 0 0 0-.473-.035c-.328 0-.623.071-.885.214a1.562 1.562 0 0 0-.611.582 1.638 1.638 0 0 0-.224.86v4.489h-1.799Zm9.023 0v-7.636h1.72v1.297h.09c.159-.437.422-.779.79-1.024.368-.249.807-.373 1.318-.373.517 0 .952.126 1.307.378.358.249.61.588.756 1.019h.079c.169-.424.454-.762.855-1.014.405-.255.884-.383 1.437-.383.703 0 1.276.222 1.72.666.445.445.667 1.092.667 1.944v5.126h-1.805v-4.847c0-.474-.126-.821-.378-1.039a1.35 1.35 0 0 0-.925-.333c-.434 0-.774.135-1.019.407-.242.269-.363.618-.363 1.049v4.763h-1.765v-4.922c0-.394-.119-.709-.358-.944-.235-.236-.543-.353-.924-.353-.259 0-.494.066-.706.198-.212.13-.381.314-.507.552a1.727 1.727 0 0 0-.189.826v4.643h-1.8Zm15.895.149c-.745 0-1.392-.164-1.939-.492a3.341 3.341 0 0 1-1.272-1.377c-.299-.59-.448-1.28-.448-2.068 0-.789.149-1.48.448-2.074a3.342 3.342 0 0 1 1.272-1.382c.547-.328 1.194-.492 1.939-.492.746 0 1.392.164 1.939.492.547.329.97.789 1.268 1.382.302.594.452 1.285.452 2.074 0 .788-.15 1.478-.452 2.068a3.306 3.306 0 0 1-1.268 1.377c-.547.328-1.193.492-1.939.492Zm.01-1.442c.405 0 .743-.111 1.015-.333.271-.225.474-.527.606-.905a3.7 3.7 0 0 0 .204-1.262c0-.468-.068-.89-.204-1.268a2.006 2.006 0 0 0-.606-.91c-.272-.225-.61-.338-1.015-.338-.414 0-.759.113-1.034.338a2.039 2.039 0 0 0-.611.91 3.8 3.8 0 0 0-.199 1.268c0 .464.066.885.199 1.262.136.378.339.68.611.905.275.222.62.333 1.034.333Zm6.977-3.181v4.474h-1.8v-7.636h1.72v1.297h.09c.175-.427.455-.767.84-1.019.388-.252.867-.378 1.437-.378.527 0 .986.113 1.377.338.394.226.699.552.915.98.218.427.326.946.323 1.556v4.862h-1.8v-4.584c0-.51-.133-.91-.398-1.198-.262-.288-.624-.432-1.089-.432-.314 0-.594.069-.84.208a1.443 1.443 0 0 0-.571.592c-.136.258-.204.572-.204.94Zm10.544-3.162v1.392h-4.389v-1.392h4.389Zm-3.306-1.83h1.8v7.169c0 .242.037.428.109.557a.59.59 0 0 0 .299.258c.122.047.258.07.407.07a2.138 2.138 0 0 0 .527-.07l.304 1.407c-.096.034-.234.07-.413.11-.176.04-.391.063-.646.069a2.924 2.924 0 0 1-1.218-.203 1.895 1.895 0 0 1-.86-.706c-.209-.319-.312-.716-.309-1.194v-7.467Zm6.775 4.992v4.474h-1.799v-10.182h1.76v3.843h.089c.179-.431.456-.77.83-1.019.378-.252.859-.378 1.442-.378.53 0 .993.111 1.387.333.395.222.7.547.915.975.219.427.328.949.328 1.566v4.862h-1.8v-4.584c0-.514-.132-.913-.397-1.198-.262-.288-.63-.432-1.104-.432a1.74 1.74 0 0 0-.855.208 1.461 1.461 0 0 0-.587.592c-.139.258-.209.572-.209.94Z"/><circle cx="550" cy="76" r="3" fill="#AED0FF"/><defs><filter id="a" width="262" height="114.006" x="36" y="79" color-interpolation-filters="sRGB" filterUnits="userSpaceOnUse"><feFlood flood-opacity="0" result="BackgroundImageFix"/><feColorMatrix in="SourceAlpha" result="hardAlpha" values="0 0 0 0 0 0 0 0 0 0 0 0 0 0 0 0 0 0 127 0"/><feOffset dy="1"/><feGaussianBlur stdDeviation="2"/><feComposite in2="hardAlpha" operator="out"/><feColorMatrix values="0 0 0 0 0 0 0 0 0 0 0 0 0 0 0 0 0 0 0.08 0"/><feBlend in2="BackgroundImageFix" result="effect1_dropShadow_18_616"/><feColorMatrix in="SourceAlpha" result="hardAlpha" values="0 0 0 0 0 0 0 0 0 0 0 0 0 0 0 0 0 0 127 0"/><feOffset dy="1"/><feGaussianBlur stdDeviation=".5"/><feComposite in2="hardAlpha" operator="out"/><feColorMatrix values="0 0 0 0 0 0 0 0 0 0 0 0 0 0 0 0 0 0 0.06 0"/><feBlend in2="effect1_dropShadow_18_616" result="effect2_dropShadow_18_616"/><feBlend in="SourceGraphic" in2="effect2_dropShadow_18_616" result="shape"/></filter><filter id="b" width="302" height="98" x="16" y="70" color-interpolation-filters="sRGB" filterUnits="userSpaceOnUse"><feFlood flood-opacity="0" result="BackgroundImageFix"/><feColorMatrix in="SourceAlpha" result="hardAlpha" values="0 0 0 0 0 0 0 0 0 0 0 0 0 0 0 0 0 0 127 0"/><feOffset dy="1"/><feGaussianBlur stdDeviation="2"/><feComposite in2="hardAlpha" operator="out"/><feColorMatrix values="0 0 0 0 0 0 0 0 0 0 0 0 0 0 0 0 0 0 0.08 0"/><feBlend in2="BackgroundImageFix" result="effect1_dropShadow_18_616"/><feColorMatrix in="SourceAlpha" result="hardAlpha" values="0 0 0 0 0 0 0 0 0 0 0 0 0 0 0 0 0 0 127 0"/><feOffset dy="1"/><feGaussianBlur stdDeviation=".5"/><feComposite in2="hardAlpha" operator="out"/><feColorMatrix values="0 0 0 0 0 0 0 0 0 0 0 0 0 0 0 0 0 0 0.06 0"/><feBlend in2="effect1_dropShadow_18_616" result="effect2_dropShadow_18_616"/><feBlend in="SourceGraphic" in2="effect2_dropShadow_18_616" result="shape"/></filter></defs></svg>