<svg width="64" height="64" fill="none" xmlns="http://www.w3.org/2000/svg">
  <path d="m60.276 37.292.235-.137a.057.057 0 0 0-.002-.1l-18.871-9.758a.044.044 0 0 1-.005-.002L24.57 16.302a.057.057 0 0 0-.06-.001L3.226 28.67l.352.203-.352.197.455.18-.455.264.335.193-.335.224.35.223-.35.204.325.187-.325.2.35.254-.35.203.322.186-.322.186.305.2a.057.057 0 0 1-.003.097l-.302.175.372.215-.372.237.376.174-.376.218.299.173a.057.057 0 0 1 .003.097l-.302.204.365.158-.365.212.326.189-.326.17.332.194a.057.057 0 0 1 0 .098l-.332.194.36.207-.36.19.385.223-.385.224.343.198-.343.2.385.222-.385.224L39.258 57.07c.018.01.04.01.058 0L60.6 44.7l-.343-.178.343-.198-.317-.185a.057.057 0 0 1 0-.098l.317-.185-.343-.178.343-.198-.33-.175a.057.057 0 0 1-.002-.1l.332-.193-.377-.195.377-.22-.388-.203.388-.226-.316-.164.316-.137-.357-.24a.057.057 0 0 1 .003-.098l.354-.205-.329-.17.33-.152-.35-.223a.057.057 0 0 1 .002-.098l.347-.201-.343-.178.343-.225-.381-.22.381-.222-.31-.16.31-.227-.382-.234.382-.223-.309-.16.31-.196-.315-.21a.057.057 0 0 1 .003-.097l.311-.18-.41-.213.41-.161-.325-.182a.057.057 0 0 1 0-.1Z" fill="#C1DBF6"/>
  <path d="M24.54 15.439 3.226 27.826l36.061 20.82 21.314-12.387-18.965-9.807L24.54 15.44Z" fill="#fff"/>
  <path d="M29.107 18.082 6.484 28.486s10.376 7.212 12.28 8.323c7.056 4.117 20.523 11.836 20.523 11.836L60.601 36.26l-18.965-9.807-12.53-8.37Z" fill="#C1DBF6"/>
  <path d="M50.35 29.848c-2.539-1.232-5.17-2.29-7.57-3.779-2.736-1.658-5.242-3.647-7.716-5.668-3.496-2.747-6.742-5.861-9.257-9.551-7.126 3.831-14.205 7.638-21.328 11.477 3.208 4.4 6.617 8.074 10.803 11.341 1.962 1.596 4.225 3.159 6.342 4.544 2.36 1.58 4.935 3.06 7.541 4.184 3.419 1.514 6.599 2.93 10.102 4.257 7.626-4.114 15.195-8.23 22.8-12.385-4.097-.956-7.941-2.626-11.716-4.42Z" fill="#fff"/>
  <path d="M25.807 10.85c2.515 3.69 5.76 6.804 9.257 9.551 2.474 2.021 4.98 4.01 7.717 5.668 2.4 1.489 5.03 2.547 7.57 3.779 3.775 1.794 7.619 3.464 11.716 4.42l-2.587 1.411 1.121.58-.768.447.768.397-.412.24.412.23-.41.162.41.212-.39.227.39.26-.309.198.31.16-.383.222.382.234-.31.227.31.16-.381.222.381.22-.343.225.343.178-.428.248.428.274-.329.151.33.17-.434.252.433.292-.316.137.316.164-.388.226.388.203-.377.22.377.195-.421.245.421.223-.343.198.343.178-.402.234.402.234-.343.199.343.177-21.314 12.387-36.061-20.82.385-.224-.385-.223.343-.2-.343-.197.385-.224-.385-.223.36-.19-.36-.208.417-.242-.417-.243.326-.17-.326-.189.365-.212-.365-.158.378-.255-.378-.219.376-.218-.376-.174.372-.237-.372-.215.382-.222-.382-.25.322-.186-.322-.186.35-.203-.35-.255.325-.199-.325-.187.35-.204-.35-.223.335-.224-.335-.193.455-.265-.455-.18.352-.196-.352-.203.729-.424-.729-.42 3.805-2.212a67.102 67.102 0 0 1-2.552-3.287c7.123-3.839 14.202-7.646 21.328-11.477Zm0-.915a.91.91 0 0 0-.433.11c-7.145 3.841-14.153 7.61-21.329 11.477a.914.914 0 0 0-.305 1.343 69.979 69.979 0 0 0 1.906 2.497l-2.88 1.673a.914.914 0 0 0-.351 1.213.913.913 0 0 0-.081.622.914.914 0 0 0 .005.422.914.914 0 0 0-.003.43.915.915 0 0 0 .001.422.913.913 0 0 0-.005.407.915.915 0 0 0 .009.422.914.914 0 0 0-.01.415.915.915 0 0 0 .012.422.914.914 0 0 0-.003.462.912.912 0 0 0-.007.422.912.912 0 0 0 .01.433.913.913 0 0 0-.012.422.913.913 0 0 0-.002.365.913.913 0 0 0 .016.422.913.913 0 0 0-.011.441.913.913 0 0 0 .005.422.914.914 0 0 0-.005.422.912.912 0 0 0 .005.422.913.913 0 0 0 .43 1.016l36.061 20.82a.914.914 0 0 0 .916-.002l21.315-12.386a.914.914 0 0 0 .435-.979.914.914 0 0 0-.01-.422.913.913 0 0 0 .01-.422.912.912 0 0 0-.01-.422.913.913 0 0 0 .006-.442.917.917 0 0 0-.002-.422.914.914 0 0 0 .013-.365.91.91 0 0 0-.029-.422.914.914 0 0 0 .027-.432.91.91 0 0 0-.023-.422.915.915 0 0 0 .015-.463.913.913 0 0 0-.005-.422.91.91 0 0 0 .007-.414.92.92 0 0 0-.008-.422.912.912 0 0 0 .011-.407.919.919 0 0 0-.015-.422.914.914 0 0 0 .013-.43.92.92 0 0 0-.011-.423.912.912 0 0 0-.073-.657.912.912 0 0 0-.08-.97l1.173-.64a.914.914 0 0 0-.23-1.694c-4.087-.953-7.957-2.656-11.532-4.355-.728-.353-1.477-.698-2.203-1.032-1.776-.818-3.612-1.664-5.277-2.697-2.735-1.657-5.264-3.675-7.621-5.6l-.013-.01c-3.907-3.07-6.872-6.129-9.066-9.348a.914.914 0 0 0-.756-.4Z" fill="#374874"/>
  <path d="m12.104 26.284 14.379-8.202M36.778 42.179l15.118-8.624M16.702 30.763l14.567-8.31M22.731 35.096l14.677-8.372M29.283 38.979l15.054-8.587" stroke="#374874" stroke-width=".5" stroke-linecap="round"/>
</svg>
