<svg width="50" height="50" viewBox="0 0 50 50" fill="none" xmlns="http://www.w3.org/2000/svg">
<path d="M14.2253 0.368919C18.6324 -0.670268 24.3537 0.621935 25.115 5.03402C25.7193 8.53619 25.6076 12.3218 24.0293 14.3232C21.8688 17.0628 17.5049 14.5456 14.8456 15.5903C9.01787 17.8797 8.3493 25.6892 11.4253 32.5517C8.40846 26.9907 5.65278 20.4491 6.17355 12.3218C6.491 7.36756 8.76629 1.65614 14.2253 0.368919Z" fill="#1AD3BB"/>
<path d="M41.2773 47.1072C44.5775 43.5629 45.4993 38.1637 42.7208 36.1304C39.9423 34.0972 35.1182 31.7078 33.1656 33.5997C30.6254 36.0611 30.5855 37.2375 28.3612 39.0297C23.4866 42.9572 16.3712 39.67 11.9326 33.5997C15.2699 38.9741 19.5883 44.6073 26.9066 48.1802C31.3678 50.3582 37.4563 51.211 41.2773 47.1072Z" fill="#1AD3BB"/>
<path d="M11.8905 1.31986C14.121 0.0315642 16.7496 -0.282958 19.5415 0.242741C19.5451 0.24753 19.5488 0.252608 19.5524 0.257394C18.4185 0.0280815 17.314 0.15566 16.3676 0.702138C16.3316 0.72296 16.2968 0.746501 16.2615 0.768325C16.2243 0.788074 16.186 0.807038 16.1494 0.828182C11.6836 3.40812 13.8051 15.4428 20.8881 27.7085C27.9711 39.9743 37.3335 47.8268 41.7998 45.2477C41.8365 45.2265 41.8715 45.2019 41.9072 45.1795C41.9438 45.1599 41.982 45.1425 42.0181 45.1216C42.7376 44.706 43.292 44.0895 43.6789 43.3361C42.4959 45.9143 41.2574 47.4971 39.2316 48.6671C31.5885 53.0816 19.272 46.0612 11.7219 32.9866C4.17188 19.9121 4.24736 5.73438 11.8905 1.31986Z" fill="#1AD3BB"/>
<path d="M11.7811 33.0882C15.5679 39.595 22.6595 42.5358 27.6454 39.6564C28.0452 39.4254 28.4384 39.0765 28.8151 38.6618C33.8993 44.1771 38.8891 46.9278 41.8001 45.2467C41.8372 45.2252 41.8735 45.2017 41.9098 45.179C41.9453 45.1599 41.9816 45.1419 42.0168 45.1217C42.7309 44.7093 43.2815 44.098 43.668 43.3524C42.814 45.2098 41.9307 46.5493 40.742 47.5902C40.5313 47.7747 40.3109 47.9494 40.0796 48.1163C39.812 48.3094 39.5309 48.4936 39.2311 48.6668L38.8698 48.8647C31.2248 52.8494 19.2178 45.8935 11.7811 33.0882Z" fill="#03AF89"/>
<path d="M11.8907 1.31897C14.121 0.0310989 16.7496 -0.282774 19.5412 0.242845C19.5417 0.246526 19.5426 0.250535 19.5431 0.254221C19.5453 0.254667 19.5475 0.254783 19.5497 0.255232L19.5513 0.257296C18.4176 0.0283251 17.3128 0.155046 16.3666 0.701444C16.3306 0.722282 16.2962 0.746213 16.261 0.768057C16.2239 0.78769 16.1855 0.806429 16.1491 0.827449C13.2278 2.51509 13.1263 8.24851 15.3874 15.446C14.8475 15.5621 14.3561 15.7267 13.9588 15.9562C8.9667 18.8398 7.9735 26.4687 11.7332 33.0066C11.7293 32.9999 11.7254 32.9928 11.7215 32.986C4.17168 19.9115 4.24764 5.73342 11.8907 1.31897Z" fill="#03AF89"/>
<path d="M11.7544 33.0427C15.5346 39.5812 22.656 42.5376 27.6631 39.6459C28.0583 39.4175 28.4464 39.0738 28.8195 38.6659C33.9023 44.1784 38.8901 46.9281 41.8004 45.2476C41.8376 45.2261 41.8735 45.2018 41.9098 45.1789C41.9456 45.1597 41.9826 45.142 42.0179 45.1216C42.7359 44.7069 43.2901 44.0921 43.6769 43.3409C43.4753 43.7799 43.271 44.1894 43.0626 44.5735C42.3856 45.8211 41.6527 46.7934 40.7412 47.5912C40.558 47.7516 40.3675 47.9047 40.1688 48.0517C39.8751 48.2689 39.5652 48.4744 39.2323 48.6667C38.912 48.8517 38.582 49.0146 38.246 49.1598C38.2042 49.1779 38.1635 49.1976 38.1214 49.2151C37.7467 49.3707 37.363 49.5025 36.9709 49.6104C36.8176 49.6526 36.6625 49.6899 36.5067 49.7249C36.159 49.803 35.8052 49.8629 35.4462 49.9057C35.348 49.9174 35.2495 49.9277 35.1506 49.9368C34.3813 50.0076 33.5891 50.0003 32.7792 49.9175C32.5344 49.8924 32.288 49.8595 32.0402 49.8208C31.2993 49.7052 30.5462 49.5291 29.7847 49.2951C29.644 49.2518 29.503 49.2072 29.3617 49.16C29.1444 49.0874 28.9263 49.0114 28.7078 48.9296C28.5064 48.8541 28.305 48.7729 28.1028 48.6896C27.9434 48.624 27.7836 48.5569 27.6238 48.4865C26.8253 48.1347 26.0231 47.7231 25.2211 47.2555C23.8261 46.4422 22.4334 45.4587 21.0689 44.3183C20.8958 44.1737 20.7229 44.0269 20.5508 43.8773C20.3457 43.699 20.1409 43.5175 19.9374 43.3321C19.3597 42.8062 18.7888 42.252 18.2262 41.6713C18.1639 41.6069 18.1014 41.5424 18.0393 41.4774C17.8629 41.2928 17.688 41.1051 17.5134 40.9153C17.4206 40.8144 17.3271 40.7135 17.2348 40.6111C16.7044 40.0226 16.1841 39.4094 15.6737 38.7738C15.3714 38.3974 15.0723 38.0134 14.7781 37.6211C14.428 37.1543 14.0843 36.6762 13.7467 36.1875C13.6665 36.0714 13.586 35.9549 13.5066 35.8376C13.3436 35.597 13.1835 35.3534 13.0239 35.1077C12.8186 34.792 12.6152 34.4725 12.4156 34.1486C12.1917 33.7852 11.9708 33.4162 11.7544 33.0427Z" fill="#03AF89"/>
</svg>
