<svg width="50" height="50" viewBox="10 10 50 50" xmlns="http://www.w3.org/2000/svg"><path d="M35 10C21.1929 10 10 21.1929 10 35L23 35C23 28.3726 28.3726 23 35 23C38.3137 23 41.3137 24.3431 43.4853 26.5147L41.8284 28.1716C39.3086 30.6914 41.0932 35 44.6569 35L60 35L60 19.6569C60 16.0932 55.6914 14.3086 53.1716 16.8284L52.6777 17.3223C48.1536 12.7982 41.9036 10 35 10Z" fill="#1AD3BB"/><path d="M23 35C23 31.4102 20.0899 28.5 16.5 28.5C12.9102 28.5 10 31.4101 10 35C10 35.0021 10 35.0042 10 35.0063C10.0034 48.8105 21.195 60 35 60L35 47C28.3726 47 23 41.6274 23 35Z" fill="#03AF89"/><path d="M60 35C60 48.8052 48.8103 59.9968 35.0059 60H35C31.4101 60 28.5 57.0899 28.5 53.5C28.5 49.9101 31.4102 47 35 47C41.6274 47 47 41.6274 47 35H60Z" fill="#1A6F66"/></svg>
