<svg width="200" height="120" viewBox="0 0 200 120" fill="none" xmlns="http://www.w3.org/2000/svg">
<path d="M112.58 21.1639H131.096C130.618 20.9882 129.374 20.5238 128.129 20.0594C128.23 19.6578 128.343 19.2562 128.444 18.8671C140.699 21.7789 153.005 24.4398 165.16 27.6905C171.056 29.272 176.788 31.6567 182.331 34.2171C192.764 39.0493 196.749 48.4376 198.81 58.9555C199.187 60.8758 199.376 62.8338 199.64 64.7792C201.852 80.7192 193.782 88.7645 178.045 98.592C177.052 99.207 175.757 99.3827 174.864 100.086C160.635 111.394 143.452 114.406 126.256 117.193C97.2451 121.887 68.8245 119.402 41.3467 108.821C33.2014 105.683 25.1818 101.968 17.6398 97.6005C6.17606 90.986 1.16067 80.054 0.192783 67.2518C-1.60471 43.4422 9.21798 24.7661 30.5491 13.947C44.6777 6.79287 59.7993 3.3664 75.4489 2.37486C90.5831 1.42097 105.793 0.379228 120.927 0.780865C137.016 1.2076 152.968 3.8308 167.838 10.621C169.912 11.5623 171.508 13.5328 172.753 15.7042C163.023 14.2608 153.32 12.717 143.578 11.3991C138.688 10.7339 133.736 10.3323 128.808 10.0687C104.988 8.7885 81.4322 10.5833 58.4166 17.0723C50.661 19.2562 43.0059 22.168 35.7782 25.72C17.8787 34.5058 8.16211 52.6548 10.211 72.084C10.8772 78.347 13.718 83.2169 19.2613 86.3923C46.1233 101.793 75.0089 108.357 105.906 106.211C121.467 105.131 136.916 103.424 151.673 97.9268C162.772 93.7849 173.331 88.6766 182.268 80.7317C192.047 72.0338 193.983 62.1811 187.937 50.4834C186.806 48.287 184.681 46.4043 182.607 44.9233C174.626 39.1874 164.834 37.4428 156.148 33.3888C142.899 27.2136 128.607 26.4731 114.805 23.2223C113.988 23.0341 113.234 22.5822 112.455 22.2559C112.492 21.8919 112.543 21.5279 112.58 21.1639Z" fill="#00CEB3"/>
</svg>
