<svg width="200" height="32" viewBox="0 0 200 32" fill="none" xmlns="http://www.w3.org/2000/svg">
<path d="M133.953 15.9612C141.823 16.4629 149.704 16.9364 157.564 17.4832C159.591 17.6241 161.619 17.9229 163.563 18.2724C167.681 18.9995 170.765 23.2498 166.093 24.9803C166.699 25.2734 167.274 25.544 167.995 25.8878C159.518 27.9566 150.728 28.5372 141.792 28.7063C122.769 29.0671 103.736 29.3094 84.7239 29.7942C70.9168 30.1493 57.1516 30.854 43.355 31.3387C40.1253 31.4515 36.8225 31.4346 33.6242 31.1922C32.0773 31.0738 30.1332 30.4707 29.3911 29.7717C28.4609 28.8923 27.907 27.5733 28.4609 26.6714C28.8581 26.0175 31.2725 25.4087 32.8716 25.3411C39.2683 25.0648 45.6962 25.0085 52.1137 24.8676C79.0903 24.2757 106.056 23.712 133.033 23.0637C136.775 22.9736 140.485 22.4719 144.206 22.1562C144.206 21.9815 144.196 21.8067 144.185 21.632C141.468 21.4347 138.75 21.1021 136.022 21.057C114.157 20.6737 92.2807 20.048 70.4152 20.1213C59.0748 20.1607 47.7657 21.5531 36.4149 22.1675C29.5166 22.5452 22.5346 22.9003 15.6363 22.7368C8.5917 22.5677 6.22956 19.1686 10.2954 15.995C13.7236 13.3175 17.8626 11.6039 24.2801 11.2375C40.7211 10.3074 57.0784 8.97709 73.4985 7.96808C87.6609 7.09999 101.865 6.45173 116.048 5.70202C116.634 5.6682 117.198 5.55547 117.689 5.25108C112.683 5.25108 107.666 5.2398 102.66 5.26234C101.583 5.26234 100.506 5.44836 99.4194 5.454C80.6267 5.63438 61.8236 5.80914 43.031 5.96133C32.3595 6.04589 21.688 6.09098 11.0166 6.11352C8.95752 6.11352 6.87758 6.02898 4.8499 5.83732C1.78747 5.55548 -0.0207247 4.2477 0.000179284 2.59045C0.000179284 1.38415 0.888597 0.718993 3.29255 0.741541C9.16656 0.79791 15.0406 0.865555 20.9146 0.831734C41.0451 0.707721 61.1861 0.408958 81.3166 0.420232C109.725 0.431506 138.144 0.578061 166.542 0.837359C175.228 0.916276 183.892 1.53635 192.557 1.95912C195.787 2.11695 198.389 2.86102 199.581 4.63665C200.636 6.20936 199.706 6.84632 196.706 6.58702C195.954 6.51938 195.191 6.4912 194.438 6.47992C194.041 6.47992 193.633 6.55321 192.881 6.62649C193.602 7.07744 194.187 7.39311 194.658 7.75387C197.584 9.99173 196.299 11.7674 191.386 12.1225C177.903 13.0808 164.42 14.0334 150.927 14.8902C147.593 15.1044 144.175 14.8902 140.809 14.9748C138.499 15.0368 136.2 15.2735 133.9 15.437L133.942 15.9556L133.953 15.9612Z" fill="#00CEB3"/>
</svg>
