<svg width="185" height="185" viewBox="0 0 185 185" fill="none" xmlns="http://www.w3.org/2000/svg">
<g clip-path="url(#clip0_6207_17489)">
<path d="M104.474 115.333C100.802 115.855 98.8167 116.707 97.0675 116.314C73.4521 110.832 49.7777 105.66 26.3395 99.2438C20.7771 97.752 15.3658 92.8341 11.6393 88.1208C6.71091 81.7122 9.94962 75.5763 18.1089 75.101C22.531 74.8358 27.4608 75.4484 31.4066 77.2972C54.1413 87.9436 76.632 99.086 99.1213 110.104C100.75 110.869 101.767 112.749 104.349 115.331L104.474 115.333Z" fill="#00CEB3"/>
<path d="M151.143 84.8297C150.559 83.0141 149.101 81.0629 149.392 79.3827C152.199 59.0243 154.693 38.5997 158.688 18.5677C159.512 14.5866 166.777 11.994 170.979 8.80255C173.17 14.5668 178.24 21.2394 176.928 26.0877C173.769 38.0851 167.733 49.2989 163.01 60.8406C159.68 68.9693 156.663 77.2891 153.521 85.4825L151.081 84.8913L151.143 84.8297Z" fill="#00CEB3"/>
<path d="M118.499 95.927C117.627 95.6717 116.197 95.5987 115.881 95.0368C106.042 76.4366 95.8313 57.9578 86.9842 38.992C85.6574 36.1845 90.4016 30.5632 92.2964 26.2881C96.9756 28.4994 104.881 29.8648 105.713 33.0417C111.337 53.2263 115.41 73.8344 119.979 94.3219C120.106 94.6958 119.116 95.31 118.562 95.9897L118.499 95.927Z" fill="#00CEB3"/>
<path d="M83.246 153.182C82.3881 157.337 82.4696 158.396 82.1006 158.639C61.9352 169.04 40.6737 173.943 17.6636 168.295C14.7244 167.556 11.4138 163.512 10.5487 160.446C10.0822 158.757 14.4158 154.043 16.7797 153.962C38.4921 153.299 60.3426 153.386 83.246 153.182Z" fill="#00CEB3"/>
</g>
<defs>
<clipPath id="clip0_6207_17489">
<rect width="185" height="185" fill="white"/>
</clipPath>
</defs>
</svg>
