<svg width="64" height="64" viewBox="0 0 64 64" fill="none" xmlns="http://www.w3.org/2000/svg">
<path d="M7.30286 59.3956C7.82107 59.4029 8.3323 59.2753 8.78629 59.0253L38.8594 41.6539C39.7498 41.1012 40.3061 40.1411 40.3429 39.0939V4.36702C40.2859 3.32503 39.7358 2.37255 38.8617 1.80245L38.5143 1.60588C37.5857 1.11054 36.4714 1.11054 35.5429 1.60588L5.46971 18.9773C4.58462 19.5332 4.03376 20.4927 4 21.5373V56.2665C4.05845 57.308 4.60818 58.2599 5.48114 58.831L5.81943 59.0253C6.27353 59.275 6.78466 59.4026 7.30286 59.3956Z" fill="#374874"/>
<path d="M6.22606 58.1247L5.88778 57.9305C5.31436 57.5552 4.95303 56.9301 4.91406 56.2459V21.5419C4.95303 20.8577 5.31436 20.2326 5.88778 19.8573L35.9403 2.50646C36.5523 2.19576 37.2758 2.19576 37.8878 2.50646L38.2261 2.70075C38.8001 3.07647 39.1615 3.7026 39.1998 4.3876V39.0893C39.1608 39.7741 38.7996 40.3999 38.2261 40.7762L8.17349 58.1247C7.56154 58.4354 6.83802 58.4354 6.22606 58.1247Z" fill="white"/>
<path d="M4.91406 38.8831V21.5323C4.92622 21.1932 5.02455 20.8628 5.19978 20.5723L9.48549 23.0477V57.3563L8.17349 58.1151C7.56101 58.4236 6.83854 58.4236 6.22606 58.1151L5.88549 57.9185C5.31267 57.543 4.95214 56.9178 4.91406 56.234V38.8831Z" fill="#FBDBD0"/>
<path d="M38.2265 3.82285L8.17391 21.1783C7.60111 21.5531 7.23988 22.1772 7.2002 22.8606V57.5623C7.2002 58.184 7.63677 58.4354 8.17391 58.1246L38.2265 40.7737C38.7999 40.3984 39.1612 39.7733 39.2002 39.0891V4.38514C39.2002 3.76799 38.7613 3.51428 38.2265 3.82285Z" fill="white"/>
<path d="M10.7932 47.4635C12.7749 46.3206 13.8401 44.6064 13.9612 42.3732C14.0275 41.1664 14.0869 35.5389 14.1189 32.2909C14.1578 28.2475 14.9258 27.2875 15.5886 26.9058C15.7349 26.8077 15.9212 26.7913 16.0823 26.8624C16.4778 27.0384 16.8321 27.6944 17.0286 28.6201C17.3098 29.9252 17.9132 31.5915 18.6949 32.0098C18.9009 32.1252 19.1483 32.1403 19.3669 32.0509C20.7955 31.4658 20.7955 30.1424 20.6858 27.7378V27.1618C20.7841 24.8052 20.7749 22.3618 22.2469 21.5526C22.5898 21.3606 22.7658 21.4086 22.8709 21.4612C23.5749 21.8064 24.0138 24.1286 24.3132 26.1126C24.4915 27.2875 25.1818 31.1709 26.5395 31.8269C26.8323 31.9678 27.1765 31.9505 27.4538 31.7812C27.839 31.5413 28.142 31.1897 28.3223 30.7732C28.49 30.3952 28.7569 30.0697 29.0949 29.8315C29.2747 29.6856 29.5139 29.6353 29.7372 29.6966C30.5989 29.9595 31.4583 32.0578 32.0869 33.5824C32.6149 34.8738 33.2869 35.6669 34.0823 35.9389C34.6934 36.1296 35.3575 36.041 35.8972 35.6966L35.6412 35.2555C35.2275 35.5216 34.7185 35.5942 34.2469 35.4544C33.5955 35.2258 33.0286 34.5401 32.5578 33.3972C31.6641 31.2121 30.8983 29.5115 29.8858 29.2075C29.5159 29.1037 29.1188 29.1781 28.8115 29.4086C28.4049 29.6927 28.0813 30.0801 27.8743 30.5309C27.7329 30.8638 27.4938 31.146 27.1886 31.3401C27.0533 31.4338 26.877 31.4444 26.7315 31.3675C26.0001 31.0155 25.2183 28.8738 24.7863 26.0395C24.2926 22.7824 23.8103 21.3698 23.0652 21.0109C22.7406 20.8509 22.3795 20.8852 21.9703 21.1138C20.2332 22.0761 20.2446 24.6681 20.1989 27.1732V27.7469C20.2561 30.0738 20.2561 31.1344 19.1452 31.5892C19.0656 31.6217 18.9751 31.6132 18.9029 31.5664C18.4206 31.3126 17.8172 30.0029 17.4995 28.5241C17.2709 27.4064 16.8138 26.6544 16.2583 26.4052C15.9491 26.2677 15.5916 26.2934 15.3052 26.4738C14.4755 26.9515 13.6206 28.0189 13.5795 32.2955C13.5475 35.5389 13.4881 41.1572 13.4241 42.3526C13.3098 44.4326 12.3566 45.9618 10.5098 47.0292L10.7932 47.4635Z" fill="#374874"/>
<path d="M10.8413 42.6852C11.4584 42.1024 11.6344 40.6007 11.8378 38.8612C12.0847 36.7675 12.3613 34.3927 13.4721 33.899C14.4047 33.483 15.3853 34.7515 16.3338 35.979C17.3144 37.2498 18.3315 38.5618 19.4035 37.915C20.359 37.339 20.7453 36.2418 21.1178 35.1721C21.4904 34.1024 21.8584 33.0738 22.7613 32.5778C23.4653 32.1915 24.0961 32.6875 25.1498 33.5972C26.327 34.6144 27.7921 35.883 30.039 35.7435C34.0641 35.499 36.0207 30.7652 36.0344 29.627H35.5224C35.5224 30.379 33.895 35.003 30.0093 35.2384C27.9773 35.3595 26.5921 34.171 25.4835 33.2155C24.4527 32.3264 23.5635 31.5584 22.5121 32.1344C21.4607 32.7104 21.031 33.8852 20.6355 35.0075C20.2767 36.0292 19.9361 36.9915 19.1361 37.4738C18.4504 37.8852 17.6207 36.8064 16.7338 35.6612C15.7144 34.3447 14.5578 32.8521 13.2641 33.4281C11.8927 34.0407 11.6047 36.459 11.3304 38.7972C11.1544 40.3012 10.9715 41.8555 10.4893 42.3104L10.8413 42.6852Z" fill="#C1DBF6"/>
<path d="M33.8105 9.59701C33.3234 9.91548 33.0171 10.4468 32.9854 11.0279C32.9854 11.5536 33.3556 11.7684 33.8105 11.5056C34.295 11.1856 34.5987 10.6545 34.6288 10.0747C34.6288 9.54673 34.2676 9.33416 33.8105 9.59701Z" fill="#C1DBF6"/>
<path d="M32.3539 11.21C32.3235 11.6243 32.0978 11.9995 31.7459 12.2203L26.1139 15.4637C25.7779 15.658 25.5036 15.5208 25.5059 15.1574C25.5358 14.743 25.7617 14.3676 26.1139 14.1471L31.7459 10.8923C32.0819 10.7071 32.3539 10.8465 32.3539 11.21Z" fill="#C1DBF6"/>
<path d="M33.8105 13.5501C33.3234 13.8686 33.0171 14.3999 32.9854 14.981C32.9854 15.5067 33.3556 15.7216 33.8105 15.4587C34.295 15.1387 34.5987 14.6077 34.6288 14.0279C34.6288 13.4999 34.2676 13.2873 33.8105 13.5501Z" fill="#374874"/>
<path d="M32.3539 15.1644C32.3235 15.5787 32.0978 15.9538 31.7459 16.1746L26.1139 19.4249C25.7779 19.6192 25.5036 19.4821 25.5059 19.1186C25.5358 18.7042 25.7617 18.3289 26.1139 18.1084L31.7459 14.8558C32.0819 14.6615 32.3539 14.7986 32.3539 15.1644Z" fill="#C1DBF6"/>
<path d="M27.8124 62.5252C28.3215 62.5299 28.8234 62.4048 29.2707 62.1617L58.5439 45.2612C59.4175 44.7177 59.9633 43.7751 59.9999 42.7469V8.93431C59.9391 7.91321 59.3992 6.98096 58.5439 6.42002L58.2147 6.23031C57.303 5.74875 56.2122 5.74875 55.3004 6.23031L26.0273 23.1446C25.1528 23.6872 24.6066 24.6303 24.5713 25.6589V59.4486C24.632 60.4697 25.1719 61.4019 26.0273 61.9629L26.3564 62.1526" fill="#374874"/>
<path d="M26.7608 61.2597L26.4339 61.0722C25.8753 60.7056 25.5234 60.0959 25.4854 59.4288V25.6551C25.5227 24.9878 25.8748 24.3778 26.4339 24.0117L55.6911 7.12481C56.2874 6.82298 56.9918 6.82298 57.5882 7.12481L57.9151 7.31224C58.4711 7.68042 58.8203 8.28981 58.8568 8.95567V42.7294C58.8209 43.3971 58.4685 44.0077 57.9082 44.3728L28.6511 61.2597C28.0571 61.5614 27.3547 61.5614 26.7608 61.2597Z" fill="white"/>
<path d="M25.4854 42.5408V25.6517C25.4959 25.3221 25.5894 25.0006 25.7574 24.7168L29.8282 27.1214V60.5271L28.6236 61.2402C28.0177 61.5557 27.2959 61.5557 26.6899 61.2402L26.4156 61.0779C25.8671 60.7096 25.5228 60.1056 25.4854 59.4459V42.5408Z" fill="#FBDBD0"/>
<path d="M58.8572 9.00714C58.8572 8.406 58.4298 8.15914 57.9086 8.46086L28.7178 25.3134C28.1588 25.6773 27.8072 26.2863 27.7715 26.9523V60.662C27.7715 61.2654 28.1943 61.51 28.7178 61.2083L57.9109 44.3534C58.4699 43.9895 58.8215 43.3806 58.8572 42.7146V9.00714Z" fill="white"/>
<path d="M38.1123 40.3796C38.1123 36.5488 40.4415 32.0985 43.3146 30.4391V26.2539C40.7341 27.7442 38.4529 30.5099 36.8301 34.1236C33.9295 40.5716 34.4826 47.2596 38.0575 49.0653L40.0346 44.6676C38.8643 44.0688 38.1123 42.5602 38.1123 40.3796Z" fill="#C1DBF6" stroke="#C1DBF6" stroke-miterlimit="10"/>
<path d="M43.3138 26.2539V30.4437C46.1869 28.7842 48.5161 30.5465 48.5161 34.3774C48.5161 38.2082 46.1869 42.6654 43.3138 44.3179C42.0726 45.0334 40.9344 45.1111 40.0406 44.6608L38.0566 49.0654C39.6315 49.8562 41.2795 49.6848 43.3138 48.5122C47.9218 45.8517 51.6589 38.7134 51.6589 32.5694C51.6589 26.4254 47.9218 23.5934 43.3138 26.2539Z" fill="#374874"/>
<path d="M29.9563 27.4764C29.4799 27.7854 29.18 28.3036 29.1494 28.8707C29.1494 29.3827 29.5106 29.5907 29.9563 29.3278C30.4312 29.0177 30.7301 28.4999 30.7608 27.9335C30.7608 27.4261 30.3997 27.2181 29.9563 27.4764Z" fill="#C1DBF6"/>
<path d="M38.0574 23.7975C38.0276 24.2013 37.8079 24.5669 37.4654 24.7827L31.9797 27.9507C31.6528 28.1404 31.3877 28.0055 31.3877 27.6512C31.4175 27.2475 31.6372 26.8819 31.9797 26.6661L37.4654 23.4981C37.79 23.3084 38.0574 23.4432 38.0574 23.7975Z" fill="#C1DBF6"/>
<path d="M39.3303 22.0414C38.8539 22.3504 38.554 22.8686 38.5234 23.4356C38.5234 23.9476 38.8846 24.1556 39.3303 23.8928C39.8053 23.5827 40.1041 23.0649 40.1349 22.4985C40.1349 21.9934 39.7737 21.7854 39.3303 22.0414Z" fill="#374874"/>
<path d="M47.4285 18.3632C47.3994 18.7677 47.1796 19.1343 46.8365 19.3506L41.3508 22.5186C41.0239 22.7083 40.7588 22.5735 40.7588 22.2192C40.7886 21.8155 41.0083 21.4499 41.3508 21.234L46.8365 18.066C47.1634 17.874 47.4285 18.0089 47.4285 18.3632Z" fill="#C1DBF6"/>
<path d="M48.7043 16.6072C48.2279 16.9163 47.928 17.4345 47.8975 18.0015C47.8975 18.5135 48.2586 18.7238 48.7043 18.4587C49.1793 18.1486 49.4781 17.6308 49.5089 17.0644C49.5089 16.5569 49.1477 16.3489 48.7043 16.6072Z" fill="#374874"/>
<path d="M56.7996 12.9284C56.7698 13.3321 56.5501 13.6977 56.2076 13.9135L50.7219 17.0838C50.395 17.2713 50.1299 17.1364 50.1299 16.7821C50.1597 16.3784 50.3794 16.0128 50.7219 15.797L56.2076 12.629C56.5367 12.4393 56.7996 12.5741 56.7996 12.9284Z" fill="#C1DBF6"/>
</svg>
